<svg xmlns="http://www.w3.org/2000/svg" width="259" height="280" viewBox="0 0 259 280">
  <g id="illust" transform="translate(-133.226 -300.59)">
    <g>
      <path d="M202.651,349.385H147.162A12.458,12.458,0,0,0,134.7,361.842v33.843a12.46,12.46,0,0,0,12.458,12.458h23.523l8.463,11.061,2.033-11.061h21.47a12.457,12.457,0,0,0,12.459-12.457h0V361.842A12.458,12.458,0,0,0,202.651,349.385Z" fill="#752223"/>
      <path d="M179.148,420.675a1.474,1.474,0,0,1-1.17-.578l-8.021-10.483h-22.8a13.948,13.948,0,0,1-13.931-13.931V361.842a13.948,13.948,0,0,1,13.931-13.931h55.489a13.946,13.946,0,0,1,13.931,13.931v33.841a13.946,13.946,0,0,1-13.931,13.931H182.4l-1.81,9.855a1.462,1.462,0,0,1-1.444,1.206Zm-31.986-69.819a11,11,0,0,0-10.986,10.985v33.841a11,11,0,0,0,10.986,10.985h23.523a1.474,1.474,0,0,1,1.17.578l6.445,8.424,1.432-7.8a1.473,1.473,0,0,1,1.448-1.206h21.47a11,11,0,0,0,10.985-10.985V361.842a11,11,0,0,0-10.985-10.985Z" fill="#752223"/>
    </g>
    <g>
      <path d="M268.8,337.626c0-19.641-18.968-35.564-42.367-35.564s-42.368,15.921-42.368,35.564,18.969,35.564,42.367,35.564a49.966,49.966,0,0,0,11.894-1.431l13.3,11.327-2.068-15.67C261.137,361.068,268.8,350.1,268.8,337.626Z" fill="#fff"/>
      <path d="M251.619,384.557a1.474,1.474,0,0,1-.955-.352l-12.728-10.843a51.447,51.447,0,0,1-11.507,1.3c-24.173,0-43.84-16.614-43.84-37.036s19.667-37.036,43.84-37.036,43.84,16.614,43.84,37.036c0,12.3-7.127,23.665-19.121,30.586l1.932,14.682a1.469,1.469,0,0,1-1.461,1.663Zm-13.3-14.272a1.472,1.472,0,0,1,.955.352l10.382,8.844-1.562-11.873a1.475,1.475,0,0,1,.752-1.484c11.568-6.341,18.473-16.995,18.473-28.5,0-18.8-18.345-34.091-40.9-34.091s-40.895,15.293-40.895,34.091,18.345,34.091,40.895,34.091a48.531,48.531,0,0,0,11.543-1.389,1.472,1.472,0,0,1,.355-.041Z" fill="#752223"/>
    </g>
    <path d="M239.89,448.074s-22.6,7.19-2.054,26.193l19.516,5.136L255.3,462.968S252.216,450.642,239.89,448.074Z" fill="#fff"/>
    <g>
      <path d="M237.064,466.878a1.856,1.856,0,0,1-1.849-1.728l-.307-4.461a1.855,1.855,0,0,1,.3-1.143l2.764-4.227a1.853,1.853,0,0,1,2.566-.539h0a1.854,1.854,0,0,1,.537,2.568h0l-2.423,3.7.265,3.84a1.855,1.855,0,0,1-1.723,1.978h0A1.169,1.169,0,0,1,237.064,466.878Z" fill="#752223"/>
      <path d="M229.615,464.054a1.858,1.858,0,0,1-1.758-1.264l-.989-2.937a1.85,1.85,0,0,1-.084-.375c-.388-3.294,3.451-8.248,4.638-9.688a1.856,1.856,0,0,1,2.866,2.359c-1.842,2.24-3.8,5.474-3.824,6.752l.911,2.7a1.869,1.869,0,0,1-1.76,2.453Z" fill="#752223"/>
      <path d="M242.458,468.591a1.857,1.857,0,0,1-1.854-1.8l-.091-2.84a1.867,1.867,0,0,1,.1-.647l1.22-3.659a1.856,1.856,0,0,1,3.521,1.174l-1.114,3.344.08,2.508a1.855,1.855,0,0,1-1.794,1.914h0Z" fill="#752223"/>
      <path d="M228.684,467.888c1.94.034,4.929.086,6.7.884a23.725,23.725,0,0,0,7.194,2.317h1.463s4.756-4.024,1.829-9.145l-8.786-9.511-6.219-2.561s-13.453,1.666-12.8-3.049c0,0,.244-2.439,4.878-2.926l8.954-1.221a7.848,7.848,0,0,1,3.519.321c2.883.949,8.5,2.88,10.288,3.583l6.991,3.17s8.535,6.828,11.462,13.169c0,0,4.756,11.1,9.145,14.022l34.382,12.072-8.414,19.754-34.386-16.461s-17.295-1.922-24.314-9.062a45.854,45.854,0,0,0-5.079-4.477c-2.911-2.2-7.34-3.044-9.626-4.142,0,0-3.783-1.048-2.97-4.137C222.9,470.488,223.614,467.8,228.684,467.888Z" fill="#fff"/>
      <path d="M247.134,470.762a1.855,1.855,0,0,1-1.663-2.676,3.242,3.242,0,0,0,.068-2.16,11.744,11.744,0,0,0-1.189-2.885L236,453.993l-5.395-2.222c-2.957.329-10.549.859-13.3-1.932a3.816,3.816,0,0,1-1.078-3.268h0c.087-.634.812-3.906,6.492-4.515l8.927-1.217a9.764,9.764,0,0,1,4.35.4c1.672.55,4.1,1.377,6.193,2.1a1.855,1.855,0,1,1-1.221,3.5c-2.072-.722-4.479-1.54-6.133-2.085a5.961,5.961,0,0,0-2.688-.245l-8.954,1.221-.057.007c-2.6.274-3.224,1.256-3.225,1.265a.294.294,0,0,1-.008.069.336.336,0,0,0,0,.1c.434.93,5.323,1.52,10.741.853a1.852,1.852,0,0,1,.934.126l6.219,2.56a1.848,1.848,0,0,1,.657.458l8.78,9.511a1.776,1.776,0,0,1,.252.345,15.683,15.683,0,0,1,1.673,4.043,6.8,6.8,0,0,1-.351,4.652A1.858,1.858,0,0,1,247.134,470.762Z" fill="#752223"/>
      <path d="M254.616,492.44h-.143c-.406-.031-7.8-.341-15.226-7.89a44.22,44.22,0,0,0-4.873-4.3,22.208,22.208,0,0,0-6.14-2.758,31.372,31.372,0,0,1-3.03-1.125c-2.208-.679-5.019-2.871-4.1-6.35.114-.425,1.28-4.1,7.612-3.983,2.128.038,5.317.1,7.427,1.049a21.992,21.992,0,0,0,6.609,2.161,1.855,1.855,0,0,1,1.668,2.025h0a1.849,1.849,0,0,1-2.013,1.669H242.4a24.935,24.935,0,0,1-7.78-2.472c-1.414-.638-4.252-.689-5.948-.72-2.675-.048-3.757.8-3.991,1.286-.262,1.251,1.606,1.785,1.687,1.807a1.782,1.782,0,0,1,.308.115,27.052,27.052,0,0,0,2.745,1.019,25.317,25.317,0,0,1,7.2,3.314,48,48,0,0,1,5.284,4.658c6.457,6.567,12.776,6.785,12.861,6.791a1.855,1.855,0,0,1,1.71,1.989v0A1.856,1.856,0,0,1,254.616,492.44Zm-29.927-21.474-.011.043a.207.207,0,0,0,.01-.043Z" fill="#752223"/>
      <path d="M273.3,478.8a1.841,1.841,0,0,1-1.027-.312c-4.682-3.121-9.252-13.51-9.811-14.811-2.505-5.4-9.612-11.4-10.768-12.346l-4.383-2.094a1.856,1.856,0,0,1,1.6-3.35h0l4.584,2.189a1.881,1.881,0,0,1,.359.225c.362.29,8.912,7.179,11.987,13.841l.021.046c1.264,2.947,5.25,11.064,8.469,13.21a1.854,1.854,0,0,1,.516,2.572h0A1.852,1.852,0,0,1,273.3,478.8Z" fill="#752223"/>
    </g>
    <g>
      <path d="M193.527,436.865s6.921-5.925,9.078-2.566c0,0,1.839,3.381-3.244,8.216Z" fill="#fff"/>
      <path d="M199.36,444.331a1.814,1.814,0,0,1-1.264-.512l-5.833-5.65a1.817,1.817,0,0,1,.083-2.686c.882-.756,5.464-4.5,8.967-3.983a3.941,3.941,0,0,1,2.821,1.815c.024.037.047.075.068.114a5.811,5.811,0,0,1,.491,3.382c-.285,2.354-1.658,4.715-4.079,7.019A1.813,1.813,0,0,1,199.36,444.331Zm-3.052-7.3,3,2.9c2.2-2.629,1.835-4.341,1.7-4.737a.346.346,0,0,0-.225-.1c-1-.146-2.9.847-4.475,1.934Z" fill="#752223"/>
    </g>
    <g>
      <path d="M198.5,443.854s6.921-5.924,9.077-2.566c0,0,1.839,3.381-3.244,8.216Z" fill="#fff"/>
      <path d="M204.331,451.322a1.812,1.812,0,0,1-1.264-.507l-5.834-5.65a1.817,1.817,0,0,1,.083-2.686c.883-.756,5.464-4.5,8.967-3.983a3.942,3.942,0,0,1,2.821,1.816,1.305,1.305,0,0,1,.067.114,5.819,5.819,0,0,1,.491,3.382c-.285,2.354-1.658,4.715-4.08,7.019A1.808,1.808,0,0,1,204.331,451.322Zm-3.052-7.3,3,2.9c2.2-2.629,1.835-4.342,1.7-4.738a.35.35,0,0,0-.226-.1c-.98-.141-2.871.831-4.478,1.931Z" fill="#752223"/>
    </g>
    <g>
      <path d="M202.221,451.252s6.921-5.924,9.078-2.566c0,0,1.839,3.381-3.244,8.217Z" fill="#fff"/>
      <path d="M208.054,458.719a1.814,1.814,0,0,1-1.264-.512l-5.833-5.65a1.817,1.817,0,0,1,.083-2.686c.883-.756,5.466-4.5,8.968-3.983a3.943,3.943,0,0,1,2.821,1.816c.024.037.047.075.067.113a5.811,5.811,0,0,1,.491,3.382c-.285,2.354-1.658,4.715-4.079,7.019A1.813,1.813,0,0,1,208.054,458.719Zm-3.052-7.3,3,2.9c2.2-2.629,1.835-4.341,1.7-4.738a.348.348,0,0,0-.226-.1c-.974-.144-2.866.835-4.473,1.935Z" fill="#752223"/>
    </g>
    <g>
      <path d="M305.072,382.552a25.744,25.744,0,0,1-3.488-1.464c-7.126-3.952.281-8.961-6.65-16.285-2.9-3.065-21.167-4.744-26.658-11.568-.443-.55-3.843,4.627-3.141,4.7h0s-1.512,9.1,1.307,23.032c0,0,1.489,4.424.306,7.422l-3.266,8.5s.048,3.829,7.625,5.26l1.11,4.136,2.334,2.939a17.535,17.535,0,0,1,2.606,3.713c3.049,5.368.365,16.858,26.135,3.7l1.526,8.864a44.743,44.743,0,0,1-1.25,20.484l-1.477,4.909,50.424,2.161L332.363,392.29l-5.763.355Z" fill="#fff"/>
      <path d="M304.88,416.293a1.628,1.628,0,0,0-2.332-1.109c-9.709,4.956-16.221,6.806-19.358,5.5-1.879-.785-2.505-2.753-3.23-5.033a18.48,18.48,0,0,0-1.391-3.52,20.108,20.108,0,0,0-2.8-3.992l-2.068-2.6-1.029-3.819a1.628,1.628,0,0,0-1.271-1.178c-4.9-.926-6-2.846-6.238-3.512l3.092-8.047a8.338,8.338,0,0,0,.517-2.229,12.007,12.007,0,0,0,.05-1.587,17.911,17.911,0,0,0-.81-4.62c-2.692-13.372-1.292-22.261-1.277-22.348a1.566,1.566,0,0,0,.019-.18l-3.248-.26c-.164,1.071-1.394,10.058,1.331,23.527a1.855,1.855,0,0,0,.052.194,14.341,14.341,0,0,1,.477,1.98,8.719,8.719,0,0,1-.147,4.34l-3.266,8.5a1.638,1.638,0,0,0-.108.6c.006.507.29,4.836,7.939,6.626l.852,3.171a1.641,1.641,0,0,0,.3.59l2.334,2.939a2.065,2.065,0,0,0,.14.155,16.824,16.824,0,0,1,2.325,3.35,15.862,15.862,0,0,1,1.119,2.9c.8,2.533,1.808,5.686,5.08,7.051,3.983,1.664,10.257.23,20.2-4.653Z" fill="#752223"/>
    </g>
    <path d="M275.319,382.989a2.122,2.122,0,1,1-2.44-1.924A2.2,2.2,0,0,1,275.319,382.989Z" fill="#752223"/>
    <path d="M330.833,329.142c-3.027-2.232-16.307-14.046-35.8-5.017-2.968,1.375-13.9,8.158-16.565,10.057a159.36,159.36,0,0,1-14.8,9.41c-9.152,5.268-10.314,17.917-1.866,24.253,3.832,2.873,8.018,4.849,14.459,6.53,10.728,2.8,13.748.92,15.6,2.017,12.934,7.656,8.113,10.655,21.878,16.692,3.045,1.335,6.22,2.653,9.544,2.608,4.831-.067-1.378.469,3.055-1.455,17.975-7.8,19.555-33.074,15.781-48.394C342.12,345.843,339.039,335.193,330.833,329.142Z" fill="#752223"/>
    <g>
      <path d="M294.75,379.633s2.446-11.507,8.817-7.423a7.887,7.887,0,0,1,3.067,3.868c1.5,3.956,2.09,12.992-4.6,18.753Z" fill="#fff"/>
      <path d="M302.179,396.452a1.63,1.63,0,0,1-1.21-2.857l0,0c5.807-5,5.621-13.045,4.14-16.94a6.212,6.212,0,0,0-2.423-3.075,2.488,2.488,0,0,0-2.467-.471c-1.924.8-3.4,4.635-3.879,6.863a1.628,1.628,0,0,1-1.933,1.251h0a1.627,1.627,0,0,1-1.252-1.93h0c.161-.759,1.7-7.471,5.807-9.189a5.7,5.7,0,0,1,5.482.733,9.443,9.443,0,0,1,3.711,4.659c1.866,4.909,2.058,14.436-5.059,20.566A1.63,1.63,0,0,1,302.179,396.452Z" fill="#752223"/>
    </g>
    <g>
      <path d="M300.38,388.571a1.629,1.629,0,0,1-1.593-.88,9.981,9.981,0,0,1,1.042-10.526,1.629,1.629,0,0,1,2.533,2.048,6.719,6.719,0,0,0-.677,6.992,1.631,1.631,0,0,1-1.3,2.366Z" fill="#752223"/>
    </g>
    <g>
      <g>
        <path d="M164.1,438.911l27.955,38.3,21.892-9.713a2.79,2.79,0,0,0,1.415-3.685,2.757,2.757,0,0,0-.315-.537L189.257,428.8a4.209,4.209,0,0,0-4.9-1.4l-19.081,7.48a2.649,2.649,0,0,0-1.175,4.027Z" fill="#fff"/>
        <path d="M192.051,479.022a1.819,1.819,0,0,1-1.469-.746l-27.955-38.3h0a4.467,4.467,0,0,1,1.978-6.791l19.083-7.477a6.042,6.042,0,0,1,7.023,2L216.5,462.177a4.609,4.609,0,0,1-1.82,6.973l-21.892,9.713A1.819,1.819,0,0,1,192.051,479.022Zm-26.488-41.187,27.09,37.114,20.552-9.119a.973.973,0,0,0,.385-1.472L187.8,429.893a2.4,2.4,0,0,0-2.787-.794l-19.083,7.477a.83.83,0,0,0-.368,1.263Z" fill="#752223"/>
      </g>
      <g>
        <path d="M170.415,439.672,192.08,469.39l16.129-7.366-21.551-28.9Z" fill="#eae3dc"/>
        <path d="M192.08,469.925a.535.535,0,0,1-.432-.22l-21.665-29.714a.535.535,0,0,1,.232-.811l16.245-6.546a.536.536,0,0,1,.628.176l21.549,28.9a.533.533,0,0,1-.211.806L192.3,469.882A.535.535,0,0,1,192.08,469.925Zm-20.829-30.013,21,28.811,15.13-6.91-20.907-28.036Z" fill="#eae3dc"/>
      </g>
    </g>
    <path d="M260.486,496.714s-10.856,21.048-19.932,33.426c0,0-10.856-6.233-23.077-20.278q-.876-1.006-1.76-2.067-.55-.662-1.1-1.342-.953-1.174-1.909-2.413l-10.8-14.124c2.662-4.448,2.812-14.253,2.812-14.253l.952-4.539-9.486,4.3c-.818-5.477-11.592-13.222-11.592-13.222a33.186,33.186,0,0,0-3.217-7.877,13.765,13.765,0,0,0-4.422-5c-5.26-3.556-5.526,1.468-5.526,1.468l4.3,12.466,4.784,19.245c.848,5.9,14.894,32.78,14.894,32.78s20.723,43.025,47.7,52.042a9.3,9.3,0,0,0,9.1-1.811c5.449-4.793,23.572-24.846,37.588-56.063Z" fill="#fff"/>
    <path d="M207.66,538.988A169.541,169.541,0,0,1,193.778,516.1c-1.507-2.885-14.067-27.06-15.053-33.24l-4.745-19.085-4.273-12.391a1.828,1.828,0,0,1-.1-.688c.016-.3.219-2.979,2.4-4.062,1.61-.8,3.616-.4,5.964,1.184a15.646,15.646,0,0,1,5.011,5.653,38.789,38.789,0,0,1,3.237,7.667c2.145,1.6,8.807,6.845,11.067,11.787l7.634-3.46a1.817,1.817,0,0,1,2.528,2.029l-.917,4.373c-.032,1.322-.314,9.112-2.481,13.857l10.1,13.208a1.817,1.817,0,1,1-2.887,2.207l-10.8-14.124a1.818,1.818,0,0,1-.116-2.037c1.974-3.3,2.513-10.753,2.554-13.348a1.814,1.814,0,0,1,.039-.345l.216-1.031-6.221,2.819a1.816,1.816,0,0,1-2.547-1.387c-.513-3.43-6.931-9.19-10.856-12.014a1.818,1.818,0,0,1-.726-1.146,30.3,30.3,0,0,0-3.036-7.357,11.982,11.982,0,0,0-3.834-4.341c-1.448-.978-2.169-1.008-2.308-.941a1.312,1.312,0,0,0-.341.722l4.157,12.056c.017.051.033.1.046.154l4.784,19.244a1.788,1.788,0,0,1,.035.18c.659,4.587,10.839,24.8,14.705,32.2l.027.053a168.71,168.71,0,0,0,13.606,22.415Z" fill="#752223"/>
    <path d="M196.857,481.844a1.773,1.773,0,0,1-1.764-1.619c-.131-1.473-.841-5.777-2.537-8.009a1.772,1.772,0,0,1,.339-2.483h0a1.773,1.773,0,0,1,2.484.339c2.669,3.511,3.224,9.59,3.246,9.847a1.772,1.772,0,0,1-1.612,1.919h0Q196.934,481.844,196.857,481.844Z" fill="#752223"/>
    <g>
      <path d="M373.821,482.2v.005C373.836,482.4,373.945,482.618,373.821,482.2Z" fill="#20989a"/>
      <path d="M334.813,438.051v-.009C334.852,437.842,334.819,437.511,334.813,438.051Z" fill="#20989a"/>
      <path d="M351.086,470.754a.44.44,0,0,0,.134.187,1.26,1.26,0,0,1-.119-.17Z" fill="#20989a"/>
      <path d="M332.9,433.711" fill="#20989a"/>
      <path d="M334.152,440.192c.026-.123.013-.157-.069.216V440.4A1.858,1.858,0,0,1,334.152,440.192Z" fill="#20989a"/>
    </g>
    <path d="M209.529,493.1s-15.466.754-22.257,14.335c0,0,14.209,46.022,52.686,59.98,0,0,16.1,3.018,33.322-20.37,0,0-2.443,27.844-1.123,31.651H372.04c.2.029,1.827-58.6-4.82-98.219l-13.756-42.032s-10.049-4.223-49.674,3.821c0,0-27.511,8.407-35.918,35.154,0,0-16,39.138-25.9,50.009C241.97,527.43,219.337,511.964,209.529,493.1Z" fill="#fff"/>
    <path d="M392.083,490.826a2.423,2.423,0,0,0-2.289-1.743c-1.814.064-3.632.123-5.446.028-.4-.021-.8-.049-1.2-.087-.233-.022-.464-.051-.7-.075l-.089-.009c-.058-.012-.116-.025-.169-.034a17.551,17.551,0,0,1-2.607-.629c-.221-.073-.441-.15-.659-.233l-.115-.045a5.639,5.639,0,0,0-1.014-.512q-.465-.267-.906-.576c-.045-.032-.224-.17-.287-.216-.091-.077-.182-.153-.271-.232q-.369-.329-.711-.687-.2-.209-.384-.426c-.038-.044-.074-.089-.111-.134-.189-.276-.381-.547-.549-.837-.094-.161-.182-.326-.266-.493-.022-.044-.043-.088-.064-.133-.049-.3-.231-.63-.307-.93-.038-.153-.072-.307-.1-.462a2.069,2.069,0,0,0-.04-.233c.009.03.015.05.022.075q-.026-.518,0-1.035v-.06c.045-.231.092-.461.153-.689.017-.062.179-.564.273-.83l.041-.082c.04-.079.078-.159.118-.238q.141-.276.3-.545c.2-.336.407-.662.631-.98a3.677,3.677,0,0,1,.374-.511c-.012.011-.265.328-.091.122.078-.093.152-.189.23-.283,2.117-2.559,4.607-4.783,6.71-7.361a25.747,25.747,0,0,0,5.181-9.2,16.208,16.208,0,0,0-.061-8.955,11.865,11.865,0,0,0-5.5-7.057,25.058,25.058,0,0,0-3.8-1.566c-.6-.205-1.2-.4-1.788-.619-.274-.1-.547-.2-.817-.31-.134-.07-.283-.124-.418-.189-.248-.119-.492-.246-.729-.385-.106-.062-.212-.126-.315-.193-.043-.028-.166-.116-.248-.175l-.03-.026c-.1-.09-.2-.183-.291-.28-.041-.043-.08-.093-.12-.142-.012-.016-.023-.033-.033-.049-.056-.089-.1-.182-.152-.274-.034-.116-.072-.23-.1-.348a.29.29,0,0,0-.012-.057v-.636c.016-.06.036-.119.041-.141.045-.194.1-.385.162-.574.042-.127.086-.252.133-.377.009-.025.059-.142.088-.213l.13-.277q.127-.268.261-.532.27-.532.563-1.052c.367-.651.755-1.291,1.152-1.924.829-1.321,1.7-2.614,2.508-3.947a18.94,18.94,0,0,0,3.184-9.079,12.5,12.5,0,0,0-2.9-8.234,18.061,18.061,0,0,0-6.348-4.772,35.413,35.413,0,0,0-8.067-2.688c-2.654-.554-5.352-.867-8-1.436-1.339-.287-2.669-.62-3.974-1.034q-.975-.309-1.928-.685l-.134-.054-.327-.143q-.468-.212-.927-.448a17.5,17.5,0,0,1-1.622-.946c-.2-.134-.4-.279-.6-.421-.053-.047-.132-.1-.178-.134q-.189-.158-.375-.321a12.309,12.309,0,0,1-1.309-1.354,2.24,2.24,0,0,0-.279-.384q-.283-.417-.531-.859c-.156-.279-.3-.566-.432-.855l-.026-.054c-.008-.023-.018-.053-.035-.1-.078-.214-.158-.427-.232-.642-.285-.831-.525-1.678-.823-2.505a11.257,11.257,0,0,0-2.524-4.3c-3.434-3.423-9-3.852-13.189-1.686a2.051,2.051,0,0,0-1.993.646c-4,4.938-7.5,10.461-9.055,16.689a25.219,25.219,0,0,0,1.478,16.967,18.9,18.9,0,0,0,4.9,6.45,18.494,18.494,0,0,0,3.473,2.309c1.087.548,2.215,1.011,3.331,1.495a26.809,26.809,0,0,1,3.221,1.588c.245.149.487.3.722.469l.02.016-.047-.05a3.759,3.759,0,0,0,.324.267c.176.151.344.309.506.474.1.1.19.2.281.3l.059.067c.152.234.306.464.437.712.044.083.089.231.146.327,0,.01.008.019.011.029a6.336,6.336,0,0,1,.215.8c.006.032.011.069.016.1,0,.066.01.132.013.2a6.888,6.888,0,0,1-.008.8c-.009.131-.037.267-.037.4v-.091a10.849,10.849,0,0,1-.43,1.582c-.064.182-.159.371-.23.559a1.1,1.1,0,0,1-.062.2v.007a.108.108,0,0,1-.009.029V440.4c-.057.128-.115.256-.175.383-.273.585-.567,1.161-.865,1.733-.56,1.074-1.14,2.138-1.649,3.237a13.777,13.777,0,0,0-1.5,8.177c.918,5.521,6.4,8.913,11.13,10.925l2.151.9.031.013.441.189q.48.207.954.423a30.707,30.707,0,0,1,3.464,1.809q.333.206.657.424c.111.075.746.415.755.538l-.237-.184c.08.063.159.127.238.191.118.1.234.2.348.3.264.232.519.474.762.727.175.182.337.373.5.565a.09.09,0,0,1,0-.023.231.231,0,0,0,.018.04c.026.03.053.058.079.088.1.114.083.118.04.082.054.069.108.134.121.154q.25.372.465.766c.072.132.141.266.206.4.021.042.039.085.059.128v.006c.12.356.243.707.331,1.074.047.2.083.394.123.592.063.318.048.217.027.1a9.076,9.076,0,0,1-.016,2.491,4.635,4.635,0,0,1-.064.611c.126-.563-.015.1-.029.187-.064.411-.138.821-.217,1.229-.159.82-.341,1.636-.517,2.453a21.031,21.031,0,0,0-.4,8.809,9.736,9.736,0,0,0,1.791,3.938,9.205,9.205,0,0,0,4.2,2.974,21.248,21.248,0,0,0,4.5.978c1.722.244,3.448.429,5.185.508a50.874,50.874,0,0,0,19.21-2.856c1.63-.58,3.231-1.247,4.8-1.977A2.38,2.38,0,0,0,392.083,490.826Zm-17.836-7.074-.039-.081c-.125-.255,0-.052.04.081Zm-.009-4.141.013-.026a.878.878,0,0,1,.065-.163.6.6,0,0,1-.064.163Zm-.927-39.637a.252.252,0,0,0,0-.039C373.33,439.93,373.33,439.946,373.324,439.948Zm-.025-.181c-.055-.239,0-.042.019.089,0-.03-.01-.06-.017-.09Zm.01-.361a.179.179,0,0,1,.007-.089c0,.048,0,.09-.005.088Z" fill="#752223"/>
    <path d="M305.344,437.6a1.772,1.772,0,0,1-1.771-1.735c0-.135-.3-12.088-1.832-18.154a1.773,1.773,0,0,1,3.437-.869c1.633,6.457,1.928,18.382,1.94,18.949a1.772,1.772,0,0,1-1.735,1.808Z" fill="#752223"/>
    <g>
      <path d="M300.51,496.121c-4.02-27.7-19.755-31.6-20.423-31.753a1.9,1.9,0,1,0-.844,3.7h0c.138.031,13.861,3.45,17.511,28.6a1.9,1.9,0,0,0,1.877,1.626,1.946,1.946,0,0,0,.275-.02,1.9,1.9,0,0,0,1.6-2.156Z" fill="#752223"/>
      <path d="M286.53,524.861a1.9,1.9,0,0,0-2.538.876c-.077.157-7.787,15.87-19.1,28.442a1.9,1.9,0,0,0-.385.655c-4.156,4.221-9.166,8.055-14.792,9.951-5.2,1.754-8.7,1.057-9.2.943-18.2-7.37-31.222-22.916-38.949-34.673a135.005,135.005,0,0,1-12.352-23.508c5.347-9.86,15.9-12.087,19.31-12.557A76.888,76.888,0,0,0,225.7,516.672a1.77,1.77,0,1,0,2.374-2.626,73.621,73.621,0,0,1-16.969-21.76,1.777,1.777,0,0,0-1.658-.952c-.674.032-16.585.97-23.756,15.312a1.776,1.776,0,0,0-.081,1.4,132.508,132.508,0,0,0,12.947,24.888c8.027,12.229,21.611,28.425,40.743,36.131a1.672,1.672,0,0,0,.168.058c.591.17,12.815,3.453,27.873-12.085a1.913,1.913,0,0,0,.375-.314q.748-.832,1.475-1.678c.9-1.005,1.8-2.075,2.717-3.221l.224-.351A147.322,147.322,0,0,0,287.4,527.4,1.9,1.9,0,0,0,286.53,524.861Z" fill="#752223"/>
      <path d="M233.3,536.322a1.869,1.869,0,0,0,1.088.363c1.038,0,2.139-.893,3.468-2.082a54.149,54.149,0,0,0,5.584-5.968,1.865,1.865,0,0,0,.3-.523c10.008-11.594,25.131-48.434,25.78-50.02.018-.046.035-.093.05-.14a48.2,48.2,0,0,1,11.061-18.7,1.772,1.772,0,0,0-.075-2.505h0a1.772,1.772,0,0,0-2.505.075h0a51.729,51.729,0,0,0-11.839,20c-.727,1.767-15.085,36.521-24.528,48.228-1.229-.894-3.25-2.41-5.7-4.415a1.772,1.772,0,0,0-2.244,2.744h0c2.332,1.906,4.262,3.367,5.543,4.306a35.838,35.838,0,0,1-5.165,5.094,1.9,1.9,0,0,0-1.345.916A1.965,1.965,0,0,0,233.3,536.322Z" fill="#752223"/>
    </g>
    <g>
      <circle id="楕円形_27" data-name="楕円形 27" cx="3.112" cy="3.112" r="3.112" transform="translate(297.666 393.934)" fill="#fff"/>
      <path d="M300.778,401.725a4.678,4.678,0,1,1,4.679-4.678A4.685,4.685,0,0,1,300.778,401.725Zm0-6.224a1.546,1.546,0,1,0,1.546,1.546A1.548,1.548,0,0,0,300.778,395.5Z" fill="#752223"/>
    </g>
    <g>
      <path d="M210.474,334.087a18.137,18.137,0,0,1,1.225-6.9,13.9,13.9,0,0,1,8.349-8.1,18.972,18.972,0,0,1,12.448,0,14.483,14.483,0,0,1,5.023,3.074,14.135,14.135,0,0,1,3.373,5.024,18.137,18.137,0,0,1,1.225,6.9,17.7,17.7,0,0,1-1.8,8.323,13.773,13.773,0,0,1-4.9,5.374q.75.35,1.774.75t2.149.8q1.125.4,2.325.775t2.249.675a3.3,3.3,0,0,1,.05.525v.425a5.265,5.265,0,0,1-1.474,4.149,5.642,5.642,0,0,1-3.874,1.3,10.257,10.257,0,0,1-4.749-1.274,22.729,22.729,0,0,1-5-3.674l-2.2-2.05h-.4a17.968,17.968,0,0,1-6.3-1.075,14.024,14.024,0,0,1-5-3.124,14.434,14.434,0,0,1-3.3-5.049A18.329,18.329,0,0,1,210.474,334.087Zm9,0q0,4.549,1.849,6.8a6.626,6.626,0,0,0,9.949,0q1.848-2.25,1.849-6.8,0-4.5-1.825-6.748a6.063,6.063,0,0,0-4.974-2.25,6.183,6.183,0,0,0-4.974,2.225q-1.875,2.222-1.876,6.773Z" fill="#752223"/>
    </g>
    <g>
      <path d="M167.636,363.918a10.613,10.613,0,0,1,2.575-.95,13.719,13.719,0,0,1,3.474-.45,12.5,12.5,0,0,1,4.424.725,3.854,3.854,0,0,1,2.475,2.275q.9,2.6,1.949,6.048t2.1,7.123q1.05,3.674,2.049,7.248t1.75,6.323a4.112,4.112,0,0,1-1.8,1.125,8.563,8.563,0,0,1-2.85.425,8.772,8.772,0,0,1-2.024-.2,3.613,3.613,0,0,1-1.349-.6,2.94,2.94,0,0,1-.85-1.05,9.045,9.045,0,0,1-.575-1.5l-.9-3.449h-9.048q-.4,1.5-.8,3.1t-.8,3.1a12.805,12.805,0,0,1-1.475.425,8.668,8.668,0,0,1-1.874.175,6.544,6.544,0,0,1-3.774-.875,2.814,2.814,0,0,1-1.225-2.424,5.1,5.1,0,0,1,.2-1.4q.2-.7.45-1.65.349-1.349.974-3.349t1.375-4.324q.75-2.325,1.6-4.774t1.6-4.624q.75-2.174,1.375-3.874T167.636,363.918Zm6,6.448q-.7,2.1-1.574,4.674t-1.575,5.224h6.2q-.7-2.7-1.424-5.274t-1.325-4.624Z" fill="#fff"/>
    </g>
    <path d="M278.853,530.8a2.8,2.8,0,0,1-1.6-.5l-20.488-14.181a2.809,2.809,0,0,1-.711-3.908h0a2.81,2.81,0,0,1,3.909-.711l20.488,14.181a2.81,2.81,0,0,1-1.6,5.12Z" fill="#eae3dc"/>
    <path d="M271.6,541.054a2.8,2.8,0,0,1-1.6-.5l-20.489-14.181a2.809,2.809,0,0,1-.711-3.908h0a2.809,2.809,0,0,1,3.909-.711l20.488,14.181a2.809,2.809,0,0,1,.712,3.908h0A2.805,2.805,0,0,1,271.6,541.054Z" fill="#eae3dc"/>
    <path d="M285,519.153a2.8,2.8,0,0,1-1.6-.5l-20.484-14.18a2.809,2.809,0,1,1,3.2-4.62L286.6,514.034a2.81,2.81,0,0,1,.711,3.91h0A2.808,2.808,0,0,1,285,519.153Z" fill="#eae3dc"/>
    <path d="M292.418,518.884a2.809,2.809,0,0,1-.052-5.618c.508-.01,51.05-1,72.6-3.87a2.809,2.809,0,0,1,3.156,2.411v0a2.809,2.809,0,0,1-2.412,3.156h0c-21.87,2.916-71.152,3.878-73.24,3.918Z" fill="#eae3dc"/>
    <path d="M291.929,532.062a2.81,2.81,0,0,1-.071-5.619c.519-.014,52.157-1.383,73.72-4.258a2.805,2.805,0,0,1,3.155,2.407v.006a2.808,2.808,0,0,1-2.412,3.156h0c-21.86,2.915-72.185,4.25-74.317,4.306Z" fill="#eae3dc"/>
    <path d="M283.633,545.728a2.81,2.81,0,0,1-.073-5.618c.608-.016,61.064-1.65,82.628-4.525a2.808,2.808,0,0,1,3.156,2.409v0a2.809,2.809,0,0,1-2.412,3.156h0c-21.86,2.914-80.726,4.506-83.222,4.573Z" fill="#eae3dc"/>
    <path d="M278.549,541.174a1.892,1.892,0,0,1-1.6-2.9c10.946-17.325,14.669-29.848,14.705-29.973A1.89,1.89,0,0,1,294,507.014h0a1.891,1.891,0,0,1,1.286,2.344c-.155.529-3.911,13.162-15.138,30.933A1.889,1.889,0,0,1,278.549,541.174Z" fill="#752223"/>
    <path d="M272.157,580.588a1.891,1.891,0,0,1-1.891-1.891V558.516a1.891,1.891,0,0,1,3.782,0V578.7a1.891,1.891,0,0,1-1.891,1.891Z" fill="#752223"/>
    <path d="M372.04,580.588h-.071a1.89,1.89,0,0,1-1.82-1.957v0c.018-.494,1.8-49.633-.6-74.8a1.889,1.889,0,0,1,3.761-.361c2.42,25.41.634,74.8.616,75.292A1.89,1.89,0,0,1,372.04,580.588Z" fill="#752223"/>
    <path d="M285.558,454.39a1.891,1.891,0,0,1-1.023-3.482c.53-.34,13.05-8.347,18.808-9.751,5.915-1.442,13.629-2.8,25.8-4.537a1.889,1.889,0,0,1,.539,3.739c-12.039,1.72-19.646,3.056-25.436,4.467-4.274,1.042-14.2,7.038-17.662,9.26A1.886,1.886,0,0,1,285.558,454.39Z" fill="#752223"/>
    <path d="M274.546,411.009a1.788,1.788,0,0,1-.334-3.545,10.944,10.944,0,0,0,5.989-3.288,1.789,1.789,0,0,1,2.513-.28h0a1.788,1.788,0,0,1,.28,2.513h0a14.378,14.378,0,0,1-8.11,4.566A1.818,1.818,0,0,1,274.546,411.009Z" fill="#752223"/>
  </g>
</svg>