<svg xmlns="http://www.w3.org/2000/svg" width="380" height="185" viewBox="0 0 380 185">
<style>
  .color-1 {
    fill: #ffffff;
  }
  .color-2 {
    fill: #8e3330;
  }
  .color-3 {
    fill: #eae3dc;
  }
</style>
<defs>
  <clipPath id="clip-path">
    <path d="M742.978,1238.978a8.083,8.083,0,0,0-7.5,5.055,7.53,7.53,0,0,0-.589,3.028,8.084,8.084,0,1,0,8.084-8.083Z" transform="translate(-734.894 -1238.978)" fill="none"/>
  </clipPath>
</defs>
  <g id="illust" transform="translate(-76.666 -931.775)">
    <path d="M607.636,1360.782l-3.058,21.867-19.8-.211-1.552,5.81-74.783-.8,22.922-20.511,8.929.1,6.4-6.85S607.646,1359.849,607.636,1360.782Z" transform="translate(-290.666 -288.356)" fill="#fff"/>
    <path d="M636.263,1382.353l-78.626-.84a1.016,1.016,0,0,1-.743-.312.95.95,0,0,1,.013-1.314l20.758-21.37a.994.994,0,0,1,.724-.3l61.161.654a.04.04,0,0,1,.025.01c.964.857.351,1.919-.5,1.91l-60.275-.644-18.908,19.466,76.867.821C637.735,1381.292,637.121,1382.362,636.263,1382.353Z" transform="translate(-323.107 -287.072)" fill="#88322f"/>
    <path d="M579.442,1399.447,503,1398.63a.983.983,0,0,1-.908-.619.947.947,0,0,1,.255-1.054l23.836-21.338a1,1,0,0,1,.674-.252l4.959.053a.963.963,0,1,1-.021,1.925l-4.572-.049-21.712,19.436,73.144.781.55-1.989a.983.983,0,0,1,1.162-.747.963.963,0,0,1,.764,1.137l-.714,2.766A.978.978,0,0,1,579.442,1399.447Z" transform="translate(-286.342 -298.618)" fill="#88322f"/>
    <path d="M806.214,1388.894a.961.961,0,0,1-.132-.009.972.972,0,0,1-.833-1.095l2.435-17.9a.973.973,0,0,1,1.928.262l-2.434,17.9A.973.973,0,0,1,806.214,1388.894Z" transform="translate(-490.461 -294.364)" fill="#88322f"/>
    <path d="M868.355,1308.357a.971.971,0,0,1-.7-.3l-12.384-13.674H821.821a.973.973,0,0,1,0-1.946h33.863a.973.973,0,0,1,.7.3l12.671,13.973a.973.973,0,0,1-.7,1.646Z" transform="translate(-500.968 -242.792)" fill="#88322f"/>
    <g transform="translate(295.769 1074.671)">
      <path d="M757.759,1384.195c.748,1.318,4.664.634,4.664.634,1.236,2.63,6.943.227,6.943.227l8.646.155c11.286,6.256,18.65,2.8,18.65,2.8l11.762-2.572c.191-7.795-4.423-10.507-4.423-10.507l-10.7,1.818-12-3.65a21.7,21.7,0,0,0-4.64-.886,43,43,0,0,0-13.174.948c-12.608,2.9-13.169,6.929-13.169,6.929s-1.239,3.436,2.932,2.96C753.252,1383.045,754.131,1384.915,757.759,1384.195Z" transform="translate(-749.144 -1371.073)" fill="#fff"/>
      <path d="M785.388,1400.322a1,1,0,0,1-.91-.639,2.387,2.387,0,0,1,.209-2.218c1.854-2.935,10.836-3.732,12.618-3.862a1,1,0,0,1,.146,2c-6.665.488-10.484,2.008-11.068,2.932a.4.4,0,0,0-.036.418,1,1,0,0,1-.959,1.367Z" transform="translate(-772.133 -1385.563)" fill="#88322f"/>
      <path d="M770.463,1393.4a1,1,0,0,1-.783-.406,2.729,2.729,0,0,1-.437-2.731c1.4-3.589,11.092-5.616,13.021-5.986a1,1,0,0,1,.378,1.97c-7.217,1.387-11.087,3.61-11.53,4.746a.759.759,0,0,0,.181.808,1,1,0,0,1-.83,1.6Z" transform="translate(-761.871 -1379.271)" fill="#88322f"/>
      <path d="M757.44,1388.021a1,1,0,0,1-.956-.8c-1.2-5.745,12.017-8.882,13.528-9.22a1,1,0,0,1,.439,1.957c-4.187.94-12.631,3.853-12,6.853a1,1,0,0,1-1.007,1.208Z" transform="translate(-753.357 -1375.045)" fill="#88322f"/>
      <path d="M788.482,1387.9a28.139,28.139,0,0,1-12.8-3.759l-8.192-.146c-1.148.455-5.736,2.083-7.619-.147-1.248.156-3.391.257-4.539-.642-2.623.374-3.983-.527-4.606-1.187a3.474,3.474,0,0,1-3.054-1.1,3.545,3.545,0,0,1-.387-3.16c.2-.862,1.764-4.848,13.9-7.64a43.83,43.83,0,0,1,13.493-.974,1,1,0,0,1-.155,2,42.487,42.487,0,0,0-12.836.916l-.036.009c-10.947,2.516-12.3,5.809-12.4,6.114a.482.482,0,0,1-.049.177,1.666,1.666,0,0,0,.049,1.316c.241.3.906.412,1.825.308a.916.916,0,0,1,1.015.554c.094.144.834,1.12,3.41.609a1,1,0,0,1,1.068.489c.247.3,1.919.435,3.62.141a1.006,1.006,0,0,1,1.08.562c.616,1.311,4.136.362,5.647-.271a1.01,1.01,0,0,1,.407-.078l8.646.155h.007a1,1,0,0,1,.461.125,25.76,25.76,0,0,0,12.92,3.621,13.248,13.248,0,0,0,4.821-.858,1.046,1.046,0,0,1,.208-.07l10.976-2.4a12.3,12.3,0,0,0-1.9-6.709,8.2,8.2,0,0,0-1.756-1.933l-10.3,1.749a1,1,0,0,1-.46-.029l-12-3.651a1,1,0,0,1,.584-1.919l11.769,3.582,10.47-1.778a1.007,1.007,0,0,1,.677.124c.209.123,5.12,3.107,4.917,11.4a1,1,0,0,1-.789.955l-11.664,2.551A15.978,15.978,0,0,1,788.482,1387.9Zm-36.39-7.349Zm-2.846-2.4Z" transform="translate(-747.075 -1369.005)" fill="#88322f"/>
    </g>
    <g transform="translate(341.691 1073.812)">
      <path d="M890.508,1370.65l4.826,18.693,7.688-2.005-4.049-18.036Z" transform="translate(-889.553 -1368.347)" fill="#fff"/>
      <path d="M893.367,1388.331a.955.955,0,0,1-.925-.717l-4.826-18.693a.955.955,0,0,1,.775-1.182l8.466-1.349a.957.957,0,0,1,1.083.734l4.049,18.036a.956.956,0,0,1-.691,1.134l-7.688,2.005A.953.953,0,0,1,893.367,1388.331Zm-3.638-18.87,4.323,16.748,5.868-1.531-3.65-16.259Z" transform="translate(-887.585 -1366.379)" fill="#88322f"/>
    </g>
    <path d="M1053.528,947.379c.27-.645,1.672-3.237,2.488-1.736,4.294,7.9,11.279,10.375,13.227,9.479,1.177-.541,1.776.485,2.481,1.277.594.668.426,5.269,1.04,8.459.254,1.323,2.208,1.227,3.677-.953a2.11,2.11,0,0,1,3.277-.211L1085,970.95a2.134,2.134,0,0,1,.381.568l3.41,7.434a23.3,23.3,0,0,1,1.819-6.315c4.392-11.257,17.994-19.971-.179-31.988,0,0-6.625-10.245-19.343-8.719A21.329,21.329,0,0,0,1061.032,936c-1.958,1.44-3.26,3.377-6.13,4.148,0,0-11.5,3.964-3.116,15.226A26.736,26.736,0,0,1,1053.528,947.379Z" transform="translate(-654.37)" fill="#88322f"/>
    <path d="M307.735,1044.855s-.743-14.608,8.913-21.045l4.621-.347c1.93-.941,6.451-3.388,7.587-6.155a39.493,39.493,0,0,0,1.337-14.126l-.183-4.5s3.035-15.489,11.918-21.5c0,0,4.362,7.461,14.756,11.263.453-.377,1.271-.032,2.141-.249,2.454-.613,3.9-6.264.625-8.619a18.061,18.061,0,0,1-5.079-5.995,12.571,12.571,0,0,0-1.5-1.791,16.389,16.389,0,0,0-4.58-3.292,15.465,15.465,0,0,0-7.614-1.482,19.328,19.328,0,0,0-4.895.961,25.578,25.578,0,0,0-2.665,1.055c-.578.266-1.211.653-1.73.891-.191.088-.417.135-.614.21a10.509,10.509,0,0,0-1.044.462,13.9,13.9,0,0,0-3.188,2.258,20.426,20.426,0,0,0-5.9,10.2c-.252,1.033-.23,4.917-.286,5.979,0,0,.2,7.7,4.631,12.433a24.848,24.848,0,0,0-7.4,6.815,3.588,3.588,0,0,0,.46,5.779c1.125.923,3.268,2.037,2.141,3.771a7.729,7.729,0,0,1-2.832,2.212c-1.111.626-2.267,1.167-3.434,1.68a74.9,74.9,0,0,0-6.943,3.194,15.726,15.726,0,0,0-3.147,2.192,2.857,2.857,0,0,0-.807,3.122c.715,1.96,2.914,3.143,2.981,5.368a5.173,5.173,0,0,1-2.785,4.692,6.593,6.593,0,0,1-6.3-.626,7.675,7.675,0,0,1-1.323-1.058.708.708,0,0,0-1.142.806,20.132,20.132,0,0,0,11.257,10.016,16.109,16.109,0,0,0,1.8.495Z" transform="translate(-146.556 -23.705)" fill="#88322f"/>
    <path d="M179.887,978.161l6.274-8.413.809.808,4.877-4.65,4.131,1.73a.935.935,0,0,0,1.291-.766l-.193-2.922c.064-2.586-.08-4.662,1.508-6.7l7.985-10.265c-.826.966,7.83,3.561,10.829,3.855l.366,2.567c5.274-10.583-5.654-13.054-5.654-13.054-3-.467-4.52-2.255-6.657-3.481a22.116,22.116,0,0,0-10.653-3c-13.112-.189-18.851,10.677-18.851,10.677-17.334,13.83-2.61,21.067,2.978,31.79C179.256,976.972,179.566,977.5,179.887,978.161Z" transform="translate(-61.324 -1.409)" fill="#88322f"/>
    <path d="M986.794,1210.094,985.4,1198.6l15.271-1.365.855,8.989Z" transform="translate(-611.742 -178.705)" fill="#fff"/>
    <path d="M400.246,1097.669l-13.12-39.247c-4.457-14.03-13.122-16.093-13.122-16.093l-2.209.166c-1.515-3.836-.041-8.215-.041-8.215,10.386-2.02,9.706-19.574,9.706-19.574-.04-4.648.009-5.135.009-5.135-10.656-3.759-15.114-11.4-15.114-11.4-8.883,6.012-11.918,21.5-11.918,21.5l.183,4.5a39.493,39.493,0,0,1-1.337,14.126c-1.137,2.767-5.658,5.214-7.587,6.155l-4.621.347c-9.656,6.437-8.913,21.045-8.913,21.045l-1.485,33.919c-.033,2.57-.235,13.481,2.241,14.966l3.7,9.545,56.088-4.792a13.809,13.809,0,0,0,1.517-.16C408.419,1117.018,400.246,1097.669,400.246,1097.669Z" transform="translate(-170.983 -44.699)" fill="#fff"/>
    <path d="M329.655,1198.986h-.03a.972.972,0,0,1-.942-1l1.176-38.082a33.828,33.828,0,0,1,.861-8.333c1.393-6.078,4.327-10.756,8.486-13.528a.973.973,0,1,1,1.079,1.619c-4.722,3.148-6.777,8.45-7.669,12.344a32.067,32.067,0,0,0-.812,7.842c0,.026,0,.053,0,.079l-1.177,38.12A.973.973,0,0,1,329.655,1198.986Z" transform="translate(-169.652 -138.743)" fill="#88322f"/>
    <path d="M492.676,1262.25a.973.973,0,0,1-.056-1.944l8.442-.493a12.808,12.808,0,0,0,1.417-.148c2.988-.486,5.11-1.832,6.308-4,3.288-5.95-.982-16.218-1.026-16.321-.009-.023-.019-.046-.026-.07l-10-29.924a.973.973,0,1,1,1.845-.617l9.992,29.89c.341.818,4.592,11.34.921,17.983-1.5,2.717-4.091,4.392-7.7,4.979a14.749,14.749,0,0,1-1.624.171l-8.435.493Z" transform="translate(-279.396 -185.995)" fill="#88322f"/>
    <path d="M475.976,1153.026a.973.973,0,0,1-.922-.664l-1.567-4.687c-2.212-6.964-5.478-10.793-7.83-12.783a12.9,12.9,0,0,0-4.6-2.673.973.973,0,0,1,.455-1.892c.375.09,9.253,2.356,13.824,16.745l1.562,4.673a.973.973,0,0,1-.923,1.281Z" transform="translate(-258.266 -133.643)" fill="#88322f"/>
    <path d="M474.666,1040.945a1.076,1.076,0,1,1-1.041-1.11A1.076,1.076,0,0,1,474.666,1040.945Z" transform="translate(-266.477 -72.743)" fill="#88322f"/>
    <path d="M441.69,1040.945a1.076,1.076,0,1,1-1.04-1.11A1.076,1.076,0,0,1,441.69,1040.945Z" transform="translate(-244.278 -72.743)" fill="#88322f"/>
    <g transform="translate(187.64 982.773)">
      <g transform="translate(0.091 0.091)">
        <path d="M429.782,1095.733l-.056,0a19.023,19.023,0,0,1-12.718-6.17.682.682,0,0,1,1.059-.86h0a17.98,17.98,0,0,0,11.768,5.67.682.682,0,0,1-.054,1.363Z" transform="translate(-416.74 -1088.333)" fill="#88322f"/>
        <path d="M429.543,1095.611l-.064,0a19.141,19.141,0,0,1-12.8-6.213.8.8,0,0,1,1.239-1.006,17.848,17.848,0,0,0,11.687,5.628.8.8,0,0,1-.063,1.594Zm-12.244-7.284a.566.566,0,0,0-.439.923,18.89,18.89,0,0,0,12.637,6.128.567.567,0,0,0,.091-1.13,18.073,18.073,0,0,1-11.849-5.712A.565.565,0,0,0,417.3,1088.327Z" transform="translate(-416.501 -1088.096)" fill="#88322f"/>
      </g>
      <g>
        <path d="M429.594,1095.638l-.063,0a19.122,19.122,0,0,1-12.781-6.2.773.773,0,0,1,1.2-.975,17.835,17.835,0,0,0,11.7,5.637.774.774,0,0,1,.709.833A.777.777,0,0,1,429.594,1095.638Zm-12.244-7.284a.591.591,0,0,0-.459.964,18.926,18.926,0,0,0,12.654,6.136.592.592,0,1,0,.1-1.179,18.025,18.025,0,0,1-11.832-5.7A.59.59,0,0,0,417.35,1088.354Z" transform="translate(-416.462 -1088.056)" fill="#88322f"/>
        <path d="M429.356,1095.515l-.073,0a19.251,19.251,0,0,1-12.861-6.245.889.889,0,0,1,1.38-1.121,17.749,17.749,0,0,0,11.624,5.594.889.889,0,0,1,.815.957A.893.893,0,0,1,429.356,1095.515Zm-12.244-7.284a.475.475,0,0,0-.473.426.474.474,0,0,0,.1.349,18.8,18.8,0,0,0,12.574,6.094.477.477,0,0,0,.345-.112.475.475,0,0,0-.269-.836,18.182,18.182,0,0,1-11.912-5.745A.474.474,0,0,0,417.112,1088.231Z" transform="translate(-416.223 -1087.818)" fill="#88322f"/>
      </g>
    </g>
    <g transform="translate(199.371 969.13)">
      <g transform="translate(0.089 0.091)">
        <path d="M454.539,1077.743a.682.682,0,0,1-.59-.339c-2.258-3.871-.764-10.361-.7-10.636a.682.682,0,0,1,.557-.517c9.758-1.552,9.139-18.7,9.132-18.871a.682.682,0,0,1,1.363-.058,37.931,37.931,0,0,1-.944,9.35c-1.479,6.2-4.54,9.936-8.869,10.841-.282,1.468-1.038,6.328.639,9.2a.683.683,0,0,1-.589,1.026Z" transform="translate(-452.602 -1046.566)" fill="#88322f"/>
        <path d="M454.326,1077.634a.789.789,0,0,1-.679-.39c-2.28-3.908-.776-10.436-.711-10.712a.783.783,0,0,1,.642-.6c9.663-1.536,9.052-18.592,9.044-18.764a.786.786,0,1,1,1.571-.067,38.041,38.041,0,0,1-.947,9.379c-1.478,6.2-4.548,9.966-8.88,10.9-.283,1.5-1,6.259.639,9.064a.786.786,0,0,1-.678,1.182Zm9.081-31.074h-.024a.579.579,0,0,0-.553.6c.007.174.624,17.413-9.219,18.978a.577.577,0,0,0-.472.438c-.064.273-1.551,6.723.688,10.56a.594.594,0,0,0,.791.208.579.579,0,0,0,.208-.791c-1.7-2.911-.928-7.836-.651-9.276a.1.1,0,0,1,.081-.082c4.284-.9,7.323-4.617,8.789-10.763a37.822,37.822,0,0,0,.942-9.322A.58.58,0,0,0,463.407,1046.56Z" transform="translate(-452.39 -1046.352)" fill="#88322f"/>
      </g>
      <g>
        <path d="M454.353,1077.646a.776.776,0,0,1-.668-.383c-2.277-3.9-.774-10.427-.709-10.7a.77.77,0,0,1,.631-.586c9.685-1.54,9.063-18.605,9.055-18.777a.773.773,0,1,1,1.545-.066,38.036,38.036,0,0,1-.947,9.375c-1.478,6.2-4.548,9.963-8.879,10.9-.282,1.494-1,6.267.64,9.082a.773.773,0,0,1-.667,1.162Zm9.081-31.074h-.025a.592.592,0,0,0-.565.616c.008.174.635,17.4-9.208,18.965a.589.589,0,0,0-.483.448c-.064.273-1.551,6.728.689,10.569a.591.591,0,1,0,1.022-.6c-1.7-2.907-.926-7.828-.65-9.267l.011-.059.059-.012c4.289-.9,7.332-4.622,8.8-10.773a37.8,37.8,0,0,0,.942-9.325A.593.593,0,0,0,463.434,1046.573Z" transform="translate(-452.328 -1046.287)" fill="#88322f"/>
        <path d="M454.143,1077.536a.88.88,0,0,1-.758-.435c-2.3-3.935-.786-10.5-.721-10.779a.873.873,0,0,1,.716-.665c9.6-1.527,8.975-18.5,8.968-18.67a.877.877,0,1,1,1.752-.075,38.151,38.151,0,0,1-.949,9.4c-1.48,6.2-4.554,9.992-8.891,10.959-.275,1.487-.967,6.188.64,8.943a.878.878,0,0,1-.315,1.2A.879.879,0,0,1,454.143,1077.536Zm9.081-31.178-.021.1a.489.489,0,0,0-.466.508c.008.175.64,17.491-9.3,19.071a.487.487,0,0,0-.4.37c-.064.271-1.54,6.69.678,10.492a.5.5,0,0,0,.667.176.488.488,0,0,0,.176-.667c-1.714-2.939-.94-7.891-.662-9.339l.011-.059a.1.1,0,0,1,.08-.082l.059-.012c4.247-.888,7.262-4.586,8.719-10.7a37.7,37.7,0,0,0,.939-9.3.487.487,0,0,0-.488-.467Z" transform="translate(-452.117 -1046.073)" fill="#88322f"/>
      </g>
    </g>
    <path d="M387.909,1045.433s.114,9.4,8.056,8.169l1.119-5.26S391.714,1038.943,387.909,1045.433Z" transform="translate(-209.522 -74.974)" fill="#fff"/>
    <g transform="translate(177.802 967.591)">
      <g>
        <path d="M392.1,1053.6a2.81,2.81,0,0,0,1.466-.411.752.752,0,1,0-.774-1.29c-1.148.689-2.577-.688-2.8-.911-3.288-4.664-1.4-6.784-1.172-7.011a2.668,2.668,0,0,1,2-.633,2.637,2.637,0,0,1,1.55,1.016.752.752,0,0,0,1.249-.838,3.8,3.8,0,0,0-5.738-.722l-.044.036c-.138.121-3.33,3.027.957,9.069a.787.787,0,0,0,.059.073,6.219,6.219,0,0,0,1.4,1.088A3.772,3.772,0,0,0,392.1,1053.6Z" transform="translate(-386.422 -1041.667)" fill="#88322f"/>
        <path d="M391.795,1053.444a3.916,3.916,0,0,1-1.916-.553,6.362,6.362,0,0,1-1.431-1.117.859.859,0,0,1-.071-.087c-4.365-6.151-1.077-9.14-.934-9.264.017-.015.034-.029.053-.043a4.255,4.255,0,0,1,3.318-.963,4.317,4.317,0,0,1,2.63,1.721.9.9,0,0,1-1.492,1,2.494,2.494,0,0,0-1.453-.954,2.539,2.539,0,0,0-1.892.607c-.2.2-2.014,2.244,1.2,6.808.14.14,1.536,1.508,2.6.87a.9.9,0,0,1,1.233.308.9.9,0,0,1-.308,1.233A2.955,2.955,0,0,1,391.795,1053.444Zm-1.588-11.785a4.232,4.232,0,0,0-2.536.956l-.035.029c-.134.117-3.233,2.936.98,8.873a.58.58,0,0,0,.047.059,6.051,6.051,0,0,0,1.36,1.06,3.029,3.029,0,0,0,3.163.126.605.605,0,0,0-.165-1.107.6.6,0,0,0-.458.068c-1.231.738-2.7-.648-2.976-.934-3.372-4.779-1.407-6.981-1.172-7.217a2.821,2.821,0,0,1,2.13-.675,2.792,2.792,0,0,1,1.648,1.079.606.606,0,0,0,1-.676,4,4,0,0,0-2.435-1.595A3.3,3.3,0,0,0,390.207,1041.658Z" transform="translate(-386.121 -1041.365)" fill="#88322f"/>
      </g>
      <g transform="translate(3.298 2.856)">
        <path d="M399.566,1055.542a.7.7,0,0,0,.694-.834c-.59-4.107-3.049-4.155-3.154-4.155h0a.783.783,0,0,0-.1,1.355l.078.052c.056,0,1.383.12,1.785,2.975A.7.7,0,0,0,399.566,1055.542Z" transform="translate(-396.515 -1050.407)" fill="#88322f"/>
        <path d="M399.264,1055.387a.854.854,0,0,1-.841-.732c-.385-2.738-1.636-2.848-1.649-2.849l-.04,0-.111-.075a.93.93,0,0,1,.116-1.609l.063-.014c.11,0,2.691.048,3.3,4.28a.85.85,0,0,1-.839,1Zm-2.428-3.869c.254.04,1.494.375,1.877,3.1a.561.561,0,0,0,.647.472.577.577,0,0,0,.453-.659c-.542-3.774-2.67-4.013-2.976-4.028a.637.637,0,0,0-.05,1.086Z" transform="translate(-396.213 -1050.105)" fill="#88322f"/>
      </g>
    </g>
    <g transform="translate(192.923 962.835)">
      <path d="M433.34,1029.212a.775.775,0,0,1-.181-1.438,4.993,4.993,0,0,1,3.769-.41.775.775,0,0,1-.509,1.464,3.433,3.433,0,0,0-2.533.314A.772.772,0,0,1,433.34,1029.212Z" transform="translate(-432.629 -1027.052)" fill="#88322f"/>
      <path d="M433.28,1029.11a.891.891,0,0,1-.211-.026h0a.893.893,0,0,1-.209-1.657,5.122,5.122,0,0,1,3.864-.417.893.893,0,0,1-.587,1.688,3.317,3.317,0,0,0-2.439.307A.9.9,0,0,1,433.28,1029.11Zm2.049-2.065a5,5,0,0,0-2.357.592.657.657,0,0,0,.154,1.218h0a.653.653,0,0,0,.463-.058,3.572,3.572,0,0,1,2.625-.323.657.657,0,0,0,.433-1.24A4.274,4.274,0,0,0,435.328,1027.045Z" transform="translate(-432.386 -1026.81)" fill="#88322f"/>
    </g>
    <path d="M455.876,1005.9a.931.931,0,0,1-.134-.01c-14.32-2.093-16.655-12.426-16.747-12.865a.916.916,0,0,1,1.793-.38c.085.391,2.215,9.531,15.219,11.432a.916.916,0,0,1-.131,1.823Z" transform="translate(-243.899 -40.485)" fill="#88322f"/>
    <path d="M467.332,1003.959c-5.708,0-8.882-5.885-9.015-6.135a.917.917,0,0,1,1.62-.858h0c.027.052,2.8,5.16,7.395,5.16a.916.916,0,1,1,0,1.833Z" transform="translate(-256.848 -43.557)" fill="#88322f"/>
    <g transform="translate(181.7 976.699)">
      <circle cx="1.733" cy="1.733" r="1.733" transform="translate(0.727 0.727)" fill="#fff"/>
      <path d="M400.509,1074.154a2.461,2.461,0,1,1,2.461-2.461A2.464,2.464,0,0,1,400.509,1074.154Zm0-3.467a1.006,1.006,0,1,0,1.006,1.006A1.007,1.007,0,0,0,400.509,1070.687Z" transform="translate(-398.048 -1069.232)" fill="#88322f"/>
    </g>
    <path d="M460.674,1066.975h-.894a.769.769,0,0,1,0-1.538h.894a.769.769,0,0,1,0,1.538Z" transform="translate(-257.387 -89.978)" fill="#88322f"/>
    <path d="M393.6,1153.635c-8.873,0-20.718-5.3-21.349-5.583a.973.973,0,0,1,.8-1.773,83.626,83.626,0,0,0,10.415,3.739c7.236,2.035,12.571,2.23,15.428.564a5.071,5.071,0,0,0,2.5-4.248.973.973,0,0,1,1.938.176,6.98,6.98,0,0,1-3.456,5.752A12.522,12.522,0,0,1,393.6,1153.635Z" transform="translate(-198.594 -143.842)" fill="#88322f"/>
    <path d="M371.968,1104.809a.973.973,0,0,1-.093-1.941c8.818-.86,9.026-15.978,9.027-16.13a.973.973,0,0,1,.973-.966h.007a.972.972,0,0,1,.966.979,33.461,33.461,0,0,1-1.322,8.461c-1.762,5.843-5.033,9.159-9.461,9.591A.934.934,0,0,1,371.968,1104.809Z" transform="translate(-198.137 -103.668)" fill="#88322f"/>
    <path d="M383.908,1221.63a.971.971,0,0,1-.662-.26c-6.977-6.478-16.166-42.732-16.769-45.134a6.951,6.951,0,0,0-8.673-4.172.973.973,0,0,1-.612-1.846,8.819,8.819,0,0,1,11.108,5.334.964.964,0,0,1,.047.14c.095.38,9.581,38.085,16.224,44.254a.973.973,0,0,1-.662,1.685Z" transform="translate(-188.397 -160.222)" fill="#88322f"/>
    <path d="M410.894,1236.373a1.529,1.529,0,0,1-.231-3.04l25.749-3.961a1.529,1.529,0,0,1,.465,3.022l-25.749,3.961A1.516,1.516,0,0,1,410.894,1236.373Z" transform="translate(-223.967 -200.324)" class="color-3" fill="#eae3dc"/>
    <path d="M417.964,1256.3a1.529,1.529,0,0,1-.236-3.039l24.1-3.8a1.529,1.529,0,0,1,.476,3.02l-24.1,3.8A1.494,1.494,0,0,1,417.964,1256.3Z" transform="translate(-228.727 -213.847)" class="color-3" fill="#eae3dc"/>
    <path d="M426.045,1277.066a1.529,1.529,0,0,1-.235-3.039l22.118-3.466a1.529,1.529,0,1,1,.473,3.021l-22.118,3.466A1.568,1.568,0,0,1,426.045,1277.066Z" transform="translate(-234.167 -228.051)" class="color-3" fill="#eae3dc"/>
    <path d="M350.291,1244.459a1.529,1.529,0,0,1-.6-2.936c8.329-3.534,14.152-3.823,14.4-3.834a1.529,1.529,0,0,1,.135,3.054,43.468,43.468,0,0,0-13.337,3.594A1.524,1.524,0,0,1,350.291,1244.459Z" transform="translate(-183.169 -205.934)" class="color-3" fill="#eae3dc"/>
    <path d="M357.867,1264.915a1.529,1.529,0,0,1-.6-2.936c8.329-3.534,14.151-3.823,14.4-3.834a1.529,1.529,0,0,1,.135,3.054,43.467,43.467,0,0,0-13.337,3.594A1.524,1.524,0,0,1,357.867,1264.915Z" transform="translate(-188.269 -219.704)" class="color-3" fill="#eae3dc"/>
    <path d="M364.684,1285.368a1.529,1.529,0,0,1-.6-2.936c8.329-3.534,14.152-3.823,14.4-3.834a1.529,1.529,0,0,1,.135,3.054,43.464,43.464,0,0,0-13.337,3.594A1.523,1.523,0,0,1,364.684,1285.368Z" transform="translate(-192.858 -233.473)" class="color-3" fill="#eae3dc"/>
    <path d="M500.286,1228.872a1.529,1.529,0,0,1-.167-3.048l2.228-.248a1.529,1.529,0,0,1,.338,3.038l-2.228.247A1.527,1.527,0,0,1,500.286,1228.872Z" transform="translate(-284.145 -197.775)" class="color-3" fill="#eae3dc"/>
    <path d="M504.074,1246.791a1.529,1.529,0,0,1-.37-3.012l2.971-.743a1.528,1.528,0,1,1,.742,2.966l-2.971.743A1.537,1.537,0,0,1,504.074,1246.791Z" transform="translate(-286.694 -209.504)" class="color-3" fill="#eae3dc"/>
    <path d="M505.589,1263.7a1.529,1.529,0,0,1-.369-3.012l3.961-.99a1.528,1.528,0,1,1,.741,2.966l-3.961.99A1.518,1.518,0,0,1,505.589,1263.7Z" transform="translate(-287.714 -220.723)" class="color-3" fill="#eae3dc"/>
    <path d="M489.088,1223.517a.961.961,0,0,1-.208-.022.972.972,0,0,1-.744-1.157l3.271-15.046a119.767,119.767,0,0,0-6.037-29.466.973.973,0,0,1,1.821-.685,121.856,121.856,0,0,1,6.167,30.144.967.967,0,0,1-.02.281l-3.3,15.185A.972.972,0,0,1,489.088,1223.517Z" transform="translate(-275.09 -164.751)" fill="#88322f"/>
    <path d="M449.156,1080.363a4.131,4.131,0,0,1-2.991-1.154,6.808,6.808,0,0,1-1.667-4.41.831.831,0,0,1,.644-.809,21.785,21.785,0,0,1,8.153-.337.832.832,0,0,1,.667.68,4.961,4.961,0,0,1-.789,3.238.831.831,0,0,1-1.384-.92,3.879,3.879,0,0,0,.538-1.455,21.17,21.17,0,0,0-6.109.264,4.516,4.516,0,0,0,1.111,2.562,2.534,2.534,0,0,0,1.939.677.831.831,0,0,1,.046,1.661Z" transform="translate(-247.617 -95.353)" fill="#88322f"/>
    <path d="M231.7,996.325a3.837,3.837,0,0,0-1.031-2.141c-5.034-4.824-4.191-6.894-4.376-6.721l-1.373-9.624c-3-.293-11.655-2.889-10.829-3.855L206.1,984.249c-1.588,2.042-1.444,4.118-1.508,6.7l.193,2.922a.935.935,0,0,1-1.291.766l-4.131-1.73-4.877,4.65-.809-.808-14.748,19.776,27.1,15.494,4.557-11.143c.161-.314,3.067-4.183,2.817-4.432h0a3.721,3.721,0,0,1,1.42-.5l8.368.054c4.538-.005,4.885-2,4.632-3.291a9.491,9.491,0,0,1-.021-3.332l.122-.754a6.785,6.785,0,0,1,.591-1.676,3.441,3.441,0,0,0,.225-2.3,2.293,2.293,0,0,1,.13-1.449,2.709,2.709,0,0,0,.162-2.081c-.884-2.211.577-2.733,1.226-2.856a1.648,1.648,0,0,0,1.441-1.94Z" transform="translate(-68.842 -28.414)" fill="#fff"/>
    <g transform="translate(121.563 960.466)">
      <path d="M225.8,1025.454s-.014-.411-1.126-1.615a4.511,4.511,0,0,0-2.36-1.3c-1.487-.33-4.034-.387-5.11,2.164a8.993,8.993,0,0,0-.324,3.394c.285,2.345,1.757,6.717,7.547,9.371Z" transform="translate(-215.924 -1021.456)" fill="#fff"/>
      <path d="M222.4,1036.477a.927.927,0,0,1-.243-.073c-6.546-3-7.827-8.056-8.074-10.091a9.684,9.684,0,0,1,.389-3.86c.982-2.329,3.281-3.34,6.151-2.7a5.407,5.407,0,0,1,2.833,1.574,4.282,4.282,0,0,1,1.367,2.2.914.914,0,0,1-1.809.215,5.047,5.047,0,0,0-.9-1.179,3.6,3.6,0,0,0-1.886-1.029c-1.155-.257-3.22-.386-4.07,1.627a8.275,8.275,0,0,0-.259,2.929c.21,1.729,1.314,6.034,7.02,8.649a.915.915,0,0,1-.518,1.735Zm.622-12.713ZM223,1023.6h0Zm0,0h0Zm0,0h0Z" transform="translate(-214.04 -1019.564)" fill="#88322f"/>
    </g>
    <path d="M329.037,1026.865a.932.932,0,0,0-.088-.083,49.369,49.369,0,0,1-4.255-4.594.906.906,0,0,0-1.378,1.176,57.268,57.268,0,0,0,4.4,4.751.849.849,0,0,1,.157.588,2.005,2.005,0,0,1-.991,1.187l-1.335.981a.905.905,0,0,0,.4,1.625.9.9,0,0,0,.673-.166l1.289-.948a3.589,3.589,0,0,0,1.765-2.483A2.686,2.686,0,0,0,329.037,1026.865Z" transform="translate(-165.894 -60.65)" fill="#88322f"/>
    <path d="M326.941,1069.024a.915.915,0,0,1-.771-.992l.333-3.426a.921.921,0,0,1,.02-.118l.5-2.156-.426-1.558a.912.912,0,0,1,.056-.633l.839-1.769a.914.914,0,0,1,1.652.784l-.694,1.463.4,1.454a.915.915,0,0,1,.008.448l-.54,2.323-.327,3.367a.914.914,0,0,1-1,.821Z" transform="translate(-167.958 -84.871)" fill="#88322f"/>
    <path d="M301.953,1066.8a5.142,5.142,0,0,1-2.153-.749.914.914,0,0,1,1.055-1.493c.952.672,3.714.587,4.9.44a.914.914,0,0,1,.224,1.815A16.562,16.562,0,0,1,301.953,1066.8Z" transform="translate(-149.949 -89.271)" fill="#88322f"/>
    <g transform="translate(124.833 964.107)">
      <path d="M229.625,1038.543a.914.914,0,0,1-.746-.67c-1.267-4.773-2.463-5.279-2.69-5.332a.616.616,0,0,0-.524.215.907.907,0,0,1-1.28.132.921.921,0,0,1-.133-1.292,2.427,2.427,0,0,1,2.309-.846c1.655.352,2.991,2.528,4.086,6.654a.915.915,0,0,1-1.021,1.139Z" transform="translate(-224.047 -1030.703)" fill="#88322f"/>
    </g>
    <path d="M302.636,1018.179a1.121,1.121,0,0,0,1.608.6,1.5,1.5,0,0,0,.487-1.87,1.121,1.121,0,0,0-1.608-.6A1.5,1.5,0,0,0,302.636,1018.179Z" transform="translate(-152.024 -56.802)" fill="#88322f"/>
    <path d="M316.578,994.8a.952.952,0,0,0,1.278-.882c.038-2.835-1.969-9.239-2.054-9.51a.952.952,0,0,0-1.817.572c.557,1.767,1.994,6.812,1.966,8.912A.953.953,0,0,0,316.578,994.8Z" transform="translate(-159.729 -34.982)" fill="#88322f"/>
    <path d="M287.688,971.242c-10.031-.328-13.945-6.716-14.119-7.01a.983.983,0,0,1,1.688-1.006,12.094,12.094,0,0,0,3.4,3.295,17.984,17.984,0,0,0,11.559,2.707.983.983,0,1,1,.138,1.961A25.946,25.946,0,0,1,287.688,971.242Z" transform="translate(-132.458 -20.85)" fill="#88322f"/>
    <path d="M287.7,1000.8a.983.983,0,0,1-.6-1.738,6.337,6.337,0,0,1,4.573-1.484.983.983,0,0,1-.252,1.95,4.352,4.352,0,0,0-3.064,1.046A.98.98,0,0,1,287.7,1000.8Z" transform="translate(-141.423 -44.277)" fill="#88322f"/>
    <g transform="translate(115.195 974.332)">
      <path d="M195.534,1068.736a1.03,1.03,0,0,1-.919-.676.877.877,0,0,1,.136-.858l3.04-4.79a1.021,1.021,0,0,1,1.368-.262.983.983,0,0,1,.23,1.408l-3.041,4.79A.981.981,0,0,1,195.534,1068.736Z" transform="translate(-194.556 -1061.99)" fill="#88322f"/>
    </g>
    <path d="M270.046,1107.16a.973.973,0,0,1-.939-1.229,21.164,21.164,0,0,1,4.257-7.744,4.319,4.319,0,0,1,3.773-1.238l6.8.48c.033,0,.066.006.1.012a2.651,2.651,0,0,0,2.261-.7.973.973,0,1,1,1.519,1.215,4.526,4.526,0,0,1-4.055,1.409l-6.831-.482a.9.9,0,0,1-.142-.021,2.324,2.324,0,0,0-2,.649,19.515,19.515,0,0,0-3.8,6.93A.973.973,0,0,1,270.046,1107.16Z" transform="translate(-129.524 -110.808)" fill="#88322f"/>
    <path d="M80.676,1223.654s-5.368-105.416,34.936-132.928c0,0,23.689,13.912,29.329,14.664l-1.88,12.785,1.88,15.792s11.281,33.841,12.785,35.345l26.7,6.016.376,9.024-34.217,9.776-10.553,4.4Z" transform="translate(-2.539 -107.002)" fill="#fff"/>
    <path d="M95.821,1225.41s-1.012-37.452,4.013-69.866c3.713-23.946,13.011-41.937,28.71-60.216,0,0,21.057,12.408,26.7,13.16l-1.88,12.785,1.88,15.792s11.281,33.84,12.785,35.344l26.7,6.016.376,9.024-34.217,9.776-11.5,6.889Z" transform="translate(-12.838 -110.1)" class="color-3" fill="#eae3dc"/>
    <path d="M184.158,1099.883a.99.99,0,0,1-.408-.057c-8.956-3.246-20.277-11.1-23.545-14.348-3.057,3.37-10.109,12.176-12,14.937a.989.989,0,0,1-1.632-1.118c2.1-3.062,10.457-13.458,12.958-15.991a.99.99,0,0,1,1.6.267c.821,1.4,13.322,10.778,23.3,14.393a.99.99,0,0,1-.266,1.917Z" transform="translate(-46.943 -101.809)" fill="#88322f"/>
    <path d="M77.728,1256.243a.988.988,0,0,1-1.056-1.09c.01-.1,2.194-57.188,5.136-70.329,2.721-12.151,7.632-29.36,15.577-42.344a.99.99,0,1,1,1.688,1.033c-7.8,12.746-12.64,29.722-15.328,41.718-2.92,13.035-5.094,70.027-5.105,70.128A.989.989,0,0,1,77.728,1256.243Z" transform="translate(0 -141.524)" fill="#88322f"/>
    <path d="M272.839,1209.944a.948.948,0,0,1-.1-.005.973.973,0,0,1-.873-1.063c1.384-14.111-4.171-59.677-4.227-60.136a.965.965,0,0,1,0-.245l1.41-10.716a.973.973,0,0,1,1.929.254l-1.394,10.594c.155,1.279,1.479,12.266,2.632,24.687,1.643,17.7,2.177,29.727,1.586,35.753A.973.973,0,0,1,272.839,1209.944Z" transform="translate(-128.557 -138.108)" fill="#88322f"/>
    <path d="M321.476,1281.757a.953.953,0,0,1-.2-.021l-23.53-4.992a7.021,7.021,0,0,1-5.233-4.48c-.6-1.657-1.253-3.446-1.921-5.28-2.545-6.985-5.43-14.9-6.515-18.337a.973.973,0,0,1,1.855-.586c1.072,3.394,3.949,11.29,6.487,18.257.669,1.835,1.321,3.625,1.922,5.283a5.075,5.075,0,0,0,3.79,3.237l23.548,5a.973.973,0,0,1-.2,1.924Z" transform="translate(-139.593 -212.459)" fill="#88322f"/>
    <path d="M209.44,1128.588a.965.965,0,0,1-.229-.027c-11.033-2.663-20-11.163-20.373-11.523a.973.973,0,0,1,1.346-1.4c.089.084,8.972,8.5,19.484,11.037a.973.973,0,0,1-.227,1.918Z" transform="translate(-75.31 -123.587)" fill="#88322f"/>
    <path d="M1048.412,974.995c-.976,2.331-1.969,6.331-1.911,12.718a2.124,2.124,0,0,1-.158.837,20.438,20.438,0,0,1-4.533,6.841,2.02,2.02,0,0,0-.684,1.519c.012.726.384,1.633,1.9,2.245a2.158,2.158,0,0,0,.663.15c.625.043,2.109.375,1.494,2.6a2.6,2.6,0,0,0,.363,1.95,2.15,2.15,0,0,1,.3,1.342,3.317,3.317,0,0,0,.486,2.28,5.455,5.455,0,0,1,.758,1.657l.163.586a10.188,10.188,0,0,1,.316,3.255c-.064,1.26.568,3.013,4.789,2.547l6.866-.64a2.127,2.127,0,0,1,2.171,1.324l4.7,11.666a2.127,2.127,0,0,0,2.984,1.077l18.183-9.82a2.128,2.128,0,0,0,.923-2.759l-7.907-17.239a2.134,2.134,0,0,0-.381-.568l-5.285-7.256a2.109,2.109,0,0,0-3.277.211c-1.468,2.18-3.422,2.276-3.677.953-.614-3.19-.445-7.791-1.04-8.459-.705-.792-1.3-1.818-2.481-1.277-1.947.9-8.933-1.582-13.227-9.479C1050.084,971.757,1048.682,974.35,1048.412,974.995Z" transform="translate(-649.255 -27.616)" fill="#fff"/>
    <g transform="translate(421.669 958.954)">
      <path d="M1134.995,1021.142s-.03-.395.9-1.665a4.342,4.342,0,0,1,2.119-1.5c1.388-.475,3.818-.8,5.119,1.525a8.65,8.65,0,0,1,.672,3.213c-.022,2.273-.964,6.613-6.221,9.769Z" transform="translate(-1134.115 -1016.756)" fill="#fff"/>
      <path d="M1135.021,1031.119a.88.88,0,0,1,.3-1.208c5.18-3.11,5.777-7.346,5.794-9.023a7.963,7.963,0,0,0-.56-2.774c-1.028-1.836-2.989-1.491-4.067-1.123a3.462,3.462,0,0,0-1.695,1.186,4.866,4.866,0,0,0-.737,1.224.88.88,0,0,1-1.754-.012,4.126,4.126,0,0,1,1.073-2.255,5.206,5.206,0,0,1,2.543-1.808c2.677-.917,4.984-.195,6.172,1.928a9.322,9.322,0,0,1,.784,3.651c-.019,1.973-.706,6.947-6.647,10.515a.879.879,0,0,1-1.208-.3Zm-.968-11.7Zm.007-.163h0Zm0,0h0Zm0,0h0Z" transform="translate(-1132.302 -1014.936)" fill="#88322f"/>
    </g>
    <path d="M1042.651,1035.451a.88.88,0,0,0,.211-1.612l-1.548-.893-.031-.017a2.313,2.313,0,0,1-1.291-1.256,1.063,1.063,0,0,1,.118-.763,62.447,62.447,0,0,0,4.245-5.741.88.88,0,0,0-1.457-.987,54.534,54.534,0,0,1-4.115,5.571.91.91,0,0,0-.076.09,2.83,2.83,0,0,0-.433,2.21,3.845,3.845,0,0,0,2.177,2.427l1.533.884A.878.878,0,0,0,1042.651,1035.451Z" transform="translate(-647.288 -61.946)" fill="#88322f"/>
    <g transform="translate(400.942 960.183)">
      <path d="M1071.1,1020.531a1.079,1.079,0,0,1-1.474.742,1.441,1.441,0,0,1-.665-1.737,1.078,1.078,0,0,1,1.474-.742A1.441,1.441,0,0,1,1071.1,1020.531Z" transform="translate(-1068.883 -1018.698)" fill="#1f0905"/>
      <path d="M1138.153,1033.674a.879.879,0,0,0,.643-.72c.7-4.7,1.793-5.313,2-5.388a.594.594,0,0,1,.525.15.873.873,0,0,0,1.239-.01.887.887,0,0,0-.01-1.25,2.336,2.336,0,0,0-2.3-.563c-1.546.513-2.592,2.737-3.2,6.8a.88.88,0,0,0,1.1.98Z" transform="translate(-1114.768 -1023.469)" fill="#88322f"/>
    </g>
    <path d="M1071.1,1020.531a1.079,1.079,0,0,1-1.474.742,1.441,1.441,0,0,1-.665-1.737,1.078,1.078,0,0,1,1.474-.742A1.441,1.441,0,0,1,1071.1,1020.531Z" transform="translate(-667.94 -58.514)" fill="#88322f"/>
    <path d="M1056.149,993.894a.88.88,0,0,0,.651-.853l-.01-2.867c.014-.284,0-.642-.026-1.045a7.619,7.619,0,0,1,.355-2.772l1.208-4.2a.88.88,0,0,0-1.676-.539l-1.208,4.2a9.376,9.376,0,0,0-.437,3.41c.016.279.038.661.025.871,0,.018,0,.037,0,.055l.01,2.892a.88.88,0,0,0,1.109.847Z" transform="translate(-658.589 -33.142)" fill="#88322f"/>
    <path d="M1058.459,968.731a2.612,2.612,0,0,1,.906-1.412,1.967,1.967,0,0,1,.978-.467c1.336-.225,2.907.848,4.8,3.28a20.089,20.089,0,0,1,1.786,2.759c.915,1.68,3.706,5.477,9.836,4.47a.88.88,0,0,1,.372,1.718c-.028.008-.057.014-.087.019-7.242,1.19-10.571-3.355-11.667-5.364a18.318,18.318,0,0,0-1.629-2.519,8.572,8.572,0,0,0-2.579-2.482.837.837,0,0,1-.134-.05.85.85,0,0,0-.592-.044.9.9,0,0,0-.359.568.851.851,0,1,1-1.634-.475Z" transform="translate(-660.9 -23.593)" fill="#88322f"/>
    <path d="M1083.242,1112.867a.88.88,0,0,0,.634-1.021c-.618-3.11-3.856-8.87-5.412-11.638-.284-.5-.553-.985-.64-1.157a.879.879,0,0,0-.9-.619l-10.932.694a.88.88,0,1,0,.111,1.756l10.352-.658c.12.22.275.495.471.844,1.393,2.479,4.656,8.284,5.22,11.119a.88.88,0,0,0,1.035.692Z" transform="translate(-665.441 -112.189)" fill="#88322f"/>
    <path d="M1054,1073.25a.88.88,0,0,0,.632-1.031l-.684-3.242a.855.855,0,0,0-.031-.111l-.709-2.009.241-1.536a.879.879,0,0,0-.121-.6l-.991-1.6a.88.88,0,1,0-1.5.926l.82,1.325-.225,1.434a.88.88,0,0,0,.04.429l.763,2.165.672,3.185a.88.88,0,0,0,1.043.679Z" transform="translate(-655.708 -88.136)" fill="#88322f"/>
    <path d="M1072.253,1002.727a.769.769,0,0,0-.448-.992,9.83,9.83,0,0,0-4.991-.365.769.769,0,0,0,.317,1.506,8.376,8.376,0,0,1,4.132.3.77.77,0,0,0,.99-.448Z" transform="translate(-666.136 -46.732)" fill="#88322f"/>
    <path d="M1063.35,1066.054a.9.9,0,0,1-.165-1.778c1.159-.219,1.819-1.6,2.168-2.729a12.133,12.133,0,0,0,.385-1.689l-5.326.579a.9.9,0,1,1-.194-1.783l6.441-.7a.9.9,0,0,1,.993.938c-.014.262-.376,6.437-4.135,7.146A.911.911,0,0,1,1063.35,1066.054Z" transform="translate(-661.569 -84.938)" fill="#88322f"/>
    <path d="M1095.613,1134.667l-6,5.092-3.819,19.1,13.094-14.912Z" transform="translate(-679.324 -136.582)" fill="#fff"/>
    <path d="M1090.346,1140.041l-2.062-4.5a.591.591,0,0,0-.75-.305l-2.437.937a.591.591,0,0,0-.364.417l-1.307,5.6-5.993,18.914a.591.591,0,0,0,.933.64l5.625-4.5a.586.586,0,0,0,.153-.185l1.687-3.187a.575.575,0,0,0,.06-.172l1.664-9.243,2.735-3.829A.591.591,0,0,0,1090.346,1140.041Z" transform="translate(-673.678 -136.938)" fill="#88322f"/>
    <path d="M1127.51,1079.3l-23.613,16.706,3.75,9,23.8-20.08Z" transform="translate(-691.511 -99.311)" fill="#fff"/>
    <g transform="translate(411.412 979.018)">
      <path d="M1105.821,1104.065a.885.885,0,0,0,.561-.2l24.55-20.08a.887.887,0,0,0,.165-1.2l-3.937-5.624a.886.886,0,0,0-1.218-.229l-8.184,5.456a.887.887,0,0,0,.984,1.476l7.463-4.975,2.968,4.24-22.991,18.805-3.019-7.245,12.6-8.93a.887.887,0,1,0-1.025-1.447l-13.178,9.34a.887.887,0,0,0-.306,1.064l3.75,9a.887.887,0,0,0,.819.546Z" transform="translate(-1101.096 -1076.502)" fill="#88322f"/>
      <path d="M1105.4,1103.949a.979.979,0,0,1-.662-.57l-3.75-9a.967.967,0,0,1,.336-1.168l13.178-9.341a.973.973,0,0,1,1.125,1.588l-12.543,8.891,2.948,7.075,22.84-18.681-2.874-4.106-7.392,4.928a.973.973,0,0,1-1.079-1.619l8.184-5.455a.978.978,0,0,1,1.337.251l3.937,5.624a.977.977,0,0,1-.181,1.311l-24.55,20.08a.975.975,0,0,1-.616.22A.993.993,0,0,1,1105.4,1103.949Zm20.405-27.315-8.184,5.456a.8.8,0,0,0,.888,1.332l7.463-4.975a.087.087,0,0,1,.119.023l2.969,4.24a.086.086,0,0,1-.016.116l-22.991,18.805a.092.092,0,0,1-.076.017.088.088,0,0,1-.059-.05l-3.019-7.246a.087.087,0,0,1,.03-.1l12.6-8.93a.8.8,0,1,0-.926-1.306l-13.178,9.341a.8.8,0,0,0-.276.96l3.749,9a.8.8,0,0,0,1.246.312l24.55-20.08a.8.8,0,0,0,.149-1.079l-3.937-5.624a.8.8,0,0,0-.659-.34A.791.791,0,0,0,1125.809,1076.634Z" transform="translate(-1100.916 -1076.329)" fill="#88322f"/>
    </g>
    <path d="M1012.954,1197.442c-1.113-4.333,1.914-3.72,1.639-8.185l.552-18.219c0-2.485-.552-9.938-.552-9.938v-33.127c0-15.735-10.27-31.133-10.27-31.133l-3.572-6.417c-35.692,18.54-45.417,55.424-45.417,55.424-.573,1.763-1.091,3.76-1.559,5.916l-3.056-20.5-20.787,2.311,5.313,40.262-27.882,6.625,6.349,23.065,35.735-6.709c0,.108,0,.169,0,.169l22.3,25.991,44,.553Z" transform="translate(-559.208 -106.798)" fill="#fff"/>
    <path d="M1115.719,1172.553a.973.973,0,0,1-.929-1.264,40.631,40.631,0,0,1,2.267-5.7c2.97-6.061,9.993-13.88,17.666-17.1a9.513,9.513,0,0,1,11.066,2.668.973.973,0,0,1-1.515,1.22,7.559,7.559,0,0,0-8.8-2.094c-7.231,3.034-13.86,10.427-16.672,16.162a38.654,38.654,0,0,0-2.158,5.422A.974.974,0,0,1,1115.719,1172.553Z" transform="translate(-698.814 -145.379)" fill="#88322f"/>
    <g transform="translate(163.09 1062.331)">
      <path d="M393.345,1338.455s-1.667-2.617-6.54-2.155l-3.2-.161a26.618,26.618,0,0,1-3.986.492s-4.487-3.627-9.337-3.04l-.763-.249s-.1.162-.269.438h0c-.964,1.574-4.194,6.93-4.414,8.34,0,0-16.453,3.159-20.427,3.047l-.242,13.412,21.618-2.977a28.953,28.953,0,0,0,22.1-1.726s3.347-1.855.461-3.495c0,0,3.485-3.277.119-4.567,0,0,3.087-1.971-.685-3.919C387.775,1341.9,394.582,1342.043,393.345,1338.455Z" transform="translate(-343.164 -1332.659)" fill="#fff"/>
      <path d="M341.153,1359.5a1,1,0,0,1-.047-.322l.242-13.413a1,1,0,0,1,1.027-.981c3.4.1,16.635-2.355,19.614-2.916a51.711,51.711,0,0,1,3.824-7.132,1,1,0,0,1,1.712,1.031c-2.642,4.386-3.679,6.579-3.764,7.124a1,1,0,0,1-.8.827c-.629.121-14.457,2.767-19.634,3.044l-.2,11.285,20.462-2.818a.993.993,0,0,1,.5.06,27.594,27.594,0,0,0,13.5.912,1,1,0,1,1,.349,1.967,29.517,29.517,0,0,1-14.326-.927l-21.372,2.943a1,1,0,0,1-1.089-.686Z" transform="translate(-341.105 -1333.267)" fill="#88322f"/>
      <path d="M454.84,1341.753c-.539-1.217-2.369-2.026-2.73-2.176a10.842,10.842,0,0,0-3.134-.458c-.5-.03-1.021-.061-1.485-.109l-.054,0-3.2-.161a.955.955,0,0,0-.147,0c-2.7.264-5.684.528-7.427.647l-2.411.636a1,1,0,0,0,.834,1.419c1.022.073,7.615-.56,9.124-.707l3.1.156c.5.051,1.032.083,1.546.114a10.776,10.776,0,0,1,2.488.309,3.971,3.971,0,0,1,1.668,1.14c.255.574.111.783.057.861-.6.868-3.436,1.134-5.165,1.039a1,1,0,0,0-.514,1.886c.908.469,1.458.99,1.508,1.424a1.366,1.366,0,0,1-.49.973,1,1,0,0,0,.275,1.707c.337.129.75.351.813.657.12.606-.681,1.7-1.259,2.25a1,1,0,0,0,.191,1.6c.528.3.667.534.668.616,0,.278-.6.842-1.106,1.129a28.386,28.386,0,0,1-4.111,1.687,1,1,0,0,0-.647,1.255v0a1,1,0,0,0,1.257.646,30.393,30.393,0,0,0,4.423-1.817l.033-.018c.357-.2,2.141-1.267,2.149-2.873a2.293,2.293,0,0,0-.711-1.636,4.273,4.273,0,0,0,1.074-3.222,2.549,2.549,0,0,0-.92-1.5,2.834,2.834,0,0,0,.35-1.658,2.786,2.786,0,0,0-.411-1.183c1.591-.173,3.417-.64,4.237-1.827A2.733,2.733,0,0,0,454.84,1341.753Z" transform="translate(-403.745 -1336.361)" fill="#88322f"/>
      <path d="M436.279,1336.195a.969.969,0,0,1-.5-.137c-4.644-2.769-6.123-2.863-6.3-2.863h0a.973.973,0,0,1-.462-1.886c.637-.2,2.49-.064,7.76,3.078a.973.973,0,0,1-.5,1.808Zm-6.683-3.029Zm0,0h0Zm0,0h0Z" transform="translate(-399.827 -1331.249)" fill="#88322f"/>
    </g>
    <g transform="translate(94.804 1005.333)">
      <path d="M218.05,1225.213c-18.612,4.512-37.225,2.82-37.225,2.82-5.64-7.332-10.716-40.609-10.716-40.609-1.029-9.515-2.761-15.278-4.341-18.732-1.886-4.122-3.555-4.956-3.555-4.956s-9.024-8.46-20.3-.564l-6.768,24.816c4.239,26.283,17.708,47.884,22.56,55.837,1.733,2.841,4.038,5.165,7.332,5.64,21.476,3.1,56.965-7.9,56.965-7.9C223.69,1230.853,218.05,1225.213,218.05,1225.213Z" transform="translate(-134.167 -1158.837)" class="color-3" fill="#eae3dc"/>
      <path d="M171.605,1249.006a61.366,61.366,0,0,1-8.716-.567c-3.176-.458-5.8-2.452-8.024-6.1l-.343-.561c-4.971-8.137-18.174-29.752-22.348-55.628a.973.973,0,1,1,1.921-.31c4.113,25.5,17.171,46.875,22.087,54.923l.343.563c1.9,3.118,4.074,4.813,6.641,5.183,19.522,2.818,51.256-6.289,55.953-7.686a20.659,20.659,0,0,0-1.319-10.965,15.22,15.22,0,0,0-2.1-3.556c-18.367,4.327-36.782,2.723-36.968,2.706a.972.972,0,0,1-.683-.375c-5.727-7.446-10.7-39.686-10.907-41.055,0-.014,0-.028-.005-.042-.857-7.927-2.29-14.128-4.258-18.432-1.668-3.646-3.113-4.494-3.128-4.5a.811.811,0,0,1-.208-.149c-.345-.321-8.607-7.809-19.081-.477a.973.973,0,1,1-1.116-1.594c6.149-4.3,11.674-3.905,15.226-2.812a17.612,17.612,0,0,1,6.214,3.385c.506.314,2.129,1.555,3.861,5.34,2.054,4.49,3.541,10.886,4.421,19.011.15.972,5,32.176,10.274,39.8,2.9.212,19.8,1.212,36.473-2.831a.972.972,0,0,1,.917.258c.244.245,5.97,6.118,4.221,17.2a.973.973,0,0,1-.673.777c-.089.028-9.051,2.79-20.522,5.134A144.379,144.379,0,0,1,171.605,1249.006Z" transform="translate(-132.163 -1156.848)" fill="#88322f"/>
    </g>
    <path d="M1042.563,1281.592a.973.973,0,0,1-.973-.973c0-7.742,3.022-22.2,3.151-22.814a.973.973,0,0,1,1.9.4c-.031.148-3.11,14.875-3.11,22.414A.973.973,0,0,1,1042.563,1281.592Z" transform="translate(-649.567 -218.956)" fill="#88322f"/>
    <path d="M992.961,1106.507l2.728-14.655c.047-1.458,0-3.158,0-3.158l-2-8.136-2.024-7.73a19,19,0,0,1-.532-3.018c-.077-.77.09-2.8-.02-3.24-.127-.5-1.139-1.508-1.657-1.472-1.632.114-1.947,3.974-2.125,5.539a11.075,11.075,0,0,0,.147,3.333l.762,6.283.253,4.724c-5.44-5.8-7.175-.925-7.175-.925-5.03-2.351-2.879,4.2-2.879,4.2a5.294,5.294,0,0,0,.593,6.085s-.8,2.163,1.625,4.533l1.316,1.189.967,2.324c-.235.826,2.055,10.592,2.055,10.592l8.979,2.687Z" transform="translate(-606.591 -89.75)" fill="#fff"/>
    <g transform="translate(370.012 974.46)">
      <path d="M1025.713,1124.533a.9.9,0,0,0-1.185-.553.924.924,0,0,0-.509,1.161,26.647,26.647,0,0,1,1.284,5.291l-.773,4.044c0,.014-.006.029-.007.041l-2.007,9.95a.9.9,0,0,0,.9,1.028,1.252,1.252,0,0,0,.812-.342.046.046,0,0,0,.015-.026l2.061-10.333.783-4.1.015-.122C1027.161,1128.945,1025.862,1124.98,1025.713,1124.533Z" transform="translate(-1006.734 -1103.806)" fill="#88322f"/>
      <path d="M988.986,1092.433a3.262,3.262,0,0,1-1.576-.669,7.235,7.235,0,0,1-.707-.638c-.06-.065-.119-.128-.179-.2l-.311-.412c-.047-.067-.092-.138-.138-.21a4.985,4.985,0,0,0,1.537-1.983.9.9,0,0,0-1.685-.632,3.084,3.084,0,0,1-.947,1.191l-.939-1.245c-.088-.167-.268-.5-.519-.934l.428-.533a.9.9,0,1,0-1.4-1.125l-.035.044a16.726,16.726,0,0,0-2.425-2.92,1.87,1.87,0,0,1,1.135-.951c1.042-.239,2.6.684,4.392,2.6a.9.9,0,0,0,1.555-.665l-.344-6.225c0-.02,0-.039,0-.059l-.8-6.573c0-.02-.006-.04-.009-.06a10.7,10.7,0,0,1-.144-3.217c.143-1.249.546-2.755,1.653-2.832h.014a.231.231,0,0,1,.218.177,12.363,12.363,0,0,1,.3,1.778c.031.309.065.806.106,1.383a32.342,32.342,0,0,0,.459,4.259l1.052,4.021.791,3.39a.9.9,0,0,0,1.08.672.9.9,0,0,0,.672-1.081l-.8-3.413-1.057-4.044a34.232,34.232,0,0,1-.4-3.931v-.022c-.041-.582-.076-1.085-.109-1.414a14.208,14.208,0,0,0-.349-2.037,2.025,2.025,0,0,0-2.1-1.532c-1.058.074-2.9.746-3.315,4.422a12.482,12.482,0,0,0,.157,3.726l.791,6.514.218,3.953c-1.643-1.326-3.14-1.843-4.446-1.535a3.633,3.633,0,0,0-2.261,1.785c-1.335-.477-2.358-.389-3.041.261-1.162,1.107-.622,3.363-.189,4.627a4.326,4.326,0,0,0-1.042,2.313,4.91,4.91,0,0,0,1.051,3.463,5.83,5.83,0,0,0,2.043,5.176l1.253,1.132.9,2.167.851,4.327a.9.9,0,1,0,1.78-.266l-.875-4.439-.743-7.309a.845.845,0,0,0-.032-.166l-.59-1.981a.89.89,0,0,0-.092-.209l-2.651-4.381c-.522-1.309-.733-2.856-.424-3.15.087-.083.579-.168,1.78.377,2.006,1.59,3.935,5.3,3.955,5.333a.92.92,0,0,0,.082.13l1.741,2.308a8.094,8.094,0,0,0,1.079,1.472h0a5.5,5.5,0,0,0,3.534,1.856h.031a.92.92,0,0,0,.922-.887A.938.938,0,0,0,988.986,1092.433Zm-12.057-1.375c-1.088-1.392-1-2.45-.68-3.132l1.968,3.254.327,1.094Zm1.7,3.529a.9.9,0,0,0,.3.147l.151,1.483-.471-.425a5.081,5.081,0,0,1-1.44-2.3Z" transform="translate(-974.243 -1062.38)" fill="#88322f"/>
    </g>
    <path d="M984.281,1203.754a.973.973,0,0,1-.961-.83l-.94-6.346a.973.973,0,0,1,.884-1.112l15.367-1.233a.973.973,0,0,1,1.05.945l.16,6.255a.973.973,0,0,1-.884.994l-14.586,1.324C984.34,1203.753,984.31,1203.754,984.281,1203.754Zm.176-6.432.653,4.407,12.763-1.159-.11-4.316Z" transform="translate(-609.701 -176.679)" fill="#88322f"/>
    <path d="M979.686,1251.328a.973.973,0,0,1-.964-.853l-5.272-34.662a.973.973,0,0,1,.853-1.086l20.788-2.311a.973.973,0,0,1,1.072.8l2.146,12.709a.973.973,0,0,1-1.918.324l-1.992-11.8-18.9,2.09,5.152,33.69a.973.973,0,0,1-.846,1.085A1.06,1.06,0,0,1,979.686,1251.328Z" transform="translate(-603.692 -188.918)" fill="#88322f"/>
    <path d="M1077.951,1341.029a.978.978,0,0,1-.352-.163l-6.321-4.636a.973.973,0,1,1,1.15-1.569l6.321,4.636a.973.973,0,0,1-.8,1.732Z" transform="translate(-669.285 -271.089)" fill="#88322f"/>
    <path d="M88.266,1460.8a.973.973,0,0,1-.373-1.871l39.995-16.6a.973.973,0,1,1,.745,1.8l-39.995,16.6A.967.967,0,0,1,88.266,1460.8Z" transform="translate(-7.154 -343.644)" fill="#88322f"/>
    <path d="M1054.09,1200.194a.942.942,0,0,1-.154-.012.972.972,0,0,1-.808-1.113c1.036-6.525,4.351-17.146,14.263-30.691a119.3,119.3,0,0,1,11.1-13.1l-1.507-5.526a.973.973,0,0,1,.753-1.211l9.938-1.932a.973.973,0,1,1,.372,1.91l-8.91,1.732,1.38,5.063a.973.973,0,0,1-.263.956c-.217.209-21.73,21.18-25.21,43.1A.973.973,0,0,1,1054.09,1200.194Z" transform="translate(-657.326 -144.609)" fill="#88322f"/>
    <path d="M1063.619,1450.165a.971.971,0,0,1-.736-.337l-18.8-21.757a.973.973,0,0,1,1.472-1.272l18.8,21.757a.973.973,0,0,1-.736,1.609Z" transform="translate(-651.084 -333.013)" fill="#88322f"/>
    <path d="M452.413,1320.2a.973.973,0,0,1-.206-1.923l20.244-4.417a.973.973,0,0,1,.414,1.9l-20.244,4.417A.973.973,0,0,1,452.413,1320.2Z" transform="translate(-252.291 -257.198)" fill="#88322f"/>
    <path d="M1228.936,1429.9a1,1,0,0,1-.18-.016.974.974,0,0,1-.777-1.136c1.026-5.471-2.112-21.985-2.143-22.151a.908.908,0,0,1-.015-.118,22.492,22.492,0,0,1,1.218-8.319.973.973,0,1,1,1.846.613,20.606,20.606,0,0,0-1.127,7.518c.244,1.282,3.2,17.1,2.134,22.816A.974.974,0,0,1,1228.936,1429.9Z" transform="translate(-773.563 -313.514)" fill="#88322f"/>
    <path d="M1131.442,1447.811a.971.971,0,0,1-.237-.029l-23.557-5.889a.973.973,0,0,1,.472-1.888l23.557,5.889a.973.973,0,0,1-.235,1.917Z" transform="translate(-693.541 -342.11)" fill="#88322f"/>
    <g transform="translate(354.787 956.368)">
      <path d="M986,1013.832a1.623,1.623,0,0,0,1.62-1.55l.161-3.563a1.623,1.623,0,1,0-3.242-.146l-.161,3.563a1.623,1.623,0,0,0,1.548,1.695Z" transform="translate(-965.837 -1007.023)" fill="#88322f"/>
      <path d="M963.835,1024.391a1.624,1.624,0,0,0,1.5-2.245l-1.145-2.757a1.623,1.623,0,1,0-3,1.244l1.144,2.757A1.623,1.623,0,0,0,963.835,1024.391Z" transform="translate(-950.147 -1014.674)" fill="#88322f"/>
      <path d="M929.278,1065.937h.034l3.568-.074a1.623,1.623,0,1,0-.067-3.245l-3.568.074a1.623,1.623,0,0,0,.033,3.245Z" transform="translate(-927.656 -1044.448)" fill="#88322f"/>
      <path d="M943.955,1043.789a1.623,1.623,0,0,0,.659-3.106l-2.729-1.211a1.623,1.623,0,1,0-1.316,2.967l2.729,1.211A1.621,1.621,0,0,0,943.955,1043.789Z" transform="translate(-935.699 -1028.773)" fill="#88322f"/>
    </g>
    <path d="M1098.836,974.116c-4.255,0-6.8-3.585-7.632-5.851a.973.973,0,0,1,1.825-.675c.094.252,2.349,6.078,7.982,4.2a.973.973,0,0,1,.615,1.845A8.8,8.8,0,0,1,1098.836,974.116Z" transform="translate(-682.926 -23.683)" fill="#88322f"/>
    <path d="M342.495,1290.974l-.091,0-4.693-.276a1.529,1.529,0,0,1,.18-3.052l4.693.276a1.529,1.529,0,0,1-.089,3.055Z" transform="translate(-174.761 -239.561)" class="color-3" fill="#eae3dc"/>
    <path d="M341.7,1271.271H339.49a1.528,1.528,0,1,1,0-3.057H341.7a1.528,1.528,0,1,1,0,3.057Z" transform="translate(-175.898 -226.484)" class="color-3" fill="#eae3dc"/>
    <path d="M353.7,1273.812a.968.968,0,0,1-.59-.2c-2.37-1.813-5.32-7.559-8.768-17.08-2.532-6.989-4.431-13.564-4.45-13.629a.973.973,0,1,1,1.869-.539c2.068,7.177,8.35,26.5,12.531,29.7a.973.973,0,0,1-.592,1.745Z" transform="translate(-177.175 -208.609)" fill="#88322f"/>
    <g transform="translate(264.714 1023.701)">
      <path d="M704.5,1215.884h-47.69a1.92,1.92,0,0,0-1.92,1.92v28.778a1.92,1.92,0,0,0,1.92,1.92H704.5a1.92,1.92,0,0,0,1.92-1.92V1217.8A1.92,1.92,0,0,0,704.5,1215.884Z" transform="translate(-653.962 -1214.958)" fill="#fff"/>
      <path d="M702.591,1247.52H654.9a2.85,2.85,0,0,1-2.847-2.847V1215.9a2.85,2.85,0,0,1,2.847-2.847h7.834a.926.926,0,0,1,0,1.853H654.9a1,1,0,0,0-.994.994v28.777a1,1,0,0,0,.994.994h47.691a1,1,0,0,0,.994-.994V1215.9a1,1,0,0,0-.994-.994H666.875a.926.926,0,1,1,0-1.853h35.716a2.85,2.85,0,0,1,2.847,2.847v28.777A2.85,2.85,0,0,1,702.591,1247.52Z" transform="translate(-652.054 -1213.049)" fill="#88322f"/>
    </g>
    <g transform="translate(268.763 1027.609)">
      <rect width="43.433" height="23.925" transform="translate(0.926 0.926)" fill="#fff"/>
      <path d="M708.8,1250.785H665.369a.927.927,0,0,1-.926-.927v-23.925a.926.926,0,0,1,.926-.926H708.8a.927.927,0,0,1,.927.926v23.925A.927.927,0,0,1,708.8,1250.785Zm-42.507-1.853h41.58V1226.86H666.3Z" transform="translate(-664.443 -1225.007)" fill="#88322f"/>
    </g>
    <path d="M691.9,1247.413H681.135a.927.927,0,0,1,0-1.853H691.9a.927.927,0,0,1,0,1.853Z" transform="translate(-406.293 -211.234)" fill="#88322f"/>
    <path d="M691.9,1258.394H681.135a.927.927,0,0,1,0-1.853H691.9a.927.927,0,0,1,0,1.853Z" transform="translate(-406.293 -218.626)" fill="#88322f"/>
    <path d="M691.9,1269.375H681.135a.927.927,0,0,1,0-1.853H691.9a.927.927,0,0,1,0,1.853Z" transform="translate(-406.293 -226.018)" fill="#88322f"/>
    <path d="M691.9,1280.356H681.135a.927.927,0,0,1,0-1.853H691.9a.927.927,0,0,1,0,1.853Z" transform="translate(-406.293 -233.41)" fill="#88322f"/>
    <path d="M556.028,1297.308a.973.973,0,0,1-.392-1.864l9.2-4.049a.975.975,0,0,1,.392-.082h18.4a.973.973,0,0,1,0,1.946h-18.2l-9.015,3.967A.974.974,0,0,1,556.028,1297.308Z" transform="translate(-322.042 -242.034)" fill="#88322f"/>
    <g transform="translate(291.788 1032.175)">
      <g clip-path="url(#clip-path)">
        <g transform="translate(0 -0.061)">
          <g>
            <g transform="translate(4.846)">
              <g>
                <g>
                  <path d="M753.123,1247.062l-3.159-7.441a7.862,7.862,0,0,1,3.159-.642Z" transform="translate(-749.885 -1238.917)" fill="#a55"/>
                  <path d="M753.02,1247.235l-3.3-7.772.056-.023a7.882,7.882,0,0,1,3.182-.647h.061Zm-3.14-7.707,3.018,7.111v-7.725A7.74,7.74,0,0,0,749.88,1239.528Z" transform="translate(-749.721 -1238.792)" fill="#a55"/>
                </g>
              </g>
            </g>
            <g transform="translate(0.51 0.624)">
              <g>
                <g>
                  <path d="M744.19,1248.385l-7.5-3.028a7.789,7.789,0,0,1,4.337-4.413Z" transform="translate(-736.616 -1240.865)" fill="#a55"/>
                  <path d="M744.141,1248.333l-7.687-3.106.023-.056a7.879,7.879,0,0,1,4.369-4.446l.056-.024.023.056Zm-7.529-3.173,7.3,2.951-3.078-7.251A7.753,7.753,0,0,0,736.612,1245.16Z" transform="translate(-736.454 -1240.701)" fill="#a55"/>
                </g>
              </g>
            </g>
            <g transform="translate(0 5.116)">
              <g>
                <path d="M742.978,1257.474v8.084a8.084,8.084,0,0,1-8.084-8.084,7.53,7.53,0,0,1,.589-3.028Z" transform="translate(-734.894 -1254.446)" class="color-3" fill="#eae3dc"/>
              </g>
            </g>
            <g transform="translate(8.084 0.061)">
              <g>
                <path d="M759.629,1247.062v-8.083a8.084,8.084,0,0,1,0,16.167h0Z" transform="translate(-759.629 -1238.978)" fill="#88322f"/>
              </g>
            </g>
          </g>
        </g>
        <path d="M752.944,1272.69l2.185-8.978,1.1,9.661Z" transform="translate(-747.045 -1255.629)" fill="#88322f"/>
      </g>
    </g>
    <path d="M1057.463,1138.8a.974.974,0,0,1-.878-1.39l2.228-4.7c.005-.012.011-.024.018-.036l2.917-5.559c7.018-14.08,17.349-24.456,24.777-30.678a92.927,92.927,0,0,1,14.615-10.246.972.972,0,0,1,1.282.348l3.937,6.375a.973.973,0,0,1-.141,1.2l-12.083,12.023a.973.973,0,0,1-1.372-1.379l11.536-11.479-3.041-4.923c-4.392,2.541-25.943,15.9-37.779,39.644l-2.918,5.56-2.22,4.686A.973.973,0,0,1,1057.463,1138.8Z" transform="translate(-659.598 -103.872)" fill="#88322f"/>
    <path d="M1218.742,1210.822h-.024a.973.973,0,0,1-.949-1c.468-19.92.156-41.585,0-49.975-.042-2.275-.073-3.565-.073-3.567-.523-21.689-6.89-29.994-6.954-30.076a.973.973,0,0,1,1.521-1.213c.279.349,6.837,8.8,7.378,31.242,0,0,.031,1.294.073,3.577.156,8.4.47,30.1,0,50.057A.973.973,0,0,1,1218.742,1210.822Z" transform="translate(-763.295 -129.827)" fill="#88322f"/>
    <path d="M911.708,1300.389a.974.974,0,0,1-.937-.715l-6.349-23.065a.972.972,0,0,1,.725-1.207l50.168-11.24c3.3-4.608,16.123-30.489,16.255-30.755a.973.973,0,0,1,1.744.863c-.554,1.12-13.607,27.465-16.67,31.364a.974.974,0,0,1-.552.349l-49.523,11.1,5.837,21.2,57.558-11.849a12.387,12.387,0,0,0,7.072-3.991c7.257-8.261,24.608-28.891,28.992-42.008a.973.973,0,1,1,1.845.617c-4.5,13.454-22.041,34.326-29.375,42.675a14.325,14.325,0,0,1-8.163,4.617L911.9,1300.369A.968.968,0,0,1,911.708,1300.389Z" transform="translate(-557.205 -202.688)" fill="#88322f"/>
  </g>
</svg>
