<svg xmlns="http://www.w3.org/2000/svg" width="135.326" height="24.416" viewBox="0 0 135.326 24.416"><path d="M13.748-3.584A2.492,2.492,0,0,1,11-1.512c-1.12,0-1.876-.42-1.876-1.372s1.26-1.6,2.772-1.6a9,9,0,0,1,1.988.224C13.832-4.032,13.8-3.808,13.748-3.584Zm7.084,1.092A11.285,11.285,0,0,0,15.624-5.32c0-1.12,0-2.576-.028-4.116a17.057,17.057,0,0,0,4.368-1.288c.784-.392,1.344-.868,1.344-1.68,0-.756-1.12-1.624-2.128-2.212-.392-.224-.728-.056-.644.308.084.392.224.868.28,1.26a.844.844,0,0,1-.448.9,11.385,11.385,0,0,1-2.772.98c0-1.932-.028-3.388,0-4.536,1.12-.28,2.3-.532,3.388-.7,1.288-.2,2.716-.252,2.716-.952,0-.616-.644-1.232-1.876-1.232a20.034,20.034,0,0,0-4.2,1.064c.028-1.092.084-2.464.084-3.08,0-.7-1.316-1.26-2.072-1.232-.644,0-1.512.56-1.512,1.064,0,.364.42.448.7.588.476.224.644.364.756.868.084.532.168,1.372.252,2.324a32.524,32.524,0,0,1-7.056,1.484,5.969,5.969,0,0,1-2.828-1.064c-.5-.28-.868-.028-.728.476a3.8,3.8,0,0,0,3.36,2.6,13.685,13.685,0,0,0,3.108-.588c.784-.252,2.38-.728,4.228-1.2.084,1.652.112,3.36.14,4.4a20.592,20.592,0,0,1-3.584.308,1.868,1.868,0,0,1-1.848-1.008c-.616-.9-1.036-.616-1.064.616,0,1.316.952,1.932,3.948,1.932a18.846,18.846,0,0,0,2.548-.168c.028,1.344.028,2.548-.028,3.612a14.466,14.466,0,0,0-1.6-.084c-2.464,0-4.7,1.148-4.7,3.192C7.728-.98,8.9.252,11.508.252c2.66,0,3.78-1.54,4.032-3.92A10.563,10.563,0,0,1,19.376-.532c.644.784.9,1.064,1.54,1.064A.957.957,0,0,0,21.84-.42,2.889,2.889,0,0,0,20.832-2.492Zm28.7-17.052c0-.756-.784-1.064-1.568-1.064a15.315,15.315,0,0,0-5.936,1.456,16.788,16.788,0,0,0-6.888,5.768c-.252.364-.336.28-.252-.112a35.335,35.335,0,0,0,.952-4.788c0-1.512-1.428-2.66-2.436-3.08-.728-.308-1.064.028-.644.784a7.176,7.176,0,0,1,1.008,3.668C33.768-14.84,32-8.82,32-4.956,32-2.128,32.592.7,34.412.7c.672,0,.868-.308.868-.728,0-1.176-1.092-3.024-1.092-7.252,0-2.688,2.1-6.244,4.76-8.316,2.576-1.988,6.02-2.688,8.568-3C49.168-18.788,49.532-19.04,49.532-19.544Zm-5.4,16.856c-1.064,0-2.072-.364-2.072-1.428,0-.924.84-1.512,2.352-1.512a6.3,6.3,0,0,1,2.744.672A2.734,2.734,0,0,1,44.128-2.688Zm4.228-12.88a1.213,1.213,0,0,0-1.26-1.288,1.456,1.456,0,0,0-1.428.924c0,.448.756,1.064,1.092,2.1a5.609,5.609,0,0,1,.252,1.036,7.137,7.137,0,0,1-3.136.756c-1.372,0-1.848-.7-3.164-1.96-.42-.392-.728-.28-.728.42,0,1.988,1.876,3.024,3.808,3.024a12.427,12.427,0,0,0,3.472-.644,27.226,27.226,0,0,1,.168,2.884c0,.728-.028,1.232-.084,1.876a11.1,11.1,0,0,0-2.8-.364c-1.6,0-3.92.812-3.92,3.052,0,1.876,1.876,2.912,3.528,2.912,2.492,0,3.836-1.036,4.312-3.3a12.272,12.272,0,0,1,2.744,2.772c.644.868.98,1.428,1.764,1.428.532,0,.84-.392.84-1.064A3.723,3.723,0,0,0,52.64-3.276a12.342,12.342,0,0,0-3.92-2.688c.056-.952.056-1.764.056-2.52s-.056-2.016-.14-3.248c1.428-.588,3.024-1.4,3.024-2.3,0-.392-.084-.784-.9-.868-.756-.084-1.736.28-2.408-.644Zm15.792-4.088c-.336-.224-.728-.168-.728.448a3.012,3.012,0,0,0,2.408,2.688A4.212,4.212,0,0,0,67.4-17c1.624-.728,3.836-1.876,4.312-2.016.5-.14.756.2.56.672-.588,1.428-3.612,4.676-5.432,6.5-1.512,1.512-4.452,4.116-5.376,5.264-.672.84-.7,1.6-.168,2.1.5.476,1.232.084,1.82-.5.7-.7,1.344-1.568,2.94-3.052a10.483,10.483,0,0,1,6.5-2.744c2.856,0,4.4,1.512,4.4,3.864,0,3.248-4.256,5.4-9.632,5.88C66.08-.924,66.052.056,67.34.056c7.14,0,11.816-1.932,11.816-6.692,0-3.108-2.548-5.32-6.02-5.32A13.57,13.57,0,0,0,67.76-10.7a71.807,71.807,0,0,1,6.356-6.188c.56-.5,1.148-.924,1.12-1.6-.028-1.008-1.792-1.988-2.744-1.988a6.161,6.161,0,0,0-2.044.476,20.644,20.644,0,0,1-4.4,1.2A3.694,3.694,0,0,1,64.148-19.656Zm42,1.288c.644.756.84,1.232,1.484,1.232a.933.933,0,0,0,.952-.98c0-1.316-1.96-2.548-3.78-2.688a.423.423,0,0,0-.336.756C105.028-19.516,105.672-18.928,106.148-18.368ZM101.64-5.18c-.42,1.848-1.344,2.66-3.052,2.66-1.232,0-2.016-.42-2.016-1.4S97.776-5.6,99.2-5.6a7.658,7.658,0,0,1,2.436.392Zm1.456.616a11.584,11.584,0,0,1,2.884,2.212c.9.952,1.624,1.848,2.268,1.848a.818.818,0,0,0,.84-.924,3.534,3.534,0,0,0-1.26-2.436,11.79,11.79,0,0,0-4.536-2.576c.056-.98.056-1.932.056-2.968,0-1.12-.112-2.968-.224-4.536.924-.112,1.848-.168,2.772-.2,1.2-.056,1.6-.392,1.6-1.008,0-.756-1.008-1.064-2.128-1.064-.784,0-2.212.056-2.492-1.036-.056-.644-.084-1.288-.112-1.736a.885.885,0,0,0-.672-.812,3.826,3.826,0,0,0-1.428-.224c-.616.028-1.6.364-1.568.784,0,.336.364.56,1.092.98a1.891,1.891,0,0,1,.952,1.4,11.126,11.126,0,0,1,.224,1.344c-5.432,1.2-8.288,3.332-10.752,6.384-.728.9-.868.728-.784,0,.28-2.352,1.736-5.012,2.212-6.748a3.33,3.33,0,0,0-.056-2.52,4.685,4.685,0,0,0-2.66-2.38c-.476-.168-.84.084-.588.588.168.364.56.952.9,1.708a4.405,4.405,0,0,1,.2,3.08c-.252,1.288-1.9,6.384-1.9,10.248a10.758,10.758,0,0,0,.616,4.368C88.928.168,89.4.7,90.16.728c.532,0,.952-.28.952-1.12,0-.9-.812-2.268-.812-4.2a5.992,5.992,0,0,1,.9-3.024c1.876-3.3,5.74-5.432,10.416-6.132a43.826,43.826,0,0,1,.336,4.984,17.12,17.12,0,0,1-.084,1.988,11.517,11.517,0,0,0-2.016-.168c-2.716,0-4.732,1.316-4.732,3.472,0,1.68,1.652,2.884,3.5,2.884,2.128,0,3.948-.868,4.424-3.556Zm3.92-18.564c-.532,0-.728.476-.28.812a14.2,14.2,0,0,1,2.072,1.736c.532.588.812.812,1.232.812a.9.9,0,0,0,.924-.98C110.964-22.176,108.808-23.1,107.016-23.128Zm23.324,5.152a14.81,14.81,0,0,0,2.884-2.548c.84.056,1.288-.112,1.288-.532,0-.476-1.568-1.372-2.548-1.652-.28-.084-.448.14-.5.364a17.413,17.413,0,0,1-1.96,3.752C129.164-17.92,129.7-17.5,130.34-17.976Zm-11.032-2.1c.224.756.336,1.484,1.064,1.6a1.3,1.3,0,0,0,1.6-1.12c.224-1.26-1.092-2.156-2.408-2.772-.784-.392-1.2.168-.9.812C118.888-21.084,119.112-20.552,119.308-20.076Zm1.876,9.716c0-.476.028-1.9.056-2.492h9.268c0,.952-.028,2.52-.028,3.668h-9.3Zm5.6,10.388V-3.388h7.9c1.036,0,1.512-.224,1.512-.616,0-.672-1.988-2.3-2.52-2.3-.42,0-1.148.952-1.708,1.792h-5.18V-7.532c.336-.112.532-.308.56-.532h3.108v.2c0,.448.2.952.84.952.756,0,1.176-.2,1.176-1.064,0-.756-.056-3.248,0-4.592.448-.2.868-.42.868-.756,0-.588-1.6-1.764-2.128-1.764-.28,0-.812.588-1.2,1.12h-8.12a6.693,6.693,0,0,0-2.324-1.036.345.345,0,0,0-.42.364c.252,2.268.112,5.768.112,7.392a.66.66,0,0,0,.728.756c.812,0,1.232-.252,1.232-.84v-.728h3.724v3.556h-7.868c-.364,0-.616.14-.616.56,0,.448.252.56.616.56h7.868V.028h-10.22c-.364,0-.616.14-.616.56,0,.448.252.56.616.56h21.9c1.148,0,1.624-.28,1.624-.672,0-.728-2.128-2.464-2.716-2.464-.448,0-1.26,1.092-1.876,2.016Zm.14-17.5V-21.42c.868-.2,1.484-.42,1.484-1.036,0-.728-2.716-.812-3.192-.812a.352.352,0,0,0-.392.42,50.853,50.853,0,0,1,.14,5.376H117.1a8.149,8.149,0,0,0-.56-1.708c-.308-.616-1.036-.448-1.008.168a6.35,6.35,0,0,1-.112,2.3c-.672,1.708-1.988,1.6-1.988,2.912a1.155,1.155,0,0,0,1.176,1.2c1.568,0,2.576-1.792,2.6-3.64v-.112h17.64a16.856,16.856,0,0,1-.924,2.044c-.336.644.2,1.036.812.644.644-.476,1.484-1.176,2.268-1.876.756-.168,1.484-.224,1.512-.784,0-.84-1.848-2.436-2.352-2.436-.336,0-1.036.7-1.54,1.288Z" transform="translate(-3.19 23.268)" fill="#333"/></svg>