<svg xmlns="http://www.w3.org/2000/svg" width="30" height="30" viewBox="0 0 30 30"><rect width="30" height="30" fill="none"/><path d="M292.8,7279.184a8.27,8.27,0,0,0-8.682,8.661c-.069,1.508-.47,12.9.694,15.891a7.56,7.56,0,0,0,4.366,4.354,10.94,10.94,0,0,0,3.622.692c13.291.6,18.218.273,20.3-5.046a10.858,10.858,0,0,0,.693-3.615c.607-13.325-.1-16.214-2.415-18.527-1.837-1.833-4-3.08-18.573-2.409m.122,26.918a8.257,8.257,0,0,1-2.772-.513,4.882,4.882,0,0,1-2.833-2.824c-.887-2.271-.593-13.055-.513-14.8a6.37,6.37,0,0,1,1.63-4.478c1.493-1.489,3.421-2.219,16.551-1.626a6.4,6.4,0,0,1,4.488,1.626c1.493,1.489,2.233,3.432,1.63,16.512a8.212,8.212,0,0,1-.513,2.765c-1.351,3.462-4.458,3.942-17.667,3.337m12.208-20.067a1.792,1.792,0,1,0,1.791-1.786,1.79,1.79,0,0,0-1.791,1.786m-13.84,7.947a7.664,7.664,0,1,0,7.664-7.644,7.655,7.655,0,0,0-7.664,7.644m2.69,0a4.975,4.975,0,1,1,4.975,4.965,4.969,4.969,0,0,1-4.975-4.965" transform="translate(-284 -7279)" fill="#ffffff" fill-rule="evenodd"/></svg>