<svg xmlns="http://www.w3.org/2000/svg" xmlns:xlink="http://www.w3.org/1999/xlink" width="30" height="30" viewBox="0 0 30 30"><defs><clipPath id="a"><rect width="30" height="30" fill="none"/></clipPath></defs><g clip-path="url(#a)"><path d="M23.237,30H6.763A6.763,6.763,0,0,1,0,23.237V6.763A6.763,6.763,0,0,1,6.763,0H23.237A6.763,6.763,0,0,1,30,6.763V23.237A6.763,6.763,0,0,1,23.237,30" fill="#ffffff"/><path d="M73.283,66.463c0-4.475-4.487-8.117-10-8.117s-10,3.641-10,8.117c0,4.012,3.558,7.373,8.365,8.008.326.07.769.215.881.493a2.054,2.054,0,0,1,.032.9s-.117.706-.143.856c-.044.253-.2.989.866.539a32.3,32.3,0,0,0,7.859-5.807h0a7.222,7.222,0,0,0,2.144-4.994" transform="translate(-48.284 -52.876)" fill="#8e3330"/><path d="M202.153,126.6h-2.81a.191.191,0,0,1-.191-.191v0h0v-4.357h0v0a.191.191,0,0,1,.191-.191h2.81a.191.191,0,0,1,.191.191v.709a.191.191,0,0,1-.191.191h-1.91v.737h1.91a.192.192,0,0,1,.191.191v.709a.191.191,0,0,1-.191.191h-1.91v.737h1.91a.192.192,0,0,1,.191.191v.709a.191.191,0,0,1-.191.191" transform="translate(-180.481 -110.432)" fill="#ffffff"/><path d="M91.279,126.6a.191.191,0,0,0,.191-.191V125.7a.192.192,0,0,0-.191-.191h-1.91v-3.465a.191.191,0,0,0-.191-.191h-.709a.191.191,0,0,0-.191.191v4.362h0v0a.191.191,0,0,0,.191.191h2.81Z" transform="translate(-80.002 -110.432)" fill="#ffffff"/><path d="M129.63,121.855h-.709a.191.191,0,0,0-.191.191v4.365a.191.191,0,0,0,.191.191h.709a.191.191,0,0,0,.191-.191v-4.365a.191.191,0,0,0-.191-.191" transform="translate(-116.662 -110.431)" fill="#ffffff"/><path d="M151.6,121.855h-.709a.191.191,0,0,0-.191.191v2.593l-2-2.7-.015-.02h0l-.012-.012,0,0-.01-.009-.005,0-.01-.007-.006,0-.011-.006-.006,0-.011,0-.006,0-.012,0-.007,0-.011,0h-.741a.191.191,0,0,0-.191.191v4.365a.191.191,0,0,0,.191.191h.709a.191.191,0,0,0,.191-.191v-2.592l2,2.7a.193.193,0,0,0,.049.048h0l.012.007.006,0,.009,0,.009,0,.006,0,.013,0h0a.2.2,0,0,0,.05.007h.705a.191.191,0,0,0,.191-.191v-4.365a.191.191,0,0,0-.191-.191" transform="translate(-133.804 -110.431)" fill="#ffffff"/></g></svg>