<svg xmlns="http://www.w3.org/2000/svg" width="38.499" height="38.5"><path d="M8.861 0a2.541 2.541 0 0 1 2.307 1.49l.023.054 3.622 9.058q.017.042.03.085a2.97 2.97 0 0 1-.666 2.934l-.027.028-2.629 2.628-.016.016a.371.371 0 0 0-.093.383l.022.04.026.045.005.009a26.034 26.034 0 0 0 4.441 5.808l.015.015a26 26 0 0 0 5.814 4.443l.024.014.073.041a.376.376 0 0 0 .375-.1l.017-.017 2.624-2.624.027-.026a2.956 2.956 0 0 1 2.033-.806 2.961 2.961 0 0 1 .9.14q.043.014.085.03l9.064 3.622.054.023a2.531 2.531 0 0 1 1.443 2.771v.007a13.255 13.255 0 0 1-2.432 5.468 1.246 1.246 0 0 1-.113.13 10.281 10.281 0 0 1-7.477 2.789 21.935 21.935 0 0 1-9.463-2.479 36.642 36.642 0 0 1-9.541-6.947A33.164 33.164 0 0 1 .666 14.779a16.453 16.453 0 0 1-.515-6.747 9.544 9.544 0 0 1 2.638-5.443 1.252 1.252 0 0 1 .129-.113A13.258 13.258 0 0 1 8.39.042h.008A2.545 2.545 0 0 1 8.861 0Zm.027 2.514a.037.037 0 0 0-.027-.014h-.006a10.747 10.747 0 0 0-4.358 1.919c-2.035 2.09-2.539 5.535-1.417 9.713a30.646 30.646 0 0 0 8.116 13.174C16.559 32.669 23.164 36 28.432 36a7.891 7.891 0 0 0 5.649-2 10.744 10.744 0 0 0 1.917-4.355.035.035 0 0 0-.013-.034l-8.962-3.581a.469.469 0 0 0-.422.1l-2.6 2.6a2.885 2.885 0 0 1-2.058.87 2.853 2.853 0 0 1-1.121-.228q-.054-.023-.1-.05l-.129-.069-.043-.024-.045-.026a28.494 28.494 0 0 1-6.354-4.856 28.533 28.533 0 0 1-4.86-6.358l-.028-.049-.009-.015-.1-.184q-.017-.034-.032-.069a2.885 2.885 0 0 1 .638-3.181l2.6-2.6a.468.468 0 0 0 .1-.423Z" fill="#8e3330"/></svg>