<svg xmlns="http://www.w3.org/2000/svg" viewBox="0 0 305 225">
  <style>
    .color-1 {
      fill: #ffffff;
    }
    .color-2 {
      fill: #8e3330;
    }
    .color-3 {
      fill: #eae3dc;
    }
  </style>
  <path class="color-1" fill="#fff" d="M209.757 107.021s9.855-3.605 11.161-4.664a23.453 23.453 0 0 0 2.077-1.89 10.463 10.463 0 0 0 2.852-6.853l.216-5.3-3.351-9.48h28.031l-3.351 9.48.216 5.3a10.464 10.464 0 0 0 2.852 6.853 23.415 23.415 0 0 0 2.077 1.89c1.306 1.059 13.473 5.709 13.473 5.709s-2.739 93.925-12.409 95.065l-16.459 1.176c-.552.026-3.37.412-3.919.391-.549.021-7.286-.757-7.838-.784l-12.54-.784c-9.672-1.139-3.088-96.109-3.088-96.109Z"/>
  <g class="color-3" fill="#eae3dc">
    <path d="M212.305 131.051h48.1a1.524 1.524 0 0 0 0-3.034h-48.1a1.524 1.524 0 0 0 0 3.034Z"/>
    <path d="M212.305 138.283h48.1a1.524 1.524 0 0 0 0-3.034h-48.1a1.524 1.524 0 0 0 0 3.034Z"/>
    <path d="M212.305 146.118h48.1a1.524 1.524 0 0 0 0-3.033h-48.1a1.524 1.524 0 0 0 0 3.033Z"/>
    <path d="M212.305 153.649h48.1a1.524 1.524 0 0 0 0-3.033h-48.1a1.524 1.524 0 0 0 0 3.033Z"/>
    <path d="M212.305 161.186h48.1a1.524 1.524 0 0 0 0-3.034h-48.1a1.524 1.524 0 0 0 0 3.034Z"/>
    <path d="M212.305 168.719h48.023a1.521 1.521 0 0 0 .078-3.034h-48.023a1.521 1.521 0 0 0-.078 3.034Z"/>
    <path d="M212.305 176.253h48.023a1.521 1.521 0 0 0 .077-3.034h-48.022a1.466 1.466 0 0 0-1.432 1.245 1.48 1.48 0 0 0 1.354 1.789Z"/>
    <path d="M212.305 183.786h48.023a1.521 1.521 0 0 0 .078-3.034h-48.023a1.521 1.521 0 0 0-.078 3.034Z"/>
    <path d="M212.305 191.53h48.023a1.521 1.521 0 0 0 .078-3.034h-48.023a1.521 1.521 0 0 0-.078 3.034Z"/>
  </g>
  <g>
    <g class="color-2" fill="#8e3330">
      <path d="M259.479 107.554a1.315 1.315 0 0 0 .289-2.6 15.824 15.824 0 0 1-6.1-2.856 1.709 1.709 0 0 0-.08-.063c-.208-.153-5.184-3.9-4.558-11.717a1.315 1.315 0 0 0-2.622-.21c-.723 9.039 4.993 13.575 5.6 14.029a18.338 18.338 0 0 0 7.185 3.383 1.332 1.332 0 0 0 .286.034Z"/>
      <path d="M259.177 107.573a18.481 18.481 0 0 1-7.205-3.392c-.651-.488-6.344-5.028-5.62-14.076a1.37 1.37 0 0 1 2.73.219c-.623 7.786 4.325 11.514 4.536 11.669.028.02.058.043.082.064a15.673 15.673 0 0 0 6.08 2.845 1.37 1.37 0 0 1-.6 2.672Zm-12.717-17.46c-.72 8.99 4.93 13.5 5.579 13.982a18.352 18.352 0 0 0 7.162 3.372 1.249 1.249 0 0 0 .279.031 1.261 1.261 0 0 0 .276-2.491 15.81 15.81 0 0 1-6.126-2.868c-.023-.02-.051-.041-.076-.06-.213-.156-5.207-3.919-4.58-11.765a1.262 1.262 0 0 0-1.156-1.357h-.1a1.263 1.263 0 0 0-1.258 1.157Z"/>
    </g>
  </g>
  <g>
    <g class="color-2" fill="#8e3330">
      <path d="M213.889 107.553a1.325 1.325 0 0 0 .291-.032 18.344 18.344 0 0 0 7.185-3.383c.605-.453 6.321-4.99 5.6-14.029a1.315 1.315 0 1 0-2.621.21c.63 7.879-4.506 11.68-4.559 11.717a1.668 1.668 0 0 0-.082.065 15.834 15.834 0 0 1-6.1 2.854 1.315 1.315 0 0 0 .288 2.6Z"/>
      <path d="M212.553 106.54a1.372 1.372 0 0 1 1.034-1.638 15.733 15.733 0 0 0 6.077-2.842c.027-.024.056-.046.087-.068.051-.037 5.166-3.786 4.536-11.669a1.369 1.369 0 0 1 1.256-1.474 1.375 1.375 0 0 1 1.474 1.255c.723 9.046-4.968 13.589-5.618 14.075a18.528 18.528 0 0 1-7.208 3.394 1.36 1.36 0 0 1-.3.034 1.377 1.377 0 0 1-1.338-1.067Zm13-17.582a1.261 1.261 0 0 0-1.157 1.357c.635 7.943-4.529 11.728-4.58 11.765-.027.02-.054.041-.08.063a15.86 15.86 0 0 1-6.123 2.866 1.261 1.261 0 0 0 .276 2.491 1.248 1.248 0 0 0 .279-.031 18.409 18.409 0 0 0 7.165-3.373c.646-.484 6.3-4.993 5.576-13.981a1.263 1.263 0 0 0-1.258-1.16c-.034-.001-.067.001-.1.003Z"/>
    </g>
  </g>
  <path class="color-2" fill="#8e3330" d="M269.5 51.732a16.585 16.585 0 0 0-.511-4.373c-3.558-19.891-17.194-28.153-17.194-28.153-19.565-11.629-30.238 4.284-30.238 4.284-5.038.2-9.568 5.759-12.1 9.587a39.979 39.979 0 0 0-2.126 3.571 27.768 27.768 0 0 0-2.613 6.063l-.04-.05c-8.225 31.5 9.286 46.014 9.286 46.014l20.961-.274h2.578l20.961.274s14.13-11.719 11.036-36.943Z"/>
  <g>
    <path class="color-1" fill="#fff" d="M244.874 91.306c9.712-5.872 12.8-13.719 13.66-17.312a2.957 2.957 0 0 0 1.083.43c2.464.414 5-2.471 5.675-6.445s-.786-7.532-3.248-7.949a3.075 3.075 0 0 0-1.7.224c-1.572-27.719-18.665-30.264-22.628-29.867-3.962-.4-21.319 1.936-25.4 25.586l.2 4.281a3.079 3.079 0 0 0-1.7-.224c-2.463.417-3.917 3.976-3.248 7.949s3.21 6.859 5.674 6.445a2.955 2.955 0 0 0 1.084-.43c.862 3.593 3.947 11.44 13.659 17.312a16.906 16.906 0 0 0 16.889 0Z"/>
  </g>
  <g class="color-2" fill="#8e3330">
    <path d="M262.234 58.876a4 4 0 0 0-.787-.05l.074-1.336a1.17 1.17 0 0 0-2.337-.13l-.457 8.234a1.171 1.171 0 0 0 1.1 1.233h.066a1.17 1.17 0 0 0 1.168-1.105l.252-4.54a1.671 1.671 0 0 1 .531 0c1.564.264 2.889 3.041 2.29 6.6s-2.762 5.746-4.324 5.485a1.785 1.785 0 0 1-.655-.265 1.17 1.17 0 0 0-1.763.716c-.85 3.542-3.832 10.964-13.1 16.57a15.6 15.6 0 0 1-15.7.014c-9.3-5.622-12.278-13.043-13.128-16.583a1.17 1.17 0 0 0-1.764-.716 1.782 1.782 0 0 1-.651.264c-1.565.264-3.726-1.925-4.327-5.485s.725-6.337 2.287-6.6a1.668 1.668 0 0 1 .412-.011l.377 4.582a1.17 1.17 0 0 0 1.165 1.074h.1a1.17 1.17 0 0 0 1.07-1.262l-.443-5.381-.2-4.266a1.17 1.17 0 0 0-2.338.111l.133 2.794a4.008 4.008 0 0 0-.658.054c-3.148.532-5 4.616-4.207 9.3s3.874 7.935 7.026 7.4l.092-.016c1.277 4.387 4.785 11.268 13.82 16.729a18.085 18.085 0 0 0 9.146 2.48 17.824 17.824 0 0 0 8.978-2.461c9.058-5.476 12.57-12.359 13.848-16.747l.095.017c3.148.53 6.233-2.723 7.023-7.4s-1.064-8.771-4.214-9.303Z"/>
    <path d="M236.501 94.924a18.344 18.344 0 0 1-9.231-2.5c-9.383-5.672-12.7-12.832-13.844-16.683-3.224.508-6.36-2.791-7.162-7.537-.8-4.767 1.1-8.93 4.335-9.477a4.163 4.163 0 0 1 .521-.053l-.125-2.634a1.325 1.325 0 1 1 2.648-.125l.2 4.266.443 5.375a1.326 1.326 0 0 1-1.213 1.429 1.335 1.335 0 0 1-1.43-1.212l-.366-4.447a1.52 1.52 0 0 0-.242.016c-1.49.251-2.744 2.951-2.159 6.422s2.658 5.612 4.148 5.357a1.629 1.629 0 0 0 .594-.242 1.325 1.325 0 0 1 2 .81c.725 3.022 3.448 10.678 13.057 16.487a15.482 15.482 0 0 0 15.539-.015c9.583-5.794 12.306-13.45 13.031-16.472a1.325 1.325 0 0 1 2-.811 1.649 1.649 0 0 0 .6.243c1.486.245 3.559-1.89 4.146-5.359s-.671-6.17-2.163-6.422a1.453 1.453 0 0 0-.358-.013l-.245 4.41a1.336 1.336 0 0 1-1.4 1.25 1.324 1.324 0 0 1-1.25-1.4l.457-8.234a1.325 1.325 0 0 1 2.646.147l-.065 1.17a4.082 4.082 0 0 1 .648.054c3.235.547 5.141 4.71 4.338 9.476-.8 4.748-3.944 8.048-7.161 7.538-1.149 3.852-4.469 11.015-13.878 16.7a18.016 18.016 0 0 1-9.059 2.486ZM213.535 75.41a.155.155 0 0 1 .149.112c1.1 3.774 4.344 10.953 13.751 16.64a18.009 18.009 0 0 0 9.066 2.448 17.706 17.706 0 0 0 8.9-2.441c9.426-5.7 12.678-12.882 13.777-16.656a.153.153 0 0 1 .177-.109l.092.017c3.059.516 6.069-2.681 6.845-7.277s-1.02-8.6-4.083-9.119a3.935 3.935 0 0 0-.756-.047.138.138 0 0 1-.116-.046.153.153 0 0 1-.044-.117l.074-1.336a1.016 1.016 0 1 0-2.028-.113l-.456 8.234a1.016 1.016 0 0 0 .958 1.07h.057a1.016 1.016 0 0 0 1.013-.959l.252-4.54a.154.154 0 0 1 .131-.145 1.824 1.824 0 0 1 .58 0c1.636.277 3.031 3.129 2.417 6.779s-2.858 5.888-4.5 5.613a1.95 1.95 0 0 1-.713-.287 1.015 1.015 0 0 0-1.529.621c-.734 3.06-3.489 10.811-13.175 16.667a15.806 15.806 0 0 1-15.86.012c-9.705-5.868-12.461-13.619-13.2-16.678a1.015 1.015 0 0 0-1.53-.621 1.911 1.911 0 0 1-.708.286c-1.634.278-3.89-1.96-4.506-5.612s.778-6.5 2.414-6.779a1.816 1.816 0 0 1 .451-.012.156.156 0 0 1 .142.142l.377 4.582a1.015 1.015 0 0 0 2.023-.166l-.443-5.381-.2-4.271a1.015 1.015 0 0 0-2.028.1l.133 2.793a.154.154 0 0 1-.155.162 3.852 3.852 0 0 0-.632.052c-3.062.518-4.854 4.523-4.08 9.119s3.786 7.793 6.848 7.276l.089-.016Z"/>
  </g>
  <path class="color-2" fill="#8e3330" d="M263.659 108.519a2.174 2.174 0 0 1 2.876-2.16c20.552 7.009 23.592 19.167 23.592 19.167s22.288 71.459 12.662 77.032c0 0-4.011 8.308-21.211 7.361-2.567 2.809-23.48 2.523-23.48 2.523l-13.94-.741-.223-54.549Z"/>
  <g class="color-2" fill="#8e3330">
    <path d="M235.397 70.688a1.159 1.159 0 0 1 .019-2.318l2.116.017a1.159 1.159 0 0 1-.018 2.317Z"/>
    <path d="m237.512 70.866-2.116-.017a1.321 1.321 0 0 1 .021-2.641l2.116.017a1.322 1.322 0 0 1 .49 2.544 1.326 1.326 0 0 1-.511.097Zm-2.8-2.048a1 1 0 0 0 .691 1.707l2.116.017a1 1 0 0 0 .016-1.994l-2.116-.016a.987.987 0 0 0-.707.286Zm.687 1.87Z"/>
  </g>
  <g class="color-2" fill="#8e3330">
    <g>
      <path d="M244.877 55.863a1.943 1.943 0 1 0 1.929-1.958 1.944 1.944 0 0 0-1.929 1.958Z"/>
      <path d="M224.137 56.024a1.943 1.943 0 1 0 1.928-1.958 1.944 1.944 0 0 0-1.928 1.958Z"/>
    </g>
    <g>
      <path d="M244.877 55.863a1.943 1.943 0 1 0 1.929-1.958 1.944 1.944 0 0 0-1.929 1.958Z"/>
      <path d="M224.137 56.024a1.943 1.943 0 1 0 1.928-1.958 1.944 1.944 0 0 0-1.928 1.958Z"/>
    </g>
  </g>
  <g>
    <path class="color-1" fill="#fff" d="m254.925 89.552-7.526-4.487a3.707 3.707 0 0 0-4.053-.145l-6.224 4.632s-1.3-3.474-3.908-1.881c0 0-1.447.145-.434 5.355a20.671 20.671 0 0 1 1.737 8.829s-5.356 11.145 1.447 18.093l4.2 8.974 12.014-4.632-3.619-6.369 7.671-22s2.519-4.081-1.305-6.369Z"/>
    <g class="color-2" fill="#8e3330">
      <path d="M252.176 125.505a1.215 1.215 0 0 0 1.055-1.815l-3.346-5.889 7.49-21.481a1.215 1.215 0 0 0-2.294-.8l-7.672 22a1.216 1.216 0 0 0 .091 1l3.619 6.369a1.215 1.215 0 0 0 1.057.616Z"/>
      <g>
        <path d="m251.077 124.914-3.619-6.368a1.263 1.263 0 0 1-.095-1.039l7.672-22a1.262 1.262 0 1 1 2.384.831l-7.483 21.46 3.335 5.87a1.264 1.264 0 0 1-2.2 1.247Zm4.643-30.045a1.161 1.161 0 0 0-.594.667l-7.672 22a1.169 1.169 0 0 0 .087.961l3.619 6.368a1.166 1.166 0 0 0 1.591.438 1.167 1.167 0 0 0 .438-1.591l-3.347-5.889a.047.047 0 0 1 0-.039l7.49-21.481a1.167 1.167 0 0 0-1.609-1.435Z"/>
        <path d="m251.031 124.942-3.619-6.368a1.317 1.317 0 0 1-.1-1.084l7.672-22a1.316 1.316 0 0 1 2.485.867l-7.473 21.435 3.324 5.848a1.316 1.316 0 1 1-2.289 1.3Zm4.713-30.022a1.107 1.107 0 0 0-.567.636l-7.672 22a1.113 1.113 0 0 0 .083.916l3.619 6.368a1.112 1.112 0 0 0 1.517.419 1.113 1.113 0 0 0 .419-1.518l-3.347-5.889a.1.1 0 0 1-.007-.084l7.49-21.481a1.114 1.114 0 0 0-.684-1.417 1.136 1.136 0 0 0-.368-.063 1.107 1.107 0 0 0-.483.111Z"/>
      </g>
    </g>
    <g class="color-2" fill="#8e3330">
      <path d="m239.061 129.437-4.112-8.792c-2.946-3.107-4.143-7.427-3.464-12.51a25.308 25.308 0 0 1 1.831-6.577 19.744 19.744 0 0 0-1.638-8.019 1.216 1.216 0 0 1-.092-.281c-.587-3.02-.495-5 .281-6.04a1.9 1.9 0 0 1 .849-.665 3.37 3.37 0 0 1 2.838-.343 4.156 4.156 0 0 1 1.95 1.543l5.115-3.807a1.09 1.09 0 0 1 .1-.067 4.9 4.9 0 0 1 5.342.168l7.484 4.462a1.215 1.215 0 0 1-1.244 2.087l-7.527-4.487a1.261 1.261 0 0 1-.119-.081 2.461 2.461 0 0 0-2.639-.094l-6.172 4.593a1.215 1.215 0 0 1-1.862-.548 2.794 2.794 0 0 0-1.22-1.472c-.1-.035-.377-.13-.918.2l-.065.037c-.1.258-.344 1.231.163 3.914a21.674 21.674 0 0 1 1.783 9.276 1.213 1.213 0 0 1-.117.448c-.05.1-4.916 10.45 1.221 16.717a1.219 1.219 0 0 1 .232.335l4.2 8.974a1.215 1.215 0 1 1-2.2 1.029Zm-5.723-40.558Z"/>
      <g>
        <path d="m239.018 129.456-4.109-8.784c-2.951-3.116-4.152-7.454-3.472-12.544a25.478 25.478 0 0 1 1.831-6.581 19.68 19.68 0 0 0-1.633-7.988 1.28 1.28 0 0 1-.1-.293c-.59-3.034-.495-5.022.29-6.077a1.94 1.94 0 0 1 .864-.678 3.423 3.423 0 0 1 2.877-.347 4.117 4.117 0 0 1 1.944 1.521l5.076-3.778.1-.07a4.961 4.961 0 0 1 5.391.168l7.494 4.465a1.262 1.262 0 1 1-1.292 2.168l-7.527-4.487a1.355 1.355 0 0 1-.123-.084 2.4 2.4 0 0 0-2.582-.094l-6.172 4.593a1.262 1.262 0 0 1-1.935-.57 2.748 2.748 0 0 0-1.192-1.444c-.1-.033-.357-.122-.876.2l-.051.03c-.095.257-.327 1.235.168 3.861a21.8 21.8 0 0 1 1.787 9.3 1.255 1.255 0 0 1-.122.466c-.05.1-4.91 10.411 1.212 16.663a1.268 1.268 0 0 1 .241.348l4.2 8.974a1.263 1.263 0 0 1-1.142 1.8 1.269 1.269 0 0 1-1.147-.738Zm-4.238-41a2.854 2.854 0 0 1 1.249 1.5 1.166 1.166 0 0 0 1.789.527l6.177-4.6a2.508 2.508 0 0 1 2.692.1 1.249 1.249 0 0 0 .114.078l7.527 4.487a1.168 1.168 0 0 0 1.2-2.005l-7.487-4.463a4.866 4.866 0 0 0-5.291-.167 1.072 1.072 0 0 0-.1.065l-5.115 3.807a.045.045 0 0 1-.036.009.048.048 0 0 1-.031-.019 4.047 4.047 0 0 0-1.926-1.526 3.334 3.334 0 0 0-2.805.343 1.855 1.855 0 0 0-.829.649c-.768 1.032-.857 3-.273 6a1.181 1.181 0 0 0 .089.271 19.8 19.8 0 0 1 1.642 8.041.056.056 0 0 1 0 .017 25.334 25.334 0 0 0-1.828 6.563c-.676 5.063.517 9.376 3.451 12.471a.035.035 0 0 1 .009.013l4.112 8.791a1.174 1.174 0 0 0 1.058.673 1.168 1.168 0 0 0 1.056-1.662l-4.2-8.974a1.159 1.159 0 0 0-.224-.322c-6.168-6.3-1.279-16.667-1.229-16.771a1.17 1.17 0 0 0 .113-.43 21.731 21.731 0 0 0-1.782-9.264c-.5-2.646-.279-3.637-.161-3.94a.047.047 0 0 1 .022-.024.768.768 0 0 0 .062-.036 1.4 1.4 0 0 1 .716-.247.694.694 0 0 1 .239.05Zm-1.49.417a.048.048 0 0 1 .037-.046.05.05 0 0 1 .054.025.053.053 0 0 1 0 .021.048.048 0 0 1-.026.043.054.054 0 0 1-.022.005.048.048 0 0 1-.043-.043Z"/>
        <path d="m238.969 129.479-4.106-8.776c-2.958-3.129-4.161-7.479-3.48-12.581a25.575 25.575 0 0 1 1.832-6.587 19.525 19.525 0 0 0-1.629-7.952 1.318 1.318 0 0 1-.1-.305c-.593-3.051-.5-5.052.3-6.12a1.975 1.975 0 0 1 .881-.693 3.473 3.473 0 0 1 2.922-.351 4.146 4.146 0 0 1 1.938 1.5l5.033-3.745c.035-.026.072-.051.109-.073a5.006 5.006 0 0 1 5.447.168l7.484 4.461a1.316 1.316 0 1 1-1.347 2.262l-7.526-4.487a1.27 1.27 0 0 1-.129-.086 2.35 2.35 0 0 0-2.517-.094l-6.172 4.593a1.316 1.316 0 0 1-2.018-.594 2.687 2.687 0 0 0-1.159-1.413c-.091-.031-.334-.112-.829.191l-.035.021c-.091.262-.309 1.24.174 3.8a21.856 21.856 0 0 1 1.791 9.324 1.326 1.326 0 0 1-.127.485c-.05.1-4.9 10.375 1.2 16.6a1.309 1.309 0 0 1 .251.363l4.2 8.974a1.317 1.317 0 0 1-1.192 1.875 1.323 1.323 0 0 1-1.196-.76Zm-4.171-41.069a2.916 2.916 0 0 1 1.282 1.532 1.112 1.112 0 0 0 1.706.5l6.182-4.6a2.561 2.561 0 0 1 2.751.1 1.206 1.206 0 0 0 .109.074l7.527 4.487a1.113 1.113 0 0 0 1.14-1.912l-7.49-4.466a4.811 4.811 0 0 0-5.232-.165 1.23 1.23 0 0 0-.092.062l-5.116 3.807a.1.1 0 0 1-.075.019.1.1 0 0 1-.067-.041 3.994 3.994 0 0 0-1.9-1.506 3.293 3.293 0 0 0-2.769.343 1.8 1.8 0 0 0-.8.631c-.758 1.019-.844 2.968-.263 5.959a1.145 1.145 0 0 0 .085.259 19.935 19.935 0 0 1 1.642 8.067.113.113 0 0 1-.008.036 25.227 25.227 0 0 0-1.824 6.548c-.674 5.048.514 9.344 3.438 12.428a.087.087 0 0 1 .017.026l4.112 8.791a1.12 1.12 0 0 0 1.009.642 1.114 1.114 0 0 0 1.008-1.586l-4.2-8.973a1.1 1.1 0 0 0-.214-.307c-6.172-6.3-1.289-16.728-1.239-16.833a1.116 1.116 0 0 0 .108-.41 21.786 21.786 0 0 0-1.781-9.251c-.5-2.659-.278-3.662-.158-3.968a.106.106 0 0 1 .048-.055.854.854 0 0 0 .058-.033 1.477 1.477 0 0 1 .745-.255.735.735 0 0 1 .261.05Zm2.71-.671-.015-.005.009.013.01-.008Zm-4.271 1.139a.1.1 0 0 1 .079-.1.1.1 0 0 1 .115.054.1.1 0 0 1 .01.044.1.1 0 0 1-.056.092.11.11 0 0 1-.047.011.1.1 0 0 1-.101-.101Zm.108 0a.007.007 0 0 0-.006-.006Z"/>
      </g>
    </g>
    <g class="color-2" fill="#8e3330">
      <path d="M235.528 97.425c.04 0 .081 0 .122-.006a1.215 1.215 0 0 0 1.088-1.33l-.278-2.783a1.993 1.993 0 0 1 .684-1.487 3.094 3.094 0 0 1 2.166-.359l11.543 3.03a1.215 1.215 0 0 0 .617-2.35l-11.58-3.039-.054-.013a5.5 5.5 0 0 0-4.141.781 4.381 4.381 0 0 0-1.667 3.356 1.22 1.22 0 0 0 0 .211l.29 2.9a1.215 1.215 0 0 0 1.21 1.089Z"/>
      <g>
        <path d="m234.274 96.34-.289-2.895a1.231 1.231 0 0 1 0-.219 4.425 4.425 0 0 1 1.685-3.391 5.562 5.562 0 0 1 4.18-.79l.056.013 11.579 3.04a1.262 1.262 0 1 1-.641 2.441l-11.54-3.029a3.018 3.018 0 0 0-2.128.35 1.94 1.94 0 0 0-.666 1.444l.278 2.783a1.262 1.262 0 0 1-1.13 1.382c-.042 0-.085.006-.127.006a1.258 1.258 0 0 1-1.257-1.135Zm5.049-4.922 11.543 3.03a1.167 1.167 0 1 0 .592-2.258l-11.579-3.039-.052-.013a5.456 5.456 0 0 0-4.1.773 4.336 4.336 0 0 0-1.648 3.322 1.146 1.146 0 0 0 0 .2l.289 2.895a1.167 1.167 0 0 0 2.323-.232l-.278-2.793a2.034 2.034 0 0 1 .7-1.52 2.643 2.643 0 0 1 1.556-.422 3.676 3.676 0 0 1 .654.053Z"/>
        <path d="m234.22 96.341-.289-2.894a1.268 1.268 0 0 1 0-.229 4.481 4.481 0 0 1 1.707-3.43 5.635 5.635 0 0 1 4.224-.8l.058.015 11.579 3.039a1.316 1.316 0 1 1-.668 2.546l-11.536-3.028a2.956 2.956 0 0 0-2.085.34 1.88 1.88 0 0 0-.645 1.4l.278 2.783a1.316 1.316 0 0 1-1.179 1.441c-.044 0-.088.006-.132.006a1.311 1.311 0 0 1-1.312-1.189Zm5.116-4.979 11.543 3.03a1.113 1.113 0 0 0 .565-2.153L239.866 89.2l-.051-.012a5.406 5.406 0 0 0-4.06.763 4.283 4.283 0 0 0-1.625 3.282 1.167 1.167 0 0 0 0 .193l.289 2.894a1.125 1.125 0 0 0 1.219 1 1.114 1.114 0 0 0 1-1.218l-.278-2.8a2.086 2.086 0 0 1 .724-1.558 2.756 2.756 0 0 1 1.589-.433 3.633 3.633 0 0 1 .663.051Z"/>
      </g>
    </g>
    <g class="color-2" fill="#8e3330">
      <path d="M234.954 102.926c.04 0 .081 0 .122-.006a1.215 1.215 0 0 0 1.087-1.329l-.278-2.783a1.991 1.991 0 0 1 .685-1.487 3.1 3.1 0 0 1 2.168-.359l9.52 2.452a1.215 1.215 0 0 0 .606-2.353l-9.553-2.461-.048-.011a5.5 5.5 0 0 0-4.142.781 4.383 4.383 0 0 0-1.667 3.356 1.258 1.258 0 0 0 0 .211l.29 2.895a1.215 1.215 0 0 0 1.21 1.094Z"/>
      <g>
        <path d="m233.695 101.836-.289-2.895a1.2 1.2 0 0 1 0-.219 4.429 4.429 0 0 1 1.685-3.391 5.54 5.54 0 0 1 4.18-.79l.051.012 9.553 2.461a1.262 1.262 0 0 1-.63 2.445l-9.517-2.451a3.019 3.019 0 0 0-2.131.35 1.941 1.941 0 0 0-.666 1.444l.279 2.783a1.262 1.262 0 0 1-1.131 1.382 1.162 1.162 0 0 1-.127.007 1.257 1.257 0 0 1-1.257-1.138Zm5.051-4.922 9.52 2.452a1.167 1.167 0 0 0 .583-2.26l-9.553-2.461-.047-.011a5.444 5.444 0 0 0-4.1.773 4.337 4.337 0 0 0-1.647 3.322 1.187 1.187 0 0 0 0 .2l.289 2.895a1.167 1.167 0 0 0 2.323-.232l-.279-2.793a2.036 2.036 0 0 1 .7-1.52 2.642 2.642 0 0 1 1.557-.422 3.668 3.668 0 0 1 .654.058Z"/>
        <path d="m233.641 101.842-.289-2.894a1.272 1.272 0 0 1 0-.229 4.482 4.482 0 0 1 1.707-3.43 5.586 5.586 0 0 1 4.223-.8l.054.013 9.553 2.46a1.317 1.317 0 0 1-.657 2.55l-9.513-2.45a2.958 2.958 0 0 0-2.087.34 1.883 1.883 0 0 0-.646 1.4l.279 2.783a1.316 1.316 0 0 1-1.179 1.441 1.178 1.178 0 0 1-.132.007 1.311 1.311 0 0 1-1.313-1.191Zm5.118-4.979 9.52 2.452a1.113 1.113 0 0 0 .556-2.156l-9.552-2.46-.046-.01a5.4 5.4 0 0 0-4.059.763 4.285 4.285 0 0 0-1.626 3.282 1.045 1.045 0 0 0 0 .193l.289 2.895a1.114 1.114 0 0 0 2.216-.222l-.278-2.8a2.084 2.084 0 0 1 .724-1.558 2.76 2.76 0 0 1 1.59-.433 3.685 3.685 0 0 1 .666.054Z"/>
      </g>
    </g>
    <g class="color-2" fill="#8e3330">
      <path d="M236.348 111.813a2.282 2.282 0 0 0 .723-.12 1.215 1.215 0 0 0-.689-2.328 5.822 5.822 0 0 1-1.1-2.49l-.271-2.712a1.992 1.992 0 0 1 .684-1.486 3.1 3.1 0 0 1 2.178-.357l9.1 2.166a1.215 1.215 0 1 0 .563-2.363l-9.119-2.171a5.514 5.514 0 0 0-4.168.776 4.381 4.381 0 0 0-1.667 3.356 1.209 1.209 0 0 0 0 .21l.29 2.895a1.153 1.153 0 0 0 .021.134c.646 3.016 1.949 3.965 2.333 4.185a2.243 2.243 0 0 0 1.122.305Z"/>
      <g>
        <path d="M235.204 111.547c-.388-.222-1.706-1.182-2.356-4.216a1.212 1.212 0 0 1-.022-.139l-.289-2.895a1.227 1.227 0 0 1 0-.219 4.428 4.428 0 0 1 1.686-3.391 5.593 5.593 0 0 1 4.208-.784l9.119 2.171a1.262 1.262 0 0 1-.585 2.456l-9.1-2.166a3.084 3.084 0 0 0-2.14.348 1.94 1.94 0 0 0-.666 1.444l.271 2.706a6.013 6.013 0 0 0 1.064 2.449 1.262 1.262 0 0 1 .692 2.425 2.324 2.324 0 0 1-.737.123 2.291 2.291 0 0 1-1.145-.312Zm1.191-2.137a.048.048 0 0 1-.041-.008 5.817 5.817 0 0 1-1.118-2.524l-.271-2.721a2.033 2.033 0 0 1 .7-1.52 3.11 3.11 0 0 1 2.218-.365l9.1 2.166a1.167 1.167 0 1 0 .541-2.271l-9.117-2.171a5.5 5.5 0 0 0-4.13.767 4.337 4.337 0 0 0-1.647 3.322 1.113 1.113 0 0 0 0 .2l.29 2.895a1.215 1.215 0 0 0 .02.129c.642 3 1.93 3.936 2.31 4.154a2.175 2.175 0 0 0 1.805.183 1.167 1.167 0 0 0-.662-2.237Z"/>
        <path d="M235.177 111.594c-.394-.225-1.728-1.2-2.382-4.252a1.321 1.321 0 0 1-.023-.145l-.289-2.894a1.385 1.385 0 0 1 0-.228 4.482 4.482 0 0 1 1.707-3.43 5.64 5.64 0 0 1 4.254-.793l9.119 2.171a1.316 1.316 0 0 1 .385 2.4 1.3 1.3 0 0 1-1 .16l-9.093-2.164a3.02 3.02 0 0 0-2.1.338 1.879 1.879 0 0 0-.645 1.4l.27 2.7a6.23 6.23 0 0 0 1.026 2.4 1.317 1.317 0 0 1 .7 2.536 2.4 2.4 0 0 1-.755.125 2.339 2.339 0 0 1-1.174-.324Zm1.231-2.131a.1.1 0 0 1-.087-.018 5.875 5.875 0 0 1-1.139-2.561l-.271-2.731a2.083 2.083 0 0 1 .724-1.558 3.162 3.162 0 0 1 2.264-.375l9.1 2.166a1.113 1.113 0 1 0 .516-2.166l-9.116-2.171a5.452 5.452 0 0 0-4.086.757 4.284 4.284 0 0 0-1.626 3.283 1.041 1.041 0 0 0 0 .192l.289 2.895c0 .042.011.082.02.123.637 2.973 1.909 3.9 2.284 4.118a2.118 2.118 0 0 0 1.762.178 1.113 1.113 0 0 0-.353-2.169 1.1 1.1 0 0 0-.281.037Z"/>
      </g>
    </g>
    <g class="color-2" fill="#8e3330">
      <path d="M236.831 116.676h.107a1.215 1.215 0 0 0 1.1-1.315c-.208-2.395 1.781-6.116 2.565-7.348a1.215 1.215 0 1 0-2.05-1.3c-.133.209-3.256 5.166-2.935 8.863a1.215 1.215 0 0 0 1.213 1.1Z"/>
      <g>
        <path d="M235.574 115.571c-.322-3.709 2.809-8.682 2.943-8.892a1.262 1.262 0 1 1 2.129 1.355c-.781 1.228-2.764 4.938-2.557 7.318a1.263 1.263 0 0 1-1.148 1.367h-.111a1.27 1.27 0 0 1-1.256-1.148Zm3.023-8.841c-.133.209-3.247 5.156-2.928 8.833a1.174 1.174 0 0 0 1.161 1.066h.1a1.168 1.168 0 0 0 1.061-1.263c-.209-2.407 1.786-6.142 2.572-7.378a1.167 1.167 0 0 0-1.97-1.253Z"/>
        <path d="M235.52 115.575c-.324-3.728 2.817-8.716 2.951-8.926a1.316 1.316 0 1 1 2.221 1.413c-.779 1.224-2.755 4.92-2.549 7.284a1.318 1.318 0 0 1-1.2 1.426h-.116a1.324 1.324 0 0 1-1.307-1.197Zm3.123-8.817c-.133.208-3.237 5.148-2.92 8.8a1.117 1.117 0 0 0 1.2 1.013 1.114 1.114 0 0 0 1.012-1.2c-.211-2.423 1.791-6.172 2.581-7.412a1.114 1.114 0 0 0-1.878-1.2Z"/>
      </g>
    </g>
  </g>
  <path class="color-2" fill="#8e3330" d="m236.459 127.404 18.447-12.649a1.46 1.46 0 0 1 2.013.356l40.582 56.92a1.46 1.46 0 0 1-1.954 2.09l-17.842 28.933.4.772a1.459 1.459 0 1 1-2.588 1.348l-39.528-75.893a1.46 1.46 0 0 1 .47-1.877Z"/>
  <path class="color-2" fill="#8e3330" d="M172.429 187.102a60.581 60.581 0 0 1 .852-9.392c3.89-29.366 5.9-43.063 5.9-43.063s4.173-20.72 29.338-28.78a1.191 1.191 0 0 1 1.54 1.286l19.609 50-.141 34.66 27.037 5.3s1.182 16.974-5.908 24.064l-60.9-5.745a19.151 19.151 0 0 1-17.154-16.024 53.856 53.856 0 0 1-.173-12.306Z"/>
  <g>
    <g>
      <g>
        <g>
          <path class="color-1" fill="#fff" d="m252.047 200.661 7.773.954 20.9-9.106.861-.253a9.372 9.372 0 0 1 4.973-.084l.753.194 7.731 3.646a4.888 4.888 0 0 1 2.342 2.258c.638 1.321.752 3.083-2.137 4.166 0 0 4.213 4.471-2.011 6.116 0 0 3.279 5.129-3.369 5.618 0 0 2.78 5.179-4.943 7.628-1.92.608-9.532 3.287-9.567-3.057 0 0-10.474 4.981-20.118-1.48l-5.771-1.453s-2.708-6.384 2.583-15.147Z"/>
          <path class="color-2" fill="#8e3330" d="M275.92 223.304a4.659 4.659 0 0 1-1.751-2.538c-3.55 1.185-11.712 2.955-19.527-2.149l-5.529-1.392a1.456 1.456 0 0 1-.987-.845c-.123-.289-2.941-7.178 2.672-16.473a1.459 1.459 0 0 1 1.428-.695l7.378.906 20.539-8.947a1.471 1.471 0 0 1 .172-.062l.861-.253a10.829 10.829 0 0 1 5.748-.1l.753.194a1.411 1.411 0 0 1 .259.093l7.73 3.646a6.357 6.357 0 0 1 3.034 2.943 3.954 3.954 0 0 1-1.3 5.331 4.8 4.8 0 0 1 .556 3.585 4.571 4.571 0 0 1-2.737 2.85 4.338 4.338 0 0 1-3.48 5.959 5.96 5.96 0 0 1-.35 3.164c-.852 2.1-2.878 3.67-6.022 4.666l-.217.07a18.674 18.674 0 0 1-5.52 1.083 6.228 6.228 0 0 1-3.71-1.036Zm10.274-29.718a7.914 7.914 0 0 0-4.2.071l-.773.227-20.821 9.07a1.454 1.454 0 0 1-.761.11l-6.816-.837c-3.386 6.094-2.664 10.714-2.222 12.361l4.992 1.256a1.453 1.453 0 0 1 .456.2c8.811 5.9 18.583 1.42 18.678 1.375a1.46 1.46 0 0 1 2.087 1.31c.009 1.621.617 2.062.816 2.206 1.6 1.155 5.378-.061 6.621-.46l.229-.073c2.226-.706 3.673-1.726 4.186-2.951a3.334 3.334 0 0 0-.088-2.594 1.46 1.46 0 0 1 1.179-2.147c1.448-.106 2.437-.479 2.712-1.022.34-.67-.17-1.879-.467-2.353a1.46 1.46 0 0 1 .857-2.2c1.293-.342 2.125-.848 2.282-1.388.214-.734-.558-1.88-.96-2.314a1.46 1.46 0 0 1 .55-2.369A2.543 2.543 0 0 0 296.24 200a1.5 1.5 0 0 0-.175-1.1 3.434 3.434 0 0 0-1.65-1.573l-7.606-3.587Z"/>
        </g>
        <g>
          <g>
            <path class="color-2" fill="#8e3330" d="M274.138 220.76a.061.061 0 0 1 .032.005.056.056 0 0 1 .024.026l-.013-.045Zm17.581-5.412c0 .012 0 .026.006.038a.054.054 0 0 1 .031-.047Zm3.478-5.955c0 .011.008.022.011.034a.054.054 0 0 1 .024-.05Zm2.181-6.432.017.031a.056.056 0 0 1 .014-.053Z"/>
          </g>
        </g>
        <g>
          <g>
            <path class="color-2" fill="#8e3330" d="M259.648 200.11h.015Zm-9.688-.507a1.212 1.212 0 0 1 .177-.483 1.167 1.167 0 0 0-.177.483Zm1.619-1.063h.035-.026Z"/>
          </g>
        </g>
      </g>
      <g class="color-2" fill="#8e3330">
        <path d="M295.203 203.879a1.444 1.444 0 0 0 .651-2.752l-9.476-4.4a1.444 1.444 0 0 0-1.215 2.619l9.476 4.4a1.437 1.437 0 0 0 .564.133Z"/>
        <g>
          <path d="m294.617 203.794-9.476-4.4a1.5 1.5 0 0 1 1.26-2.715l9.476 4.4a1.5 1.5 0 1 1-1.26 2.715Zm-10.106-6.341a1.392 1.392 0 0 0 .676 1.846l9.476 4.4a1.372 1.372 0 0 0 .543.129 1.39 1.39 0 0 0 .627-2.651l-9.476-4.4a1.389 1.389 0 0 0-1.846.676Z"/>
          <path d="M295.201 203.987a1.541 1.541 0 0 1-.606-.144l-9.476-4.4a1.551 1.551 0 0 1 1.306-2.814l9.476 4.4a1.551 1.551 0 0 1-.653 2.958Zm-10.641-6.511a1.338 1.338 0 0 0 .649 1.774l9.476 4.4a1.311 1.311 0 0 0 .522.124h.04a1.336 1.336 0 0 0 .562-2.548l-9.476-4.4a1.333 1.333 0 0 0-.521-.123 1.331 1.331 0 0 0-1.252.773Z"/>
        </g>
      </g>
      <g class="color-2" fill="#8e3330">
        <path d="M293.193 209.995a1.444 1.444 0 0 0 .682-2.737l-7.937-3.918a1.444 1.444 0 0 0-1.278 2.589l7.937 3.918a1.431 1.431 0 0 0 .596.148Z"/>
        <g>
          <path d="m292.574 209.895-7.937-3.918a1.5 1.5 0 1 1 1.325-2.685l7.937 3.919a1.5 1.5 0 0 1 .68 2 1.5 1.5 0 0 1-2.005.68Zm-7.721-6.577a1.39 1.39 0 0 0-.169 2.563l7.937 3.918a1.39 1.39 0 1 0 1.231-2.492l-7.937-3.919a1.382 1.382 0 0 0-1.062-.07Z"/>
          <path d="M293.19 210.102a1.542 1.542 0 0 1-.64-.159l-7.937-3.918a1.551 1.551 0 1 1 1.373-2.781l7.937 3.918a1.551 1.551 0 0 1-.687 2.941Zm-8.32-6.734a1.337 1.337 0 0 0-.163 2.463l7.937 3.918a1.322 1.322 0 0 0 .551.138h.04a1.339 1.339 0 0 0 1.2-.745 1.335 1.335 0 0 0-.605-1.789l-7.937-3.918a1.335 1.335 0 0 0-.552-.139 1.329 1.329 0 0 0-.47.072Z"/>
        </g>
      </g>
      <g class="color-2" fill="#8e3330">
        <path d="M289.61 215.149a1.444 1.444 0 0 0 .656-2.75l-6.768-3.174a1.444 1.444 0 0 0-1.226 2.614l6.767 3.174a1.445 1.445 0 0 0 .571.136Z"/>
        <g>
          <path d="m289.018 215.06-6.767-3.173a1.5 1.5 0 1 1 1.271-2.711l6.768 3.174a1.5 1.5 0 1 1-1.271 2.71Zm-7.39-5.119a1.392 1.392 0 0 0 .668 1.849l6.767 3.174a1.39 1.39 0 0 0 1.18-2.517l-6.768-3.174a1.39 1.39 0 0 0-1.848.668Z"/>
          <path d="M289.607 215.257a1.535 1.535 0 0 1-.612-.147l-6.768-3.173a1.551 1.551 0 0 1 1.317-2.809l6.768 3.174a1.551 1.551 0 0 1-.659 2.955Zm-6.679-6.059h-.04a1.336 1.336 0 0 0-.568 2.545l6.768 3.173a1.317 1.317 0 0 0 .527.126h.04a1.336 1.336 0 0 0 .567-2.546l-6.768-3.174a1.323 1.323 0 0 0-.525-.125Zm0-.054Z"/>
        </g>
      </g>
    </g>
    <g class="color-2" fill="#8e3330">
      <path d="M275.313 220.185a1.51 1.51 0 0 0 .184-.006l5.274-.513a1.443 1.443 0 1 0-.28-2.873l-5.274.513a1.443 1.443 0 0 0 .1 2.88Z"/>
      <g>
        <path d="M273.868 218.887a1.5 1.5 0 0 1 1.345-1.635l5.274-.513a1.5 1.5 0 0 1 .29 2.98l-5.274.513a1.5 1.5 0 0 1-1.635-1.345Zm6.629-2.042-5.275.513a1.39 1.39 0 0 0 .092 2.773 1.472 1.472 0 0 0 .177-.006l5.275-.513a1.39 1.39 0 0 0-.088-2.773 1.432 1.432 0 0 0-.18.006Z"/>
        <path d="M275.31 220.292a1.551 1.551 0 0 1-.1-3.094l5.274-.513a1.551 1.551 0 0 1 .3 3.087l-5.273.513c-.048 0-.1.007-.15.007Zm0-.054Zm5.193-3.339-5.274.513a1.336 1.336 0 0 0 .089 2.665 1.2 1.2 0 0 0 .171-.006l5.274-.513a1.337 1.337 0 0 0 .718-2.364 1.316 1.316 0 0 0-.8-.3h-.04a1.334 1.334 0 0 0-.139.005Zm.175-.06Z"/>
      </g>
    </g>
  </g>
  <g class="color-2" fill="#8e3330">
    <g>
      <path d="M232.971 79.223a1.151 1.151 0 0 1 .018-2.3l6.386.016a1.151 1.151 0 1 1-.018 2.3Z"/>
      <path d="M239.363 79.29h-.01l-6.386-.016a1.204 1.204 0 0 1 .009-2.407h.01l6.386.017a1.203 1.203 0 0 1-.009 2.406Zm-6.4-.121 6.386.016h.009a1.1 1.1 0 0 0 .009-2.2l-6.386-.017h-.009a1.1 1.1 0 0 0-.009 2.2Z"/>
    </g>
    <g>
      <path d="m239.355 79.401-6.386-.017a1.312 1.312 0 0 1 .021-2.624l6.386.016a1.313 1.313 0 1 1-.021 2.625Zm-7.07-2.035a.991.991 0 0 0 .687 1.7l6.386.016a.99.99 0 1 0 .016-1.981l-6.386-.016a.983.983 0 0 0-.7.284Zm.683 1.858Z"/>
      <path d="M239.365 79.451h-.01l-6.386-.016a1.365 1.365 0 0 1 .011-2.729h.011l6.386.016a1.365 1.365 0 0 1-.011 2.729Zm-6.385-2.641a1.26 1.26 0 0 0-.011 2.521l6.386.016a1.3 1.3 0 0 0 .487-.093 1.261 1.261 0 0 0-.467-2.427l-6.386-.016Zm-.01 2.464a.053.053 0 0 1-.048-.031.054.054 0 0 1 0-.022.049.049 0 0 1 .03-.046.052.052 0 0 1 .069.027.05.05 0 0 1 0 .021.052.052 0 0 1-.031.048.054.054 0 0 1-.02.005Zm6.4-.145h-.01l-6.386-.017a1.043 1.043 0 0 1-.723-1.785 1.031 1.031 0 0 1 .337-.222 1.06 1.06 0 0 1 .4-.077l6.385.016a1.043 1.043 0 0 1-.006 2.085Zm-7.046-1.728a.938.938 0 0 0 .651 1.607l6.385.017h.009a.939.939 0 0 0 .006-1.877l-6.386-.016a.943.943 0 0 0-.363.069.932.932 0 0 0-.3.2Z"/>
    </g>
  </g>
  <g>
    <path class="color-1" fill="#fff" d="M215.512 81.044c0 1.884-1.007 3.411-2.25 3.411s-2.25-1.527-2.25-3.411 1.007-8.2 2.25-8.2 2.25 6.316 2.25 8.2Z"/>
    <path class="color-2" fill="#8e3330" d="M213.262 85.551c-1.876 0-3.346-1.98-3.346-4.508 0-.093.461-9.3 3.346-9.3s3.346 9.2 3.346 9.3c0 2.528-1.469 4.508-3.346 4.508Zm0-10.958a25.488 25.488 0 0 0-1.154 6.45c0 1.413.683 2.315 1.154 2.315s1.154-.9 1.154-2.315a25.506 25.506 0 0 0-1.154-6.448Z"/>
  </g>
  <g>
    <path class="color-1" fill="#fff" d="M262.748 81.044c0 1.884-1.007 3.411-2.25 3.411s-2.25-1.527-2.25-3.411 1.007-8.2 2.25-8.2 2.25 6.316 2.25 8.2Z"/>
    <path class="color-2" fill="#8e3330" d="M260.498 85.551c-1.876 0-3.346-1.98-3.346-4.508 0-.093.461-9.3 3.346-9.3s3.346 9.2 3.346 9.3c0 2.528-1.47 4.508-3.346 4.508Zm0-10.958a25.506 25.506 0 0 0-1.154 6.45c0 1.413.683 2.315 1.154 2.315s1.154-.9 1.154-2.315a25.488 25.488 0 0 0-1.154-6.448Z"/>
  </g>
  <path class="color-1" fill="#fff" d="M224.978 192.99a1.352 1.352 0 0 0 .267-2.677l-22.238-4.512a2.026 2.026 0 0 0-.108-.018c-.353-.043-8.757-.975-14.947 4.872a1.352 1.352 0 1 0 1.856 1.966c5.034-4.755 12.087-4.218 12.726-4.157l22.173 4.5a1.367 1.367 0 0 0 .271.026Z"/>
  <path class="color-1" fill="#fff" d="M295.88 177.52a1.352 1.352 0 0 0 1.139-2.08l-33.517-52.532a1.352 1.352 0 0 0-2.28 1.454l33.518 52.533a1.35 1.35 0 0 0 1.14.625Z"/>
  <path class="color-1" fill="#fff" d="M267.199 195.246a1.353 1.353 0 0 0 1.228-1.917l-18.048-39.319a1.352 1.352 0 1 0-2.458 1.129l18.048 39.318a1.353 1.353 0 0 0 1.23.789Z"/>
  <path class="color-1" fill="#fff" d="M202.524 183.213a1.352 1.352 0 0 0 1.347-1.356l-.108-33.088a1.337 1.337 0 0 0-.054-.372c-.122-.422-3.124-10.455-13.893-20.9a1.352 1.352 0 1 0-1.882 1.941c9.516 9.227 12.693 18.211 13.126 19.542l.107 32.884a1.352 1.352 0 0 0 1.357 1.349Z"/>
  <path class="color-1" fill="#fff" d="M277.829 141.097a1.351 1.351 0 0 0 1.175-.681 80.572 80.572 0 0 1 7.891-10.4 1.352 1.352 0 0 0-2.015-1.8 81.477 81.477 0 0 0-8.223 10.866 1.352 1.352 0 0 0 1.172 2.023Z"/>
  <path class="color-2" fill="#8e3330" d="M228.736 50.18a1.364 1.364 0 0 1-.186.053l-4.591.966a1.352 1.352 0 1 1-.557-2.646l4.591-.966a1.352 1.352 0 0 1 .743 2.593Z"/>
  <path class="color-2" fill="#8e3330" d="M223.846 29.434s14.652 21.239 36.689 25.05-11.61-25.05-11.61-25.05Z"/>
  <g>
    <g class="color-2" fill="#8e3330">
      <path d="m88.909 91.527-.073-9.348s1.784-3.357-28.734-.449l-5.594 1.752-1.609 113.937 32.626-1.339Z"/>
      <path d="M52.903 198.877a1.459 1.459 0 0 1-1.458-1.479l1.606-113.936a1.459 1.459 0 0 1 1.022-1.371l5.593-1.751a1.459 1.459 0 0 1 .3-.06c27.749-2.644 29.406-.164 30.029.769a1.812 1.812 0 0 1 .3 1.283l.071 9.185v.059l-3.379 104.552a1.457 1.457 0 0 1-1.4 1.41l-32.624 1.339Zm3.049-114.318-1.569 111.34 29.733-1.22 3.335-103.168-.069-8.847c-1.193-.44-6.342-1.455-26.99.5Zm31.6-3.059Z"/>
    </g>
    <path class="color-1" fill="#fff" d="m48.819 212.799-.127-.915-28.053-6.825s-24.086-.287-19.5-24.373l5.693-56.488 1.434-12.33a17.92 17.92 0 0 1 9.749-10.322l21.547-9.463 5.448-2.294 3.728-3.728s5.653 13.364 6.261 15.916l8.8 71.016v15.392l14.582-.405s.237-16.589.81-14.582l11.521-90.687 4.53 5.065 17.583 7.692 18.446 9.524s4.381 2.046 5.527 8.354c0 0 8.863 41.246 9.437 82.536 0 0 .86 15.484-10.9 16.631l-9.749 2.294-59.1 9.066c-3.268.486-9.938 2.491-11.653-.333a23.553 23.553 0 0 1-6.014-10.741Z"/>
    <path class="color-3" fill="#eae3dc" d="m48.82 212.799-.127-.915-28.053-6.825s-18.109-5.257-13.521-29.343l4.746-41.769 1.719-20.2s-.007-4.294 7.735-7.735l22.775-10.313.92-5.913 3.728-3.728s5.653 13.364 6.261 15.916l8.8 71.016v15.392l14.582-.405s.237-16.589.81-14.582l11.521-90.687 4.53 5.065 17.583 7.692 18.446 9.524s4.381 2.046 5.527 8.354c0 0 8.863 41.246 9.437 82.536 0 0 .86 15.484-10.9 16.631l-9.749 2.294-59.1 9.066c-3.268.486-9.938 2.491-11.653-.333a23.553 23.553 0 0 1-6.017-10.738Z"/>
    <g class="color-2" fill="#8e3330">
      <path d="M26.22 164.851a1.456 1.456 0 0 1-1.456-1.456v-28.64l-9.182-20.562a1.456 1.456 0 0 1 2.689-1.12l9.294 20.83a1.454 1.454 0 0 1 .112.56v28.931a1.456 1.456 0 0 1-1.457 1.457Z"/>
      <path d="M26.219 164.909a1.512 1.512 0 0 1-1.51-1.51V134.77l-9.178-20.551a1.51 1.51 0 1 1 2.787-1.163l9.294 20.83a1.5 1.5 0 0 1 .117.582v28.931a1.512 1.512 0 0 1-1.51 1.51Zm-9.294-52.676a1.406 1.406 0 0 0-1.295 1.944l9.182 20.56a.056.056 0 0 1 0 .022v28.64a1.403 1.403 0 1 0 2.806 0v-28.931a1.4 1.4 0 0 0-.108-.54l-9.294-20.829a1.407 1.407 0 0 0-1.3-.866Z"/>
    </g>
    <path class="color-2" fill="#8e3330" d="M15.512 108.931Z"/>
    <path class="color-2" fill="#8e3330" d="M127.855 108.314Z"/>
    <path class="color-2" fill="#8e3330" d="M56.887 89.055a1.457 1.457 0 0 1-1.414-1.809c.508-2.037 1.606-8.013.6-11.164a1.457 1.457 0 1 1 2.776-.883c1.459 4.585-.471 12.422-.554 12.753a1.457 1.457 0 0 1-1.408 1.103Z"/>
    <g class="color-2" fill="#8e3330">
      <path d="M22.199 200.737c-6.539.9-12.705-.383-16.09-3.358-4.676-4.11-3.039-21-2.014-27.161a1.443 1.443 0 0 0-2.847-.475c-.4 2.429-3.761 23.9 2.956 29.8 3.187 2.8 8.313 4.354 13.985 4.354a32.309 32.309 0 0 0 4.406-.306Z"/>
      <path d="M18.188 203.957c-5.751 0-10.862-1.592-14.021-4.368-6.738-5.922-3.379-27.422-2.974-29.854a1.5 1.5 0 0 1 2.694-.624 1.486 1.486 0 0 1 .259 1.116c-1.024 6.153-2.661 23.019 2 27.112 3.373 2.965 9.522 4.247 16.047 3.345a.051.051 0 0 1 .061.046l.395 2.86a.055.055 0 0 1-.01.04.053.053 0 0 1-.035.021 32.4 32.4 0 0 1-4.416.306Zm-15.516-35.37a1.394 1.394 0 0 0-1.372 1.161c-.4 2.426-3.756 23.872 2.939 29.756 3.14 2.759 8.224 4.341 13.95 4.341a32.238 32.238 0 0 0 4.345-.3l-.38-2.754c-6.534.893-12.693-.4-16.08-3.377-4.695-4.126-3.058-21.041-2.032-27.211a1.39 1.39 0 0 0-1.143-1.6 1.4 1.4 0 0 0-.227-.016Z"/>
    </g>
    <g>
      <path class="color-1" fill="#fff" d="m95.709 111.888.433 3.149-3.448-2.184Z"/>
    </g>
    <g class="color-2" fill="#8e3330">
      <path d="m105.59 106.161-3.987-16.439a1.415 1.415 0 0 0-.383-.47l-8.515-6.768a1.42 1.42 0 0 0-1.768 2.224l8.272 6.575 3.094 14.675-10.042 5.543a1.42 1.42 0 0 0-.327 2.552l9.776 7.4-18.257 51.159a1.42 1.42 0 0 0 .11 2 1.42 1.42 0 0 0 2.007-.11l19.372-52.41a1.42 1.42 0 0 0-.3-2.146l-8.621-6.671 8.734-5.124a1.42 1.42 0 0 0 .834-1.994Z"/>
      <path d="M84.512 175.034a1.474 1.474 0 0 1-1.1-2.456l18.225-51.11-9.736-7.371a1.473 1.473 0 0 1 .343-2.646l9.989-5.524-3.069-14.611-8.261-6.566a1.474 1.474 0 1 1 1.834-2.308l8.515 6.768a1.472 1.472 0 0 1 .4.488l3.988 16.442a1.473 1.473 0 0 1-.867 2.067l-8.641 5.09 8.545 6.612a1.474 1.474 0 0 1 .306 2.224l-19.368 52.4a1.48 1.48 0 0 1-1.103.501Zm7.314-92.806a1.4 1.4 0 0 0-.159.009 1.367 1.367 0 0 0-.7 2.428l8.272 6.575a.053.053 0 0 1 .017.023l3.094 14.675a.057.057 0 0 1 0 .041.052.052 0 0 1-.031.028l-10.042 5.543a1.366 1.366 0 0 0-.316 2.456l9.779 7.405a.055.055 0 0 1 .012.073l-18.258 51.158a1.367 1.367 0 1 0 2.034 1.827l19.368-52.4a1.368 1.368 0 0 0-.284-2.071l-8.625-6.674a.054.054 0 0 1-.02-.051.052.052 0 0 1 .034-.042l8.734-5.124a1.367 1.367 0 0 0 .806-1.92l-3.987-16.439a1.367 1.367 0 0 0-.367-.448l-8.515-6.768a1.354 1.354 0 0 0-.846-.305Z"/>
    </g>
    <g class="color-2" fill="#8e3330">
      <path d="M131.682 106.398a1.433 1.433 0 0 1-.715-.191c-9.365-5.351-25-12.886-26.29-13.4a1.443 1.443 0 1 1 1.072-2.68c1.894.758 24.247 12.2 26.65 13.577a1.444 1.444 0 0 1-.717 2.7Z"/>
      <path d="M131.682 106.456a1.494 1.494 0 0 1-.741-.2c-9.229-5.273-24.865-12.833-26.283-13.4a1.5 1.5 0 1 1 1.112-2.78c1.88.752 24.291 12.229 26.657 13.581a1.5 1.5 0 0 1-.744 2.8Zm-26.466-16.378a1.39 1.39 0 0 0-.518 2.68c1.419.567 17.065 8.131 26.3 13.406a1.39 1.39 0 0 0 1.379-2.414c-2.365-1.351-24.764-12.822-26.643-13.574a1.387 1.387 0 0 0-.518-.102Z"/>
    </g>
    <g class="color-2" fill="#8e3330">
      <path d="M129.6 190.159a1.431 1.431 0 0 1-.7-.182l-10.323-5.735a1.443 1.443 0 1 1 1.4-2.523l10.323 5.735a1.444 1.444 0 0 1-.7 2.706Z"/>
      <path d="M129.6 190.213a1.5 1.5 0 0 1-.725-.189l-10.323-5.735a1.5 1.5 0 0 1 1.453-2.617l10.323 5.735a1.5 1.5 0 0 1-.728 2.806Zm-10.32-8.623a1.39 1.39 0 0 0-.677 2.605l10.323 5.735a1.39 1.39 0 1 0 1.35-2.43l-10.323-5.735a1.383 1.383 0 0 0-.673-.174Z"/>
    </g>
    <g class="color-2" fill="#8e3330">
      <path d="M51.141 193.168a1.444 1.444 0 0 1-.179-2.876l61.635-9.127a1.443 1.443 0 1 1 .361 2.864l-61.635 9.127a1.459 1.459 0 0 1-.182.012Z"/>
      <path d="M51.142 193.222a1.5 1.5 0 0 1-.186-2.982l61.636-9.127a1.5 1.5 0 0 1 .374 2.971l-61.636 9.127a1.452 1.452 0 0 1-.188.011Zm61.637-12.014a1.424 1.424 0 0 0-.174.011l-61.636 9.127a1.39 1.39 0 1 0 .348 2.758l61.636-9.127a1.39 1.39 0 0 0-.174-2.769Z"/>
    </g>
    <g class="color-2" fill="#8e3330">
      <path d="M65.562 215.286Z"/>
      <path d="M65.565 215.34a.055.055 0 0 1-.055-.053.052.052 0 0 1 .052-.053.054.054 0 1 1 0 .107Z"/>
    </g>
    <g>
      <g>
        <path class="color-1" fill="#fff" d="m51.799 198.464-8.526 1.406-20.626-9.721-6.58-.338-7.8 3.4a4.927 4.927 0 0 0-2.532 2.385c-.6 1.279-.622 2.931 2.1 4.045 0 0-4.344 4.344 1.829 6.173 0 0-3.429 5.03 3.2 5.716 0 0-2.932 5.094 4.715 7.771 1.9.665 9.43 3.569 9.654-2.772 0 0 10.322 5.289 20.153-.884l7.279-1.314s2.163-6.951-2.866-15.867Z"/>
        <g class="color-2" fill="#8e3330">
          <path d="M54.768 214.653a1.324 1.324 0 0 1-1.121.992l-5.732 1.372c-7.963 4.857-16.064 2.836-19.562 1.549a4.646 4.646 0 0 1-1.824 2.493 6.037 6.037 0 0 1-3.445.93 18 18 0 0 1-5.764-1.25l-.215-.076c-3.107-1.087-5.082-2.713-5.87-4.832a5.95 5.95 0 0 1-.253-3.179 4.325 4.325 0 0 1-3.3-6.056 4.56 4.56 0 0 1-2.656-2.926 4.786 4.786 0 0 1 .668-3.567 4.216 4.216 0 0 1-1.478-1.847 4.087 4.087 0 0 1 .211-3.269 6.357 6.357 0 0 1 3.263-3.1l7.8-3.4a1.444 1.444 0 0 1 1.154 2.646l-7.8 3.4a3.476 3.476 0 0 0-1.8 1.671 1.3 1.3 0 0 0-.14 1 2.6 2.6 0 0 0 1.481 1.1 1.444 1.444 0 0 1 .474 2.356c-.418.425-1.226 1.554-1.033 2.3.142.551.963 1.086 2.252 1.467a1.443 1.443 0 0 1 .782 2.2c-.312.468-.86 1.668-.537 2.354.262.557 1.244.962 2.694 1.112a1.444 1.444 0 0 1 1.1 2.156 3.351 3.351 0 0 0-.166 2.6c.478 1.245 1.9 2.311 4.107 3.084l.226.08c1.233.437 4.985 1.767 6.62.654.206-.14.831-.565.889-2.194a1.443 1.443 0 0 1 2.1-1.234c.094.047 9.737 4.822 18.727-.822a1.448 1.448 0 0 1 .511-.2l5.53-1.2s2.446-.418 2.107 1.636Z"/>
          <path d="M23.083 222.044a18.044 18.044 0 0 1-5.782-1.253l-.214-.076c-3.123-1.094-5.109-2.73-5.9-4.864a5.95 5.95 0 0 1-.264-3.16 4.765 4.765 0 0 1-3.268-2.474 4.817 4.817 0 0 1-.036-3.593 4.6 4.6 0 0 1-2.643-2.94 4.86 4.86 0 0 1 .65-3.566 4.249 4.249 0 0 1-1.458-1.842 4.138 4.138 0 0 1 .213-3.31 6.407 6.407 0 0 1 3.29-3.125l7.8-3.4a1.5 1.5 0 1 1 1.2 2.744l-7.8 3.4a3.423 3.423 0 0 0-1.772 1.645 1.254 1.254 0 0 0-.139.955 2.557 2.557 0 0 0 1.451 1.073 1.5 1.5 0 0 1 .491 2.444c-.4.4-1.2 1.532-1.019 2.249.137.532.945 1.053 2.214 1.429a1.5 1.5 0 0 1 .812 2.279c-.309.463-.846 1.636-.533 2.3.254.539 1.22.934 2.652 1.082a1.5 1.5 0 0 1 1.143 2.236 3.309 3.309 0 0 0-.163 2.559c.472 1.23 1.881 2.285 4.074 3.053l.226.08c1.228.435 4.961 1.757 6.572.66.2-.136.809-.549.865-2.152a1.5 1.5 0 0 1 2.179-1.28c.1.048 9.7 4.811 18.674-.82a1.5 1.5 0 0 1 .53-.206l5.529-1.2a2.42 2.42 0 0 1 1.862.4 1.4 1.4 0 0 1 .308 1.292 1.378 1.378 0 0 1-1.165 1.036l-5.721 1.369a20.984 20.984 0 0 1-11.477 3.082 25.118 25.118 0 0 1-8.072-1.513 4.7 4.7 0 0 1-1.828 2.468 6.071 6.071 0 0 1-3.481.939Zm-7.019-33.621a1.385 1.385 0 0 0-.553.116l-7.8 3.4a6.3 6.3 0 0 0-3.236 3.072 4.035 4.035 0 0 0-.21 3.226 4.164 4.164 0 0 0 1.461 1.823.054.054 0 0 1 .014.07 4.775 4.775 0 0 0-.662 3.527 4.517 4.517 0 0 0 2.628 2.892.053.053 0 0 1 .027.066 4.736 4.736 0 0 0 .017 3.558 4.688 4.688 0 0 0 3.247 2.428.054.054 0 0 1 .039.062 5.85 5.85 0 0 0 .25 3.151c.782 2.1 2.746 3.718 5.837 4.8l.214.076a17.959 17.959 0 0 0 5.747 1.247 5.966 5.966 0 0 0 3.414-.921 4.6 4.6 0 0 0 1.8-2.466.055.055 0 0 1 .027-.031.053.053 0 0 1 .042 0 25 25 0 0 0 8.09 1.526h.394a20.874 20.874 0 0 0 11.032-3.074.045.045 0 0 1 .016-.006l5.732-1.372a1.275 1.275 0 0 0 1.082-.949 1.3 1.3 0 0 0-.278-1.2 2.359 2.359 0 0 0-1.767-.368l-5.528 1.2a1.394 1.394 0 0 0-.494.192c-9.019 5.662-18.684.873-18.78.824a1.391 1.391 0 0 0-2.023 1.188c-.058 1.656-.7 2.093-.912 2.236-1.658 1.127-5.428-.208-6.666-.647l-.228-.08c-2.223-.778-3.654-1.855-4.138-3.115a3.429 3.429 0 0 1 .169-2.649 1.39 1.39 0 0 0-1.061-2.077c-1.47-.152-2.467-.568-2.737-1.142-.332-.707.221-1.927.541-2.407a1.39 1.39 0 0 0-.753-2.116c-1.307-.387-2.141-.935-2.289-1.505-.2-.769.62-1.916 1.047-2.351a1.39 1.39 0 0 0-.456-2.27 2.645 2.645 0 0 1-1.51-1.133 1.351 1.351 0 0 1 .141-1.039 3.527 3.527 0 0 1 1.827-1.7l7.8-3.4a1.39 1.39 0 0 0-.558-2.664Z"/>
        </g>
        <g class="color-2" fill="#8e3330">
          <path d="m51.565 197.041-8.083 1.333-20.219-9.53a1.443 1.443 0 1 0-1.23 2.611l20.626 9.721a1.436 1.436 0 0 0 .85.119l8.409-1.458a1.35 1.35 0 0 0 1.276-1.6s.04-1.225-1.629-1.196Z"/>
          <path d="M43.272 201.368a1.488 1.488 0 0 1-.636-.144l-20.625-9.721a1.5 1.5 0 1 1 1.276-2.707l20.2 9.522 8.067-1.33a.348.348 0 0 1 .069 0 1.73 1.73 0 0 1 1.279.433 1.2 1.2 0 0 1 .343.823 1.392 1.392 0 0 1-.251 1.111 1.655 1.655 0 0 1-1.076.536l-8.4 1.458a1.493 1.493 0 0 1-.246.019Zm-20.623-12.609a1.39 1.39 0 0 0-.593 2.647l20.626 9.722a1.378 1.378 0 0 0 .818.114l8.409-1.459a1.577 1.577 0 0 0 1.005-.5 1.3 1.3 0 0 0 .227-1.037 1.122 1.122 0 0 0-.314-.755 1.649 1.649 0 0 0-1.257-.4l-8.079 1.332a.058.058 0 0 1-.032 0l-20.219-9.529a1.386 1.386 0 0 0-.591-.135Z"/>
        </g>
      </g>
      <g class="color-2" fill="#8e3330">
        <path d="M7.838 201.086a1.444 1.444 0 0 1-.569-2.771l9.6-4.115a1.443 1.443 0 1 1 1.137 2.653l-9.6 4.115a1.434 1.434 0 0 1-.568.118Z"/>
        <path d="M7.838 201.139a1.5 1.5 0 0 1-.59-2.873l9.6-4.115a1.5 1.5 0 1 1 1.179 2.752l-9.6 4.115a1.479 1.479 0 0 1-.589.121Zm9.6-7a1.387 1.387 0 0 0-.546.112l-9.6 4.116a1.39 1.39 0 0 0 .548 2.668 1.373 1.373 0 0 0 .547-.113l9.6-4.115a1.39 1.39 0 0 0-.549-2.667Z"/>
      </g>
      <g class="color-2" fill="#8e3330">
        <path d="M9.667 207.258a1.443 1.443 0 0 1-.6-2.756l8.049-3.682a1.443 1.443 0 1 1 1.2 2.625l-8.049 3.682a1.436 1.436 0 0 1-.6.131Z"/>
        <path d="M9.666 207.312a1.5 1.5 0 0 1-.623-2.858l8.049-3.681a1.5 1.5 0 1 1 1.245 2.722l-8.049 3.682a1.489 1.489 0 0 1-.622.135Zm8.049-6.569a1.385 1.385 0 0 0-.578.127l-8.049 3.682a1.39 1.39 0 1 0 1.156 2.527l8.05-3.682a1.391 1.391 0 0 0-.578-2.654Z"/>
      </g>
      <g class="color-2" fill="#8e3330">
        <path d="M13.095 212.512a1.444 1.444 0 0 1-.574-2.768l6.858-2.972a1.444 1.444 0 1 1 1.148 2.649l-6.859 2.972a1.442 1.442 0 0 1-.573.119Z"/>
        <path d="M13.095 212.57a1.5 1.5 0 0 1-.6-2.871l6.859-2.972a1.5 1.5 0 1 1 1.19 2.747l-6.859 2.972a1.489 1.489 0 0 1-.59.124Zm6.856-5.859a1.386 1.386 0 0 0-.55.114l-6.859 2.972a1.39 1.39 0 1 0 1.1 2.55l6.859-2.971a1.39 1.39 0 0 0-.555-2.665Z"/>
      </g>
    </g>
    <g class="color-2" fill="#8e3330">
      <path d="M113.928 179.454a1.444 1.444 0 0 1-1.4-1.808c2.209-8.469.736-32.565.72-32.807-.633-7.474 1.419-10.64 1.966-11.339l12.468-19.17a1.444 1.444 0 0 1 2.469 1.5l-12.519 19.255a1.454 1.454 0 0 1-.156.211s-1.93 2.467-1.349 9.336c.065 1.041 1.519 24.833-.806 33.748a1.445 1.445 0 0 1-1.393 1.074Z"/>
      <path d="M113.928 179.508a1.5 1.5 0 0 1-1.449-1.875c2.206-8.456.734-32.548.719-32.791-.627-7.409 1.355-10.58 1.978-11.376l12.465-19.166a1.5 1.5 0 0 1 2.56 1.552l-12.52 19.256a1.551 1.551 0 0 1-.159.216c-.078.1-1.9 2.634-1.337 9.3.064 1.01 1.525 24.821-.808 33.766a1.5 1.5 0 0 1-1.449 1.118Zm14.994-65.819a1.391 1.391 0 0 0-1.191.669l-12.469 19.171c-.62.792-2.582 3.935-1.958 11.306.015.244 1.488 24.352-.722 32.825a1.391 1.391 0 0 0 .994 1.7 1.406 1.406 0 0 0 .351.045 1.391 1.391 0 0 0 1.345-1.04c2.328-8.928.868-32.722.8-33.731a21.416 21.416 0 0 1 .439-7.19 6.823 6.823 0 0 1 .919-2.179 1.441 1.441 0 0 0 .15-.2l12.52-19.256a1.388 1.388 0 0 0-1.187-2.108Z"/>
    </g>
    <g class="color-2" fill="#8e3330">
      <path d="M27.237 217.972a1.427 1.427 0 0 1-.184-.012l-5.257-.669a1.444 1.444 0 0 1 .364-2.864l5.257.669a1.443 1.443 0 0 1-.181 2.875Z"/>
      <path d="M27.237 218.023a1.411 1.411 0 0 1-.191-.012l-5.257-.669a1.5 1.5 0 1 1 .378-2.97l5.257.669a1.5 1.5 0 0 1-.187 2.982Zm-5.264-3.556a1.39 1.39 0 0 0-.17 2.769l5.257.669a1.365 1.365 0 0 0 .177.011 1.39 1.39 0 0 0 .174-2.769l-5.257-.669a1.444 1.444 0 0 0-.181-.009Z"/>
    </g>
    <g class="color-2" fill="#8e3330">
      <path d="M3.055 163.778a1.409 1.409 0 0 1-.17-.01 1.443 1.443 0 0 1-1.265-1.6l5.5-52a1.442 1.442 0 0 1 .046-.228c.069-.244 1.762-5.992 6.859-8.541l.051-.024 24.319-10.7a1.443 1.443 0 1 1 1.188 2.631l-24.292 10.693c-3.609 1.82-5.094 5.956-5.32 6.645l-5.487 51.862a1.443 1.443 0 0 1-1.429 1.272Z"/>
      <path d="M3.055 163.832a1.42 1.42 0 0 1-.177-.01 1.5 1.5 0 0 1-1.311-1.662l5.5-51.995a1.377 1.377 0 0 1 .048-.237c.069-.243 1.749-6.005 6.886-8.574l.054-.025 24.319-10.705a1.5 1.5 0 0 1 1.231 2.729l-24.292 10.693c-3.562 1.8-5.032 5.823-5.291 6.613l-5.482 51.85a1.5 1.5 0 0 1-1.485 1.323Zm35.936-73.235a1.384 1.384 0 0 0-.571.124l-24.319 10.706-.049.023c-5.1 2.548-6.763 8.265-6.831 8.507a1.341 1.341 0 0 0-.044.219l-5.5 51.995a1.39 1.39 0 0 0 1.218 1.544 1.405 1.405 0 0 0 .164.01 1.389 1.389 0 0 0 1.379-1.227l5.487-51.862c.263-.807 1.747-4.871 5.349-6.688l24.294-10.694a1.391 1.391 0 0 0-.573-2.657Z"/>
    </g>
    <g class="color-2" fill="#8e3330">
      <path d="M147.847 192.721v-.036c-2.2-46.834-10.434-82.743-10.535-83.063a1.444 1.444 0 0 0-2.754.866c3.439 10.94 8.656 45.169 10.4 82.314.358 16.358-7.249 17.942-7.565 18l-81.576 11.473a2.818 2.818 0 0 1-1.56-2.09 1.392 1.392 0 0 0-2.751.432 5.448 5.448 0 0 0 3.481 4.319 1.42 1.42 0 0 0 .926.162l81.934-11.445c.431-.066 10.425-1.847 10-20.932Z"/>
      <path d="M55.686 225.171a1.5 1.5 0 0 1-.72-.188 5.523 5.523 0 0 1-3.508-4.357 1.446 1.446 0 0 1 2.856-.449 2.766 2.766 0 0 0 1.512 2.044l81.563-11.47c.321-.059 7.876-1.637 7.52-17.946-1.859-39.478-7.306-72.447-10.4-82.3a1.5 1.5 0 0 1 .979-1.877 1.495 1.495 0 0 1 1.877.979 517.188 517.188 0 0 1 10.538 83.076v.036c.425 19.124-9.613 20.919-10.041 20.986L55.929 225.15a1.436 1.436 0 0 1-.243.021Zm-2.808-6.1a1.378 1.378 0 0 0-.2.014 1.341 1.341 0 0 0-1.119 1.527 5.421 5.421 0 0 0 3.445 4.276 1.4 1.4 0 0 0 .9.161l81.935-11.445c.424-.067 10.372-1.849 9.95-20.878v-.034a517.116 517.116 0 0 0-10.532-83.049 1.39 1.39 0 1 0-2.652.833c3.1 9.857 8.548 42.839 10.407 82.327.359 16.4-7.283 18-7.608 18.055l-81.578 11.473a.052.052 0 0 1-.026 0 2.867 2.867 0 0 1-1.595-2.132 1.349 1.349 0 0 0-1.327-1.131Z"/>
    </g>
    <g class="color-2" fill="#8e3330">
      <path d="M46.701 112.413a1.39 1.39 0 0 1-.438-.071l-5.8-3.244a1.392 1.392 0 0 1-.854-1.841l4.8-17.711a1.392 1.392 0 1 1 2.583 1.038L42.74 106.92l4.391 2.778a1.393 1.393 0 0 1-.437 2.714Z"/>
      <path d="M46.706 112.466a1.431 1.431 0 0 1-.455-.074l-5.8-3.244a1.445 1.445 0 0 1-.887-1.911l4.8-17.711a1.446 1.446 0 1 1 2.683 1.078l-4.231 16.284 4.337 2.759a1.446 1.446 0 0 1-.454 2.819Zm-.992-23.74a1.341 1.341 0 0 0-1.243.84l-4.8 17.711a1.338 1.338 0 0 0 .821 1.77l5.8 3.244a1.338 1.338 0 1 0 .841-2.541l-4.391-2.777a.054.054 0 0 1-.033-.071l4.252-16.336a1.339 1.339 0 0 0-1.241-1.838Z"/>
    </g>
    <g>
      <g>
        <path class="color-1" fill="#fff" d="m86.671 82.567-.682-19.594H53.244l.682 24.15c.068.089.137-3.569.205-3.482.002 0 19.365 9.458 32.54-1.074Z"/>
        <path class="color-2" fill="#8e3330" d="M71.28 89.053a38 38 0 0 1-6.059-.5 47.969 47.969 0 0 1-9.694-2.663c-.074 1.794-.165 2.373-1.135 2.683a1.517 1.517 0 0 1-1.977-1.4l-.682-24.15a1.514 1.514 0 0 1 1.514-1.557h32.742a1.514 1.514 0 0 1 1.513 1.462l.682 19.595a1.515 1.515 0 0 1-.568 1.235 25.6 25.6 0 0 1-16.336 5.295Zm-15.966-6.539c3.028 1.322 18.734 7.524 29.818-.672l-.6-17.355H54.804Z"/>
      </g>
    </g>
    <path class="color-1" fill="#fff" d="M74.817 32.428c7.735 3.223 10.635 3.867 16.138 3.475 0 0 1.433.318.34.766.335.771 1.156 3.589 1.8 6.119a37.04 37.04 0 0 1 .86 3.983 3.2 3.2 0 0 1 1.725-.221c2.5.41 3.973 3.914 3.294 7.825s-3.256 9.108-5.755 8.7a3.048 3.048 0 0 1-1.1-.422 29.983 29.983 0 0 1-13.852 18.442 17.582 17.582 0 0 1-17.121 0 29.979 29.979 0 0 1-13.852-18.442 3.04 3.04 0 0 1-1.1.422c-2.5.408-5.074-4.788-5.755-8.7s.8-7.415 3.294-7.825a3.2 3.2 0 0 1 1.726.221l.8-6.145c1.755-9.887 4.054-13.355 10.5-17.867.01 0 14.979 12.409 18.058 9.669Z"/>
    <path class="color-2" fill="#8e3330" d="M101.336 25.35a10.236 10.236 0 0 1-3.943-6.334c-.781-4.318-3.164-9.615-10.084-10.328a12.093 12.093 0 0 1-7.019-3.327c-2.821-2.64-7.284-5.709-12.54-5.33-4.282.307-8.373 2.861-12.159 7.588a13.6 13.6 0 0 1-6.046 4.24c-4.44 1.6-11.769 5.637-10.962 14.767a6.63 6.63 0 0 1-1.6 4.816 5.457 5.457 0 0 0-.322 7.254l.363.275a10.432 10.432 0 0 1 4.168 6.132l.614 2.573a3.292 3.292 0 0 1 1.931-1.128 3.2 3.2 0 0 1 1.726.22l.8-6.145c1.756-9.887 4.054-13.355 10.5-17.867 0 0 14.969 12.409 18.048 9.669 7.735 3.223 10.635 3.867 16.138 3.476 0 0 1.433.318.34.766.335.771 1.156 3.588 1.8 6.119a37.035 37.035 0 0 1 .86 3.983 3.2 3.2 0 0 1 1.725-.22 3.13 3.13 0 0 1 1.511.721l.566-3.009c.516-2.743 1.363-3.187 3.484-5l2.1-3.335.029-.064c1.366-3.062 2.114-7.376-2.028-10.512Z"/>
    <g class="color-2" fill="#8e3330">
      <g>
        <path d="M95.877 45.416a4.14 4.14 0 0 0-.906-.047 38.63 38.63 0 0 0-2.583-9.146 1.2 1.2 0 0 0-1.554-.614 1.14 1.14 0 0 0-.632 1.509 35.892 35.892 0 0 1 2.563 9.673l-.441 5.208a1.163 1.163 0 0 0 1.086 1.242h.1a1.173 1.173 0 0 0 1.181-1.058l.382-4.511a1.7 1.7 0 0 1 .413.01c1.586.26 2.93 2.993 2.322 6.5-.712 4.088-3.151 7.951-4.385 7.756a1.851 1.851 0 0 1-.665-.261 1.217 1.217 0 0 0-1.08-.093 1.162 1.162 0 0 0-.707.8 28.768 28.768 0 0 1-13.289 17.712 16.226 16.226 0 0 1-15.916.013 28.773 28.773 0 0 1-13.312-17.725 1.163 1.163 0 0 0-.708-.8 1.22 1.22 0 0 0-1.081.094 1.831 1.831 0 0 1-.661.26c-1.238.2-3.677-3.669-4.387-7.755-.608-3.505.735-6.238 2.319-6.5a1.732 1.732 0 0 1 .417-.01l.382 4.51a1.173 1.173 0 0 0 1.181 1.058h.1a1.162 1.162 0 0 0 1.085-1.242l-.449-5.3-.206-4.2a1.187 1.187 0 0 0-2.371.109l.135 2.749a4.2 4.2 0 0 0-.667.054c-3.192.524-5.066 4.544-4.267 9.153.637 3.664 3.372 10.255 7.125 9.644l.093-.017A31.056 31.056 0 0 0 60.508 82.06a18.729 18.729 0 0 0 9.275 2.441 18.5 18.5 0 0 0 9.1-2.423 31.1 31.1 0 0 0 14.043-17.886l.1.018a2.959 2.959 0 0 0 .485.039c3.492 0 6.028-6.18 6.637-9.684.798-4.606-1.076-8.627-4.271-9.149Z"/>
        <path d="M69.781 84.607a18.915 18.915 0 0 1-9.329-2.457 31.122 31.122 0 0 1-14.031-17.838c-3.815.62-6.6-6.03-7.245-9.729a9.867 9.867 0 0 1 1.265-7.242 4.719 4.719 0 0 1 3.088-2.031 4.283 4.283 0 0 1 .574-.054l-.129-2.642a1.229 1.229 0 0 1 .323-.892 1.3 1.3 0 0 1 .905-.423 1.281 1.281 0 0 1 1.351 1.2l.205 4.2.449 5.293a1.224 1.224 0 0 1-.29.9 1.3 1.3 0 0 1-2.283-.7l-.375-4.421a1.572 1.572 0 0 0-.3.015 2.207 2.207 0 0 0-1.381.991 7.384 7.384 0 0 0-.852 5.386c.684 3.932 3.093 7.864 4.267 7.67a1.721 1.721 0 0 0 .623-.246 1.328 1.328 0 0 1 1.174-.1 1.271 1.271 0 0 1 .771.871 28.666 28.666 0 0 0 13.263 17.66 16.161 16.161 0 0 0 15.813-.014 28.655 28.655 0 0 0 13.239-17.646 1.269 1.269 0 0 1 .769-.87 1.326 1.326 0 0 1 1.173.1 1.731 1.731 0 0 0 .628.248c1.168.191 3.582-3.751 4.265-7.671a7.379 7.379 0 0 0-.861-5.381 2.209 2.209 0 0 0-1.383-.993 1.494 1.494 0 0 0-.3-.015l-.375 4.421a1.3 1.3 0 0 1-2.282.7 1.226 1.226 0 0 1-.29-.9l.441-5.208a35.938 35.938 0 0 0-2.554-9.623 1.216 1.216 0 0 1-.011-.951 1.263 1.263 0 0 1 .7-.7 1.307 1.307 0 0 1 1.69.669 38.914 38.914 0 0 1 2.577 9.079 4.219 4.219 0 0 1 .833.052 4.724 4.724 0 0 1 3.091 2.032 9.73 9.73 0 0 1 1.264 7.241c-.532 3.061-2.968 9.77-6.74 9.771a3.084 3.084 0 0 1-.5-.041h-.006a31.174 31.174 0 0 1-14.063 17.857 18.633 18.633 0 0 1-9.156 2.437ZM46.494 64.089a.1.1 0 0 1 .1.074 30.921 30.921 0 0 0 13.967 17.809 18.691 18.691 0 0 0 9.221 2.426 18.421 18.421 0 0 0 9.053-2.41 30.969 30.969 0 0 0 13.994-17.825.1.1 0 0 1 .12-.073l.093.017a3.942 3.942 0 0 0 .468.038c1.9 0 3.392-1.891 4.309-3.476a19.947 19.947 0 0 0 2.225-6.121 9.652 9.652 0 0 0-1.229-7.085 4.517 4.517 0 0 0-2.954-1.947 4.032 4.032 0 0 0-.883-.045.1.1 0 0 1-.109-.089 38.677 38.677 0 0 0-2.575-9.12 1.1 1.1 0 0 0-1.419-.559 1.054 1.054 0 0 0-.586.581 1.011 1.011 0 0 0 .01.789 36.088 36.088 0 0 1 2.571 9.7l-.441 5.228a1.021 1.021 0 0 0 .242.75 1.086 1.086 0 0 0 .748.38 1.071 1.071 0 0 0 1.168-.958l.382-4.511a.1.1 0 0 1 .1-.1 1.844 1.844 0 0 1 .439.011 2.413 2.413 0 0 1 1.52 1.078 7.586 7.586 0 0 1 .888 5.541c-.732 4.207-3.192 8.057-4.5 7.842a1.95 1.95 0 0 1-.7-.276 1.113 1.113 0 0 0-.987-.085 1.059 1.059 0 0 0-.644.726 28.867 28.867 0 0 1-13.337 17.777 16.382 16.382 0 0 1-16.024.012 28.879 28.879 0 0 1-13.358-17.789 1.06 1.06 0 0 0-.644-.726 1.113 1.113 0 0 0-.988.086 1.927 1.927 0 0 1-.7.274.679.679 0 0 1-.108.009c-1.33 0-3.685-3.743-4.4-7.849a7.592 7.592 0 0 1 .887-5.542 2.408 2.408 0 0 1 1.517-1.076 1.871 1.871 0 0 1 .442-.011.1.1 0 0 1 .1.095l.383 4.511a1.093 1.093 0 0 0 1.916.579 1.019 1.019 0 0 0 .242-.75l-.449-5.3-.206-4.2a1.063 1.063 0 0 0-1.133-1 1.086 1.086 0 0 0-.76.354 1.021 1.021 0 0 0-.269.742l.135 2.75a.1.1 0 0 1-.029.077.106.106 0 0 1-.076.032 4.067 4.067 0 0 0-.65.053 4.515 4.515 0 0 0-2.951 1.946 9.657 9.657 0 0 0-1.229 7.086c.631 3.628 3.326 10.154 7.005 9.558l.09-.016Z"/>
      </g>
      <g>
        <path d="M69.783 84.719a19.027 19.027 0 0 1-9.388-2.474 31.217 31.217 0 0 1-14.05-17.808c-3.846.528-6.635-6.124-7.279-9.832a9.839 9.839 0 0 1 1.283-7.325 4.826 4.826 0 0 1 3.16-2.076 4.422 4.422 0 0 1 .477-.051l-.124-2.53a1.338 1.338 0 0 1 .351-.972 1.4 1.4 0 0 1 .982-.458 1.382 1.382 0 0 1 1.466 1.3l.206 4.2.449 5.289a1.337 1.337 0 0 1-.316.984 1.4 1.4 0 0 1-.966.491h-.116a1.4 1.4 0 0 1-1.395-1.254l-.367-4.321a1.35 1.35 0 0 0-.186.015 2.1 2.1 0 0 0-1.308.946 7.377 7.377 0 0 0-.833 5.3c.707 4.064 3.138 7.742 4.141 7.58a1.611 1.611 0 0 0 .583-.23 1.436 1.436 0 0 1 1.272-.111 1.378 1.378 0 0 1 .837.947 28.56 28.56 0 0 0 13.212 17.592 16.052 16.052 0 0 0 15.7-.016 28.54 28.54 0 0 0 13.185-17.576 1.38 1.38 0 0 1 .836-.946 1.436 1.436 0 0 1 1.271.109 1.635 1.635 0 0 0 .588.232c1.019.17 3.433-3.527 4.138-7.581a7.371 7.371 0 0 0-.834-5.3 2.106 2.106 0 0 0-1.311-.947 1.279 1.279 0 0 0-.181-.016l-.366 4.322a1.412 1.412 0 0 1-2.477.758 1.336 1.336 0 0 1-.316-.984l.441-5.208a35.845 35.845 0 0 0-2.546-9.569 1.327 1.327 0 0 1-.012-1.037 1.373 1.373 0 0 1 .76-.756 1.416 1.416 0 0 1 1.833.727 39.009 39.009 0 0 1 2.569 9.01 3.887 3.887 0 0 1 .757.056 4.829 4.829 0 0 1 3.162 2.078 9.836 9.836 0 0 1 1.284 7.323c-.538 3.089-3.008 9.862-6.849 9.863-.146-.006-.287-.01-.43-.029a31.283 31.283 0 0 1-14.085 17.829 18.746 18.746 0 0 1-9.208 2.456ZM46.491 63.98a.218.218 0 0 1 .209.153 30.805 30.805 0 0 0 13.917 17.745 18.565 18.565 0 0 0 9.166 2.411 18.318 18.318 0 0 0 9-2.4 30.856 30.856 0 0 0 13.942-17.761.212.212 0 0 1 .248-.149l.089.016a3.593 3.593 0 0 0 .449.037c3.373 0 5.85-6.192 6.427-9.506a9.544 9.544 0 0 0-1.211-7 4.411 4.411 0 0 0-2.882-1.9 3.957 3.957 0 0 0-.858-.044.207.207 0 0 1-.225-.182 38.537 38.537 0 0 0-2.568-9.093.986.986 0 0 0-1.276-.5.949.949 0 0 0-.525.521.9.9 0 0 0 .009.7 36.214 36.214 0 0 1 2.579 9.736l-.44 5.25a.91.91 0 0 0 .216.67.974.974 0 0 0 .673.341.747.747 0 0 0 .082 0 .963.963 0 0 0 .967-.861l.382-4.511a.215.215 0 0 1 .2-.2 1.877 1.877 0 0 1 .467.013 2.518 2.518 0 0 1 1.591 1.122 7.694 7.694 0 0 1 .907 5.623c-.685 3.939-3.139 8.179-4.629 7.932a2.054 2.054 0 0 1-.744-.29 1.006 1.006 0 0 0-.889-.076.951.951 0 0 0-.577.65 28.978 28.978 0 0 1-13.389 17.845 16.5 16.5 0 0 1-16.138.011 28.987 28.987 0 0 1-13.407-17.856.949.949 0 0 0-.578-.65 1.007 1.007 0 0 0-.89.077 2.035 2.035 0 0 1-.738.289c-1.487.243-3.947-3.98-4.634-7.93a7.7 7.7 0 0 1 .907-5.625 2.515 2.515 0 0 1 1.589-1.121 2.081 2.081 0 0 1 .469-.013.215.215 0 0 1 .2.2l.383 4.511a.965.965 0 0 0 1.047.859.977.977 0 0 0 .675-.341.91.91 0 0 0 .216-.67l-.449-5.3-.206-4.207a.957.957 0 0 0-1.018-.892.978.978 0 0 0-.684.319.91.91 0 0 0-.24.662l.135 2.75a.214.214 0 0 1-.214.225 3.974 3.974 0 0 0-.632.051 4.408 4.408 0 0 0-2.88 1.9 9.544 9.544 0 0 0-1.21 7c.624 3.59 3.283 10.053 6.878 9.469l.084-.015a.262.262 0 0 1 .028.005Z"/>
        <path d="M69.783 84.823a19.169 19.169 0 0 1-9.444-2.49 31.361 31.361 0 0 1-14.068-17.782 3.235 3.235 0 0 1-.354.019c-3.686 0-6.331-6.366-6.954-9.948a9.944 9.944 0 0 1 1.3-7.4 4.931 4.931 0 0 1 3.228-2.119 4.59 4.59 0 0 1 .385-.046l-.119-2.428a1.442 1.442 0 0 1 .378-1.047 1.5 1.5 0 0 1 1.055-.492 1.476 1.476 0 0 1 1.083.377 1.459 1.459 0 0 1 .492 1.021l.205 4.2.448 5.286a1.44 1.44 0 0 1-.34 1.06 1.509 1.509 0 0 1-1.037.528h-.124a1.5 1.5 0 0 1-1.5-1.349l-.358-4.221-.075.009a2 2 0 0 0-1.238.9 7.271 7.271 0 0 0-.815 5.225c.725 4.173 3.177 7.629 4.021 7.5a1.522 1.522 0 0 0 .546-.217 1.54 1.54 0 0 1 1.365-.119 1.484 1.484 0 0 1 .9 1.019 28.452 28.452 0 0 0 13.164 17.526 15.927 15.927 0 0 0 15.6-.017 28.436 28.436 0 0 0 13.135-17.51 1.481 1.481 0 0 1 .9-1.018 1.539 1.539 0 0 1 1.363.118 1.537 1.537 0 0 0 .551.218c.855.14 3.291-3.315 4.018-7.5a7.268 7.268 0 0 0-.816-5.223 2.009 2.009 0 0 0-1.243-.905l-.069-.009-.357 4.221a1.457 1.457 0 0 1-.523 1 1.529 1.529 0 0 1-2.137-.179 1.44 1.44 0 0 1-.341-1.06l.441-5.208a35.674 35.674 0 0 0-2.537-9.519 1.431 1.431 0 0 1-.013-1.118 1.474 1.474 0 0 1 .817-.813 1.52 1.52 0 0 1 1.968.782 39.212 39.212 0 0 1 2.563 8.946 4.838 4.838 0 0 1 .685.059 4.935 4.935 0 0 1 3.231 2.121 9.943 9.943 0 0 1 1.3 7.4c-.542 3.116-3.046 9.948-6.951 9.949h-.059c-.1 0-.2-.008-.3-.018a31.427 31.427 0 0 1-14.106 17.806 18.855 18.855 0 0 1-9.264 2.465Zm-23.439-20.49a.1.1 0 0 1 .1.074 31.157 31.157 0 0 0 14 17.749 18.937 18.937 0 0 0 9.336 2.46 18.647 18.647 0 0 0 9.162-2.44 31.219 31.219 0 0 0 14.036-17.769.1.1 0 0 1 .114-.073c.121.016.24.021.366.026h.055c3.77 0 6.208-6.714 6.742-9.776a9.734 9.734 0 0 0-1.266-7.244 4.727 4.727 0 0 0-3.094-2.036 3.815 3.815 0 0 0-.737-.055.107.107 0 0 1-.107-.088 39 39 0 0 0-2.562-8.985 1.31 1.31 0 0 0-1.7-.672 1.27 1.27 0 0 0-.7.7 1.227 1.227 0 0 0 .011.956 35.844 35.844 0 0 1 2.554 9.6l-.441 5.228a1.235 1.235 0 0 0 .292.907 1.294 1.294 0 0 0 .892.454 1.279 1.279 0 0 0 .952-.3 1.247 1.247 0 0 0 .449-.853l.366-4.322a.1.1 0 0 1 .106-.1 1.377 1.377 0 0 1 .2.017 2.206 2.206 0 0 1 1.379.99 7.475 7.475 0 0 1 .852 5.379c-.684 3.931-3.083 7.866-4.258 7.667a1.745 1.745 0 0 1-.625-.246 1.33 1.33 0 0 0-1.178-.1 1.272 1.272 0 0 0-.773.874 28.647 28.647 0 0 1-13.234 17.64 16.151 16.151 0 0 1-15.811.015 28.663 28.663 0 0 1-13.258-17.655 1.276 1.276 0 0 0-.774-.875 1.33 1.33 0 0 0-1.179.1 1.726 1.726 0 0 1-.621.245c-1.066.169-3.532-3.476-4.26-7.666a7.482 7.482 0 0 1 .851-5.381 2.205 2.205 0 0 1 1.376-.989 1.484 1.484 0 0 1 .2-.016.1.1 0 0 1 .1.1l.366 4.321a1.29 1.29 0 0 0 1.291 1.158h.108a1.3 1.3 0 0 0 .895-.455 1.234 1.234 0 0 0 .292-.907l-.448-5.289-.206-4.2a1.25 1.25 0 0 0-.422-.875 1.27 1.27 0 0 0-.933-.325 1.3 1.3 0 0 0-.911.424 1.236 1.236 0 0 0-.324.9l.124 2.53a.1.1 0 0 1-.1.109 4.282 4.282 0 0 0-.466.05 4.725 4.725 0 0 0-3.091 2.034 9.735 9.735 0 0 0-1.266 7.246c.635 3.655 3.389 10.266 7.162 9.747Zm23.438 20.061a18.8 18.8 0 0 1-9.221-2.427 30.91 30.91 0 0 1-13.961-17.8.116.116 0 0 0-.132-.076l-.084.015c-3.671.591-6.369-5.928-7-9.553a9.652 9.652 0 0 1 1.228-7.082 4.51 4.51 0 0 1 2.947-1.944 4.1 4.1 0 0 1 .649-.052.11.11 0 0 0 .11-.116l-.135-2.75a1.017 1.017 0 0 1 .267-.737 1.08 1.08 0 0 1 .756-.353 1.061 1.061 0 0 1 1.127.992l.206 4.207.449 5.293a1.016 1.016 0 0 1-.24.746 1.1 1.1 0 0 1-1.535.127 1.031 1.031 0 0 1-.37-.7l-.382-4.51a.11.11 0 0 0-.1-.1 1.887 1.887 0 0 0-.444.012 2.413 2.413 0 0 0-1.52 1.078 7.6 7.6 0 0 0-.888 5.547c.664 3.822 3.106 8.07 4.514 7.845a1.924 1.924 0 0 0 .7-.274 1.111 1.111 0 0 1 .983-.085 1.052 1.052 0 0 1 .641.722 28.881 28.881 0 0 0 13.359 17.792 16.368 16.368 0 0 0 16.034-.012A28.873 28.873 0 0 0 91.079 62.42a1.053 1.053 0 0 1 .639-.722 1.111 1.111 0 0 1 .982.083 1.954 1.954 0 0 0 .707.277.681.681 0 0 0 .112.009c1.416 0 3.749-4.13 4.4-7.856a7.588 7.588 0 0 0-.889-5.545 2.417 2.417 0 0 0-1.523-1.079 1.775 1.775 0 0 0-.441-.012.11.11 0 0 0-.1.1l-.382 4.51a1.068 1.068 0 0 1-1.071.957.778.778 0 0 1-.093 0 1.073 1.073 0 0 1-.741-.377 1.013 1.013 0 0 1-.24-.746l.44-5.25a36.149 36.149 0 0 0-2.571-9.686 1 1 0 0 1-.01-.784 1.05 1.05 0 0 1 .583-.578 1.09 1.09 0 0 1 1.411.556 38.646 38.646 0 0 1 2.575 9.119.109.109 0 0 0 .11.094 4.086 4.086 0 0 1 .887.045 4.513 4.513 0 0 1 2.951 1.945 9.648 9.648 0 0 1 1.228 7.08c-.582 3.345-3.094 9.592-6.529 9.593a3.721 3.721 0 0 1-.466-.038l-.09-.016a.111.111 0 0 0-.13.076 30.962 30.962 0 0 1-13.989 17.821 18.426 18.426 0 0 1-9.056 2.397ZM46.49 63.876a.323.323 0 0 1 .309.227 30.7 30.7 0 0 0 13.869 17.685 18.571 18.571 0 0 0 9.113 2.4 18.217 18.217 0 0 0 8.949-2.382 30.749 30.749 0 0 0 13.893-17.7.318.318 0 0 1 .369-.221l.086.015a3.452 3.452 0 0 0 .435.035c3.308 0 5.749-6.135 6.32-9.42a9.439 9.439 0 0 0-1.193-6.923 4.311 4.311 0 0 0-2.814-1.86 3.81 3.81 0 0 0-.836-.042.314.314 0 0 1-.334-.271 38.418 38.418 0 0 0-2.56-9.067.881.881 0 0 0-1.141-.446.843.843 0 0 0-.469.464.8.8 0 0 0 .008.622 36.326 36.326 0 0 1 2.588 9.766l-.44 5.27a.809.809 0 0 0 .192.593.871.871 0 0 0 .6.3h.073a.858.858 0 0 0 .863-.766l.382-4.51a.318.318 0 0 1 .29-.291 1.945 1.945 0 0 1 .493.014 2.616 2.616 0 0 1 1.659 1.164 7.8 7.8 0 0 1 .924 5.7c-.709 4.079-3.191 8.27-4.749 8.016a2.157 2.157 0 0 1-.781-.3.9.9 0 0 0-.8-.068.844.844 0 0 0-.514.578 29.085 29.085 0 0 1-13.438 17.911 16.592 16.592 0 0 1-16.245.01 29.089 29.089 0 0 1-13.453-17.921.844.844 0 0 0-.515-.578.9.9 0 0 0-.8.069 2.135 2.135 0 0 1-.775.3c-1.56.254-4.045-3.941-4.753-8.016a7.806 7.806 0 0 1 .924-5.7 2.612 2.612 0 0 1 1.657-1.163 2.21 2.21 0 0 1 .493-.015.318.318 0 0 1 .293.291l.383 4.51a.823.823 0 0 0 .3.561.89.89 0 0 0 1.242-.1.81.81 0 0 0 .192-.593l-.449-5.3-.206-4.211a.851.851 0 0 0-.91-.793.872.872 0 0 0-.611.285.807.807 0 0 0-.213.586l.135 2.75a.319.319 0 0 1-.319.335 3.845 3.845 0 0 0-.615.049 4.306 4.306 0 0 0-2.812 1.859 9.441 9.441 0 0 0-1.192 6.925c.618 3.555 3.234 9.957 6.759 9.383l.083-.015a.4.4 0 0 1 .062-.001Z"/>
      </g>
    </g>
    <g class="color-2" fill="#8e3330">
      <g>
        <path d="M68.727 60.355a1.151 1.151 0 1 1 .018-2.3l2.1.016a1.151 1.151 0 0 1-.018 2.3Z"/>
        <path d="M70.839 60.424h-.01l-2.1-.016a1.204 1.204 0 0 1 .009-2.407h.01l2.1.017a1.203 1.203 0 0 1-.009 2.406Zm-2.112-.12 2.1.016h.009a1.1 1.1 0 0 0 .009-2.2l-2.1-.017h-.009a1.1 1.1 0 0 0-.009 2.2Z"/>
      </g>
      <g>
        <path d="m70.828 60.533-2.1-.017a1.312 1.312 0 1 1 .021-2.624l2.1.016a1.313 1.313 0 1 1-.021 2.625Zm-2.787-2.035a.991.991 0 0 0 .687 1.7l2.1.016a.99.99 0 1 0 .015-1.981l-2.1-.016a.984.984 0 0 0-.7.284Zm.683 1.859Z"/>
        <path d="M70.838 60.585h-.01l-2.1-.016a1.365 1.365 0 0 1 .011-2.729h.011l2.1.016a1.365 1.365 0 0 1-.011 2.729Zm-.009-.1h.009a1.26 1.26 0 0 0 .011-2.521l-2.1-.016h-.01a1.26 1.26 0 0 0-.01 2.521Zm-2.1-.073a.053.053 0 0 1-.049-.031.055.055 0 0 1 0-.022.049.049 0 0 1 .03-.046.052.052 0 0 1 .069.027.057.057 0 0 1 0 .021.052.052 0 0 1-.031.048.055.055 0 0 1-.022-.001Zm2.113-.145h-.01l-2.1-.017a1.043 1.043 0 0 1-.723-1.786 1.043 1.043 0 0 1 .336-.222.968.968 0 0 1 .4-.077l2.1.016a1.043 1.043 0 0 1-.007 2.085Zm-2.762-1.728a.939.939 0 0 0 .651 1.607l2.1.017a.939.939 0 0 0 .015-1.877l-2.1-.016a1.04 1.04 0 0 0-.363.069.928.928 0 0 0-.3.2Z"/>
      </g>
    </g>
    <g class="color-2" fill="#8e3330">
      <path d="M78.13 43.52a1.931 1.931 0 1 0 1.916-1.945 1.932 1.932 0 0 0-1.916 1.945Z"/>
      <path d="M57.523 43.68a1.93 1.93 0 1 0 1.915-1.945 1.931 1.931 0 0 0-1.915 1.945Z"/>
    </g>
    <g>
      <path class="color-1" fill="#fff" d="m50.073 78.041 8.458-5.042a4.166 4.166 0 0 1 4.555-.162l6.995 5.2s1.464-3.9 4.392-2.115c0 0 1.627.163.488 6.019a23.228 23.228 0 0 0-1.952 9.922s6.018 12.525-1.627 20.332l-4.717 10.085-13.5-5.205 4.066-7.157-8.621-24.724s-2.834-4.579 1.463-7.153Z"/>
      <g class="color-2" fill="#8e3330">
        <path d="M53.161 118.445a1.366 1.366 0 0 1-1.185-2.04l3.761-6.618-8.418-24.139a1.365 1.365 0 0 1 2.578-.9l8.621 24.724a1.364 1.364 0 0 1-.1 1.124l-4.067 7.157a1.365 1.365 0 0 1-1.19.692Z"/>
        <path d="M53.16 118.498a1.419 1.419 0 0 1-1.232-2.119l3.749-6.6-8.409-24.116a1.419 1.419 0 1 1 2.679-.934l8.621 24.724a1.418 1.418 0 0 1-.106 1.168l-4.067 7.157a1.422 1.422 0 0 1-1.235.72Zm-4.55-34.61a1.313 1.313 0 0 0-1.239 1.744l8.417 24.14a.052.052 0 0 1 0 .044l-3.761 6.618a1.311 1.311 0 0 0 1.133 1.954 1.316 1.316 0 0 0 1.141-.664l4.067-7.157a1.313 1.313 0 0 0 .1-1.08l-8.621-24.724a1.313 1.313 0 0 0-1.237-.881Z"/>
      </g>
      <g class="color-2" fill="#8e3330">
        <path d="M66.663 123.649a1.366 1.366 0 0 1-1.236-1.944l4.717-10.085a1.368 1.368 0 0 1 .261-.377c6.9-7.042 1.428-18.669 1.372-18.786a1.357 1.357 0 0 1-.132-.5 24.352 24.352 0 0 1 2-10.424c.57-3.015.3-4.108.183-4.4l-.073-.041c-.607-.371-.915-.265-1.031-.225a3.145 3.145 0 0 0-1.371 1.654 1.365 1.365 0 0 1-2.093.616l-6.935-5.161a2.766 2.766 0 0 0-2.966.106 1.3 1.3 0 0 1-.134.09l-8.458 5.043a1.366 1.366 0 1 1-1.4-2.345l8.41-5.014a5.51 5.51 0 0 1 6-.189 1.275 1.275 0 0 1 .113.076l5.749 4.278a4.669 4.669 0 0 1 2.191-1.734 3.786 3.786 0 0 1 3.189.386 2.134 2.134 0 0 1 .955.747c.872 1.173.976 3.393.316 6.787a1.351 1.351 0 0 1-.1.317 22.186 22.186 0 0 0-1.84 9.012 28.418 28.418 0 0 1 2.058 7.391c.763 5.712-.583 10.567-3.893 14.058l-4.621 9.88a1.366 1.366 0 0 1-1.231.784Zm7.668-46.365Z"/>
        <path d="M66.663 123.703a1.419 1.419 0 0 1-1.284-2.02l4.717-10.085a1.416 1.416 0 0 1 .271-.392c6.88-7.025 1.418-18.609 1.362-18.725a1.419 1.419 0 0 1-.137-.523 24.493 24.493 0 0 1 2.008-10.45c.557-2.951.3-4.05.189-4.339l-.058-.034c-.584-.357-.875-.257-.985-.22a3.089 3.089 0 0 0-1.339 1.623 1.418 1.418 0 0 1-2.175.64l-6.935-5.161a2.7 2.7 0 0 0-2.9.105 1.421 1.421 0 0 1-.139.094L50.8 79.258a1.418 1.418 0 1 1-1.452-2.437l8.41-5.014a5.574 5.574 0 0 1 6.058-.189c.04.024.08.05.118.078l5.7 4.246a4.624 4.624 0 0 1 2.185-1.709 3.845 3.845 0 0 1 3.233.39 2.175 2.175 0 0 1 .971.762c.882 1.185.989 3.419.326 6.829a1.442 1.442 0 0 1-.107.329 22.119 22.119 0 0 0-1.836 8.977 28.623 28.623 0 0 1 2.058 7.4c.764 5.72-.585 10.594-3.9 14.1l-4.617 9.871a1.425 1.425 0 0 1-1.284.812Zm6.32-46.936a1.568 1.568 0 0 1 .805.278c.023.015.047.027.07.04a.056.056 0 0 1 .024.028c.133.341.382 1.454-.18 4.427a24.41 24.41 0 0 0-2 10.411 1.307 1.307 0 0 0 .127.484c.056.117 5.55 11.768-1.382 18.847a1.306 1.306 0 0 0-.251.361l-4.717 10.085a1.312 1.312 0 1 0 2.376 1.112l4.621-9.879a.04.04 0 0 1 .01-.014c3.3-3.478 4.639-8.325 3.879-14.015a28.484 28.484 0 0 0-2.054-7.376.064.064 0 0 1 0-.019 22.247 22.247 0 0 1 1.845-9.037 1.325 1.325 0 0 0 .1-.3c.657-3.379.557-5.585-.306-6.745a2.084 2.084 0 0 0-.931-.729 3.747 3.747 0 0 0-3.153-.385 4.546 4.546 0 0 0-2.165 1.715.054.054 0 0 1-.075.011l-5.748-4.278a1.38 1.38 0 0 0-.109-.073 5.468 5.468 0 0 0-5.945.187l-8.413 5.016a1.312 1.312 0 0 0 1.343 2.253l8.459-5.043a1.352 1.352 0 0 0 .129-.087 2.818 2.818 0 0 1 3.025-.109l6.941 5.165a1.311 1.311 0 0 0 2.01-.592 3.2 3.2 0 0 1 1.4-1.686.776.776 0 0 1 .268-.053Zm1.349.57a.055.055 0 0 1-.025-.006.054.054 0 0 1-.029-.048.054.054 0 0 1 .066-.052.054.054 0 0 1-.012.106Z"/>
      </g>
      <g class="color-2" fill="#8e3330">
        <path d="M71.871 86.888c-.045 0-.091 0-.137-.007a1.365 1.365 0 0 1-1.222-1.494l.313-3.128a2.237 2.237 0 0 0-.77-1.671 3.477 3.477 0 0 0-2.434-.4l-12.972 3.405a1.365 1.365 0 0 1-.693-2.64l13.013-3.416.06-.015a6.185 6.185 0 0 1 4.654.878 4.926 4.926 0 0 1 1.873 3.772 1.326 1.326 0 0 1 0 .237l-.325 3.253a1.366 1.366 0 0 1-1.36 1.226Z"/>
        <path d="M71.871 86.942a1.325 1.325 0 0 1-.143-.007 1.418 1.418 0 0 1-1.27-1.552l.313-3.128a2.182 2.182 0 0 0-.749-1.622 3.389 3.389 0 0 0-2.391-.394l-12.968 3.4a1.419 1.419 0 1 1-.72-2.744l13.013-3.416.063-.015a6.25 6.25 0 0 1 4.7.888 4.975 4.975 0 0 1 1.894 3.811 1.354 1.354 0 0 1 0 .246l-.325 3.253a1.413 1.413 0 0 1-1.417 1.28Zm-3.534-6.87a2.971 2.971 0 0 1 1.749.474 2.287 2.287 0 0 1 .79 1.708l-.312 3.139a1.312 1.312 0 0 0 2.61.261l.325-3.253a1.328 1.328 0 0 0 0-.227 4.874 4.874 0 0 0-1.851-3.733 6.133 6.133 0 0 0-4.611-.868l-.058.014-13.012 3.416a1.311 1.311 0 0 0 .666 2.536l12.972-3.4a4.138 4.138 0 0 1 .733-.067Z"/>
      </g>
      <g class="color-2" fill="#8e3330">
        <path d="M72.522 93.069c-.045 0-.091 0-.138-.007a1.365 1.365 0 0 1-1.222-1.494l.313-3.128a2.237 2.237 0 0 0-.769-1.671 3.483 3.483 0 0 0-2.437-.4l-10.7 2.756a1.365 1.365 0 0 1-.681-2.644l10.737-2.763.055-.013a6.18 6.18 0 0 1 4.654.878 4.926 4.926 0 0 1 1.873 3.772 1.359 1.359 0 0 1 0 .237l-.325 3.253a1.365 1.365 0 0 1-1.36 1.224Z"/>
        <path d="M72.522 93.123c-.047 0-.1 0-.143-.007a1.419 1.419 0 0 1-1.271-1.552l.313-3.128a2.18 2.18 0 0 0-.749-1.623 3.393 3.393 0 0 0-2.394-.393l-10.695 2.755a1.419 1.419 0 1 1-.707-2.748l10.735-2.765.058-.013a6.227 6.227 0 0 1 4.7.888 4.977 4.977 0 0 1 1.894 3.811 1.386 1.386 0 0 1 0 .246l-.325 3.253a1.413 1.413 0 0 1-1.416 1.276Zm-3.534-6.87a2.972 2.972 0 0 1 1.75.474 2.287 2.287 0 0 1 .79 1.709l-.313 3.138a1.312 1.312 0 0 0 2.611.26l.325-3.253a1.289 1.289 0 0 0 0-.227 4.873 4.873 0 0 0-1.851-3.733 6.118 6.118 0 0 0-4.611-.868l-.053.012L56.9 86.53a1.312 1.312 0 0 0 .655 2.54l10.7-2.756a4.111 4.111 0 0 1 .731-.061Z"/>
      </g>
      <g class="color-2" fill="#8e3330">
        <path d="M70.949 103.06a2.564 2.564 0 0 1-.812-.135 1.365 1.365 0 0 1 .774-2.616 6.541 6.541 0 0 0 1.235-2.8l.3-3.047a2.239 2.239 0 0 0-.769-1.671 3.488 3.488 0 0 0-2.447-.4l-10.224 2.434a1.365 1.365 0 1 1-.633-2.656l10.248-2.44a6.2 6.2 0 0 1 4.685.871 4.925 4.925 0 0 1 1.873 3.772 1.325 1.325 0 0 1 0 .236l-.325 3.253a1.332 1.332 0 0 1-.023.15c-.726 3.389-2.191 4.456-2.622 4.7a2.522 2.522 0 0 1-1.26.349Z"/>
        <path d="M70.948 103.11a2.618 2.618 0 0 1-.829-.138 1.419 1.419 0 0 1 .778-2.726 6.754 6.754 0 0 0 1.2-2.752l.3-3.041a2.182 2.182 0 0 0-.749-1.623 3.468 3.468 0 0 0-2.4-.391l-10.221 2.434a1.419 1.419 0 1 1-.658-2.76l10.248-2.44a6.283 6.283 0 0 1 4.729.881 4.975 4.975 0 0 1 1.894 3.81 1.354 1.354 0 0 1 0 .246l-.325 3.253a1.458 1.458 0 0 1-.024.156c-.731 3.409-2.211 4.488-2.648 4.738a2.571 2.571 0 0 1-1.295.353Zm-.379-2.8a1.312 1.312 0 0 0-.416 2.556 2.444 2.444 0 0 0 2.029-.206c.427-.244 1.875-1.3 2.6-4.667a1.344 1.344 0 0 0 .023-.145l.325-3.253a1.29 1.29 0 0 0 0-.227 4.873 4.873 0 0 0-1.852-3.733 6.176 6.176 0 0 0-4.642-.862l-10.246 2.44a1.312 1.312 0 1 0 .607 2.552l10.224-2.434a3.493 3.493 0 0 1 2.492.411 2.284 2.284 0 0 1 .79 1.708l-.3 3.058a6.54 6.54 0 0 1-1.256 2.836.054.054 0 0 1-.046.01 1.281 1.281 0 0 0-.332-.04Z"/>
      </g>
      <g class="color-2" fill="#8e3330">
        <path d="M70.407 108.521c-.04 0-.08 0-.12-.005a1.365 1.365 0 0 1-1.242-1.478c.234-2.691-2-6.874-2.882-8.258a1.365 1.365 0 0 1 2.3-1.466c.15.235 3.66 5.806 3.3 9.96a1.365 1.365 0 0 1-1.356 1.247Z"/>
        <path d="M70.407 108.575h-.125a1.419 1.419 0 0 1-1.29-1.536c.233-2.675-2-6.844-2.873-8.225a1.418 1.418 0 1 1 2.393-1.523c.15.236 3.669 5.825 3.307 9.993a1.427 1.427 0 0 1-1.412 1.291Zm-3.094-11.838a1.31 1.31 0 0 0-1.1 2.015c.884 1.389 3.125 5.587 2.891 8.292a1.312 1.312 0 0 0 1.193 1.42c.039 0 .077.005.115.005a1.319 1.319 0 0 0 1.3-1.2c.359-4.133-3.141-9.692-3.29-9.926a1.311 1.311 0 0 0-1.109-.606Z"/>
      </g>
    </g>
    <g>
      <path class="color-3" fill="#eae3dc" d="M49.327 109.554 8.409 176.481l35.365 9.749 30.393-61.8Z"/>
      <path class="color-2" fill="#8e3330" d="m75.013 123.199-24.84-14.877a1.5 1.5 0 0 0-2.136.469L7.119 175.718a1.5 1.5 0 1 0 2.574 1.529l40.1-65.55 22.445 13.228-34.24 66.612a1.5 1.5 0 0 0 2.673 1.347L75.5 125.106a1.5 1.5 0 0 0-.487-1.907Z"/>
    </g>
    <path class="color-2" fill="#8e3330" d="m94.92 44.821-4.514-.966.049-.344a1.22 1.22 0 1 0-2.417-.336c0 .027-.373 2.683-.794 4.786a2.161 2.161 0 0 1-2.007 1.736 70.535 70.535 0 0 1-9.55-.093 1.522 1.522 0 0 1-1.348-1.18c-.295-1.292-.687-3.16-.878-4.719a1.217 1.217 0 0 0-2.413-.035 1.24 1.24 0 0 0-.146-.011l-2.912.08c-.026 0-.05.007-.075.01a1.216 1.216 0 0 0-2.4.141c-.156 1.564-.507 3.44-.773 4.738a1.521 1.521 0 0 1-1.321 1.209 70.468 70.468 0 0 1-9.547.306 2.159 2.159 0 0 1-2.045-1.69 91.84 91.84 0 0 1-.9-4.768 1.217 1.217 0 0 0-2.3-.348l-4.186 1.029a1.239 1.239 0 0 0-.173.057 1.223 1.223 0 0 0 .754 2.319l3.789-.931c.168.936.392 2.112.63 3.177a4.6 4.6 0 0 0 4.354 3.6 72.948 72.948 0 0 0 9.893-.32 3.959 3.959 0 0 0 3.437-3.147c.172-.836.377-1.9.548-2.992a1.208 1.208 0 0 0 .376.055l2.912-.079a1.209 1.209 0 0 0 .384-.079c.194 1.071.42 2.122.608 2.945a3.957 3.957 0 0 0 3.506 3.069 72.964 72.964 0 0 0 9.9.1 4.6 4.6 0 0 0 4.273-3.7c.142-.707.276-1.463.393-2.167l4.38.938a1.223 1.223 0 0 0 .51-2.392Z"/>
    <path class="color-2" fill="#8e3330" d="M55.052 219.416a1.414 1.414 0 0 1-.192-.013 1.46 1.46 0 0 1-1.258-1.637c2.188-16.707-3.242-21.16-3.3-21.2a1.448 1.448 0 0 1-.316-2.031 1.471 1.471 0 0 1 2.049-.319c.2.142 1.955 1.493 3.332 5.184 1.759 4.717 2.139 11.024 1.127 18.748a1.46 1.46 0 0 1-1.442 1.268Z"/>
    <path class="color-2" fill="#8e3330" d="M58.126 175.669a1.46 1.46 0 0 1-1.367-.948L53.113 165a1.46 1.46 0 1 1 2.734-1.025l3.646 9.721a1.462 1.462 0 0 1-1.367 1.973Z"/>
    <path class="color-2" fill="#8e3330" d="M73.952 65.96a1.356 1.356 0 0 0-.962-.408l-6.385-.016h-.011a1.365 1.365 0 0 0-.011 2.729l6.386.016h.01a1.365 1.365 0 0 0 .973-2.321Z"/>
    <g class="color-2" fill="#8e3330">
      <path d="M94.151 37.557c-26.5 0-41.977-19.1-42.636-19.929a1.318 1.318 0 0 1 2.06-1.644c.153.193 15.381 18.933 40.626 18.933.515 0 1.031-.008 1.555-.024h.041a1.32 1.32 0 0 1 .039 2.638q-.849.027-1.685.026Z"/>
      <path d="M94.151 37.612c-26.528 0-42.031-19.134-42.678-19.949a1.378 1.378 0 0 1 .219-1.929 1.369 1.369 0 0 1 1.926.218c.15.189 15.316 18.912 40.583 18.912.512 0 1.021-.008 1.553-.024h.042a1.374 1.374 0 0 1 .041 2.747c-.558.016-1.125.025-1.686.025ZM52.543 15.543a1.253 1.253 0 0 0-.784.276 1.27 1.27 0 0 0-.2 1.778c.646.813 16.117 19.908 42.594 19.908.56 0 1.126-.009 1.683-.026a1.266 1.266 0 0 0-.038-2.53h-.027c-.545.016-1.055.024-1.568.024-25.318 0-40.517-18.764-40.668-18.953a1.253 1.253 0 0 0-.847-.468 1.29 1.29 0 0 0-.145-.01Z"/>
    </g>
    <path class="color-2" fill="#8e3330" d="M61.941 37.174a1.514 1.514 0 0 1-.2.058l-4.591.966a1.46 1.46 0 0 1-.6-2.858l4.591-.966a1.46 1.46 0 0 1 .8 2.8Z"/>
  </g>
</svg>
